<svg width="144" height="144" viewBox="0 0 144 144" fill="none" xmlns="http://www.w3.org/2000/svg">
<rect width="144" height="144" rx="24" fill="#17222D"/>
<path d="M41.1147 43.0985C44.0782 43.0985 46.4807 40.6958 46.4807 37.7319C46.4807 34.768 44.0782 32.3652 41.1147 32.3652C38.1511 32.3652 35.7487 34.768 35.7487 37.7319C35.7487 40.6958 38.1511 43.0985 41.1147 43.0985Z" fill="#D9D9D9"/>
<path d="M71.4166 64.0067C74.3801 64.0067 76.7826 61.604 76.7826 58.6401C76.7826 55.6762 74.3801 53.2734 71.4166 53.2734C68.453 53.2734 66.0506 55.6762 66.0506 58.6401C66.0506 61.604 68.453 64.0067 71.4166 64.0067Z" fill="#D9D9D9"/>
<path d="M99.5455 34.7333C102.509 34.7333 104.911 32.3306 104.911 29.3667C104.911 26.4027 102.509 24 99.5455 24C96.5819 24 94.1795 26.4027 94.1795 29.3667C94.1795 32.3306 96.5819 34.7333 99.5455 34.7333Z" fill="#D9D9D9"/>
<g clip-path="url(#clip0_820_297)">
<path d="M31.8558 85.5094C36.3798 66.8986 35.7295 48.9992 39.4901 49.0277C43.7596 49.0561 47.5485 72.2485 49.3298 83.2329C52.8359 104.718 50.0649 115.987 52.5249 116.157C57.5013 116.556 64.2784 70.3239 69.0004 70.6654C73.6657 71.0069 74.0704 116.727 77.8027 116.983C82.666 117.324 92.6471 41.0882 98.3021 40.263C103.137 39.5515 112.015 64.4228 111.337 90.091" stroke="#34F5C5" stroke-width="6" stroke-miterlimit="10"/>
</g>
<defs>
<clipPath id="clip0_820_297">
<rect width="85.3339" height="82.6673" fill="white" transform="translate(29 37.332)"/>
</clipPath>
</defs>
</svg>
