<svg width="342" height="200" viewBox="0 0 342 200" fill="none" xmlns="http://www.w3.org/2000/svg">
<g clip-path="url(#clip0_785_68)">
<path d="M178.62 75.5676C180.886 72.697 184.204 71.5395 186.031 72.982C187.858 74.4244 187.501 77.9202 185.234 80.7915C184.344 81.9509 183.189 82.8803 181.866 83.5019L172.111 95.5434L166.558 90.8451L176.764 79.4732C177.062 78.0418 177.699 76.7026 178.62 75.5676Z" fill="#FFB6B6"/>
<path d="M142.671 70.4153L156.905 94.6046L174.136 82.7015L181.067 85.4663C181.067 85.4663 168.822 112.118 158.264 110.385C147.705 108.651 126.697 84.8023 129.108 76.4739C131.52 68.1456 142.671 70.4153 142.671 70.4153Z" fill="#34F5C5"/>
<path d="M185.576 62.9617L177.623 65.3105L183.103 83.8687L191.057 81.5199L185.576 62.9617Z" fill="#34F5C5"/>
<path d="M140.884 71.018L141.054 59.6749L134.059 55.3145L126.453 64.6185L140.884 71.018Z" fill="#FFB6B6"/>
<path opacity="0.1" d="M140.884 71.018L141.337 59.9575L134.059 55.3145L136.532 69.0023L140.884 71.018Z" fill="black"/>
<path d="M137.138 60.8043C144.009 60.8043 149.579 55.2346 149.579 48.3641C149.579 41.4935 144.009 35.9238 137.138 35.9238C130.268 35.9238 124.698 41.4935 124.698 48.3641C124.698 55.2346 130.268 60.8043 137.138 60.8043Z" fill="#FFB6B6"/>
<path d="M157.873 146.024L155.681 160.924L154.579 168.427L149.99 199.648C144.201 199.467 138.487 199.206 132.859 198.878L133.677 179.867L134.17 168.427L134.494 160.924L134.695 156.201L131.745 144.934C131.745 144.934 130.774 143.129 129.787 140.724C129.613 140.298 129.435 139.851 129.265 139.393C128.041 136.12 127.07 132.222 128.29 130.184C128.349 130.089 128.408 129.998 128.476 129.912C129.028 129.197 130.462 128.664 132.409 128.269C133.598 128.024 134.984 127.834 136.476 127.688C140.994 127.242 146.511 127.175 150.733 127.218C154.551 127.25 157.308 127.368 157.308 127.368L157.347 128.628L157.351 128.751L157.379 129.706L157.446 131.989L157.616 137.628L157.79 143.358L157.873 146.024Z" fill="#2F2E41"/>
<path d="M157.79 143.359L151.641 155.692L147.751 160.925L142.179 168.428L133.677 179.869L120.194 198.015C113.71 197.509 107.352 196.905 101.148 196.218L117.651 168.428L122.106 160.925L126.406 153.686L129.139 142.364C129.139 142.364 129.139 141.76 129.182 140.792C129.202 140.386 129.23 139.912 129.265 139.394C129.506 135.939 130.237 130.43 132.409 128.27C132.701 127.974 133.021 127.745 133.368 127.587C134.02 127.294 135.106 127.365 136.476 127.689C139.865 128.499 144.983 130.884 149.579 133.254C152.758 134.896 155.685 136.527 157.616 137.629L157.79 143.359Z" fill="#2F2E41"/>
<path d="M128.053 62.2188L142.185 69.0024C142.185 69.0024 157.165 113.378 157.165 115.64C157.165 117.901 161.405 119.314 158.861 121.858C156.317 124.402 163.596 126.556 159.674 128.588C155.752 130.62 131.286 141.735 128.566 140.732C121.063 137.968 128.884 127.81 128.884 127.81C128.884 127.81 123.247 123.271 124.095 121.01C124.943 118.749 119.008 75.5033 119.008 75.5033L128.053 62.2188Z" fill="#34F5C5"/>
<path d="M138.185 51.2554L141.307 53.0025C141.307 53.0025 139.392 47.3391 140.79 44.8413C142.188 42.3434 141.373 40.5756 141.373 40.5756C141.373 40.5756 146.358 42.2171 147.671 40.1638C148.984 38.1105 149.418 37.0415 145.142 35.3048C140.866 33.5681 142.475 34.7963 142.475 34.7963C142.475 34.7963 138.823 33.409 139.628 34.0231C140.432 34.6371 136.6 32.9852 137.14 33.7792C137.68 34.5732 134.737 33.0907 135.277 33.8847C135.817 34.6787 128.46 35.81 129.974 36.329C131.487 36.8479 123.77 37.4499 124.002 43.4835C124.234 49.5171 120.032 51.2285 123.133 52.9822C126.234 54.7359 130.562 62.2415 130.562 62.2415L134.212 59.7604C134.212 59.7604 133.115 50.0584 138.185 51.2554Z" fill="#2F2E41"/>
<path d="M111.683 115.901C115.31 115.432 118.008 113.179 117.708 110.871C117.409 108.563 114.226 107.073 110.598 107.544C109.146 107.712 107.756 108.225 106.543 109.041L91.2007 111.226L92.3794 118.403L107.379 115.488C108.76 115.967 110.236 116.109 111.683 115.901Z" fill="#A0616A"/>
<path d="M64.7797 84.4033L68.9879 115.731C68.9879 115.731 70.1455 122.468 80.6822 121.476C91.219 120.484 105.066 116.398 105.066 116.398L104.165 109.082L92.3961 110.357C92.3961 110.357 86.9024 109.025 85.8118 109.923C84.7212 110.822 85.2221 111.874 84.1436 110.566C83.065 109.257 83.6066 108.444 82.6622 109.589C81.7179 110.733 81.5261 112.723 80.9605 110.259C80.3949 107.795 79.3426 108.296 79.3426 108.296L78.7439 85.348C78.7439 85.348 75.5827 74.4013 69.8085 78.0613C64.0343 81.7212 64.7797 84.4033 64.7797 84.4033Z" fill="#E6E6E6"/>
<path d="M83.2243 59.4102H62.3825V90.2062H83.2243V59.4102Z" fill="#2F2E41"/>
<path d="M67.0609 80.8166L67.7907 71.9961H77.4956L79.647 81.3412L67.0609 80.8166Z" fill="#A0616A"/>
<path opacity="0.1" d="M67.0609 80.8166L67.7907 71.9961H77.4956L79.647 81.3412L67.0609 80.8166Z" fill="black"/>
<path d="M84.6427 65.8921C85.5812 60.1089 81.6538 54.66 75.8707 53.7215C70.0875 52.783 64.6386 56.7104 63.7001 62.4935C62.7616 68.2767 66.689 73.7256 72.4722 74.6641C78.2553 75.6026 83.7042 71.6752 84.6427 65.8921Z" fill="#A0616A"/>
<path d="M76.8473 53.0334C76.8473 53.0334 76.8473 48.6783 72.8034 49.6116C68.7595 50.5448 67.5152 52.1001 67.5152 52.1001C67.5152 52.1001 65.9598 54.5887 63.4713 54.8998C60.9827 55.2109 58.8052 62.3655 59.1163 63.9209C59.4273 65.4762 60.9827 69.5202 58.8052 71.3866C56.6277 73.253 53.517 76.0527 54.4502 78.8523C55.3834 81.652 58.183 88.8066 58.183 88.8066C58.183 88.8066 50.3744 89.948 51.0125 94.8211C51.0125 94.8211 54.7613 91.9173 59.7384 91.9173C64.7156 91.9173 64.0934 82.8877 64.0934 82.8877C64.0934 82.8877 64.4045 77.2969 65.3377 75.7416C66.2709 74.1862 65.0266 65.4762 69.6927 60.8101C74.3588 56.1441 76.8473 53.0334 76.8473 53.0334Z" fill="#2F2E41"/>
<path d="M75.6031 52.0996C75.6031 52.0996 81.5134 53.3439 83.691 59.2543C85.8685 65.1646 84.7687 66.2644 84.7687 66.2644C84.7687 66.2644 85.2501 69.8234 87.8923 71.0713C90.5345 72.3193 88.357 77.6075 88.357 77.6075C88.357 77.6075 88.9792 82.8957 97.3781 84.7621C105.777 86.6286 86.8457 100.941 86.8457 100.941C86.8457 100.941 88.2068 94.1861 79.4968 93.875C70.7868 93.564 81.2024 77.6075 81.2024 77.6075L82.1356 67.3421C82.1356 67.3421 80.2692 55.5214 74.6699 53.966C69.0706 52.4107 75.6031 52.0996 75.6031 52.0996Z" fill="#2F2E41"/>
<path d="M90.6631 146.307L88.5148 160.923L87.413 168.426L85.5451 181.119L83.6535 193.981C81.4143 193.657 79.2029 193.321 77.019 192.974C73.2674 192.377 69.5947 191.749 66.0011 191.086L66.7001 174.764L66.9725 168.426L67.2964 160.923L67.4859 156.48L64.532 145.213C64.532 145.213 58.4386 133.868 61.2661 130.195C61.3964 130.029 61.5702 129.871 61.7913 129.725C62.5101 129.239 63.6948 128.852 65.1836 128.552C68.7022 127.834 73.915 127.573 78.6658 127.506C84.7632 127.419 90.0944 127.652 90.0944 127.652L90.126 128.58L90.1853 130.594L90.6631 146.307Z" fill="#2F2E41"/>
<path d="M90.6631 146.309L88.5148 160.925L87.413 168.428L85.5451 181.12L77.019 192.975C73.2673 192.379 69.5947 191.751 66.001 191.088C63.3591 190.602 60.7645 190.096 58.2095 189.575L66.7 174.766L70.3332 168.428L74.6298 160.924L76.6951 157.323L78.492 154.187L79.807 148.343L80.818 143.86L81.051 142.826C81.051 142.826 81.0273 141.199 81.1813 139.015C81.4183 135.706 82.0698 131.109 83.8627 128.949C84.2103 128.522 84.6052 128.194 85.0514 127.985C85.9834 127.547 87.8237 127.847 90.126 128.581L90.1852 130.596L90.6631 146.309Z" fill="#2F2E41"/>
<path d="M80.3447 80.8737L80.0858 80.8005L67.3428 77.1992L57.1674 91.0491L63.951 119.879L61.4072 131.468C61.4072 131.468 82.0406 126.098 90.2375 130.62C90.2375 130.62 90.8027 128.043 90.2375 126.788C89.6722 125.532 88.8242 120.309 89.6722 117.974C90.5201 115.64 87.9763 104.616 87.9763 104.616C87.9763 104.616 88.8242 97.2673 85.1498 93.5929C81.4753 89.9184 80.3447 80.8737 80.3447 80.8737Z" fill="#E6E6E6"/>
<path d="M76.8076 157.782C77.7214 161.323 80.2892 163.722 82.5428 163.14C84.7964 162.559 85.882 159.216 84.9674 155.674C84.6215 154.254 83.9406 152.937 82.9815 151.835L78.9205 136.879L71.9429 138.934L76.6872 153.46C76.3815 154.889 76.4228 156.372 76.8076 157.782Z" fill="#A0616A"/>
<path d="M78.658 93.6034C78.658 93.6034 74.7058 82.9231 70.3743 83.6185C66.0427 84.3138 62.0936 91.0273 62.0936 91.0273L65.2249 129.02L73.8258 150.701L82.9491 147.104L78.2102 125.437L78.658 93.6034Z" fill="#E6E6E6"/>
<path opacity="0.7" d="M276.258 27.6426V191.383C276.128 191.411 275.998 191.435 275.863 191.455C273.861 191.818 271.831 192.165 269.778 192.505C267.337 192.908 264.861 193.299 262.354 193.674C260.268 193.982 258.164 194.282 256.035 194.57C249.839 195.419 243.469 196.174 236.945 196.829C234.856 197.043 232.747 197.244 230.627 197.433C212.086 199.1 192.38 200 171.947 200C169.052 200 166.177 199.981 163.314 199.945C163.18 199.945 163.05 199.945 162.919 199.941V27.6426H276.258Z" fill="#F2F2F2"/>
<path d="M275.863 81.6625V82.1482L275.915 82.0456C275.911 81.9192 275.891 81.7928 275.863 81.6625ZM162.92 133.253L162.525 132.933V168.428H162.92V199.942C163.05 199.945 163.18 199.945 163.314 199.945V109.314C163.184 109.385 163.054 109.452 162.92 109.519V133.253ZM162.525 27.248V199.934C162.655 199.938 162.785 199.942 162.92 199.942C163.05 199.945 163.18 199.945 163.314 199.945V28.0379H275.863V191.455C275.998 191.435 276.128 191.412 276.258 191.384C276.389 191.364 276.523 191.34 276.653 191.313V27.248H162.525Z" fill="#3F3D56"/>
<path d="M172.593 151.448C176.737 151.448 180.097 148.089 180.097 143.945C180.097 139.801 176.737 136.441 172.593 136.441C168.449 136.441 165.09 139.801 165.09 143.945C165.09 148.089 168.449 151.448 172.593 151.448Z" fill="#3F3D56"/>
<path d="M171.622 141.866C174.315 144.34 177.775 144.955 179.349 143.241C180.924 141.526 180.016 138.132 177.321 135.657C176.259 134.654 174.971 133.92 173.566 133.516L162.021 123.178L157.285 128.699L169.169 138.304C169.691 139.67 170.532 140.891 171.622 141.866Z" fill="#FFB6B6"/>
<path d="M138.255 87.0114C138.255 87.0114 129.128 80.2007 125.872 83.1409C122.616 86.0811 122.955 93.8625 122.955 93.8625L146.254 124.036L165.267 137.547L170.965 129.565L155.2 113.964L138.255 87.0114Z" fill="#34F5C5"/>
<path d="M236.945 155V196.829C234.856 197.042 232.747 197.243 230.627 197.433V155H236.945Z" fill="#3F3D56"/>
<path d="M6.31854 155V173.995C4.11099 173.02 2.00217 172.017 0 170.994V155H6.31854Z" fill="#3F3D56"/>
<path d="M234.574 160.924H4.34216V168.427H234.574V160.924Z" fill="#34F5C5"/>
<path d="M285.591 50.0234C285.591 50.0234 281.378 52.4938 282.76 54.9368C284.141 57.3798 286.067 60.7075 284.761 61.7555C283.454 62.8036 281.297 67.4243 281.297 67.4243C281.297 67.4243 272.09 66.1383 272.954 73.2905C273.818 80.4427 278.144 81.4178 274.436 84.5642C270.729 87.7107 278.29 91.4738 278.29 91.4738C278.29 91.4738 283.509 89.8472 284.7 84.8454C285.891 79.8436 283.638 88.6699 284.394 89.3028C285.149 89.9357 288.082 94.1072 290.158 88.5609C292.233 83.0147 290.178 80.8643 292.92 77.591C295.663 74.3176 297.527 69.0232 297.446 68.0977C297.364 67.1722 300.583 58.7269 295.628 55.4333C290.674 52.1397 285.591 50.0234 285.591 50.0234Z" fill="#2F2E41"/>
<path d="M249.836 128.019C247.724 130.399 244.784 131.238 243.27 129.894C241.756 128.549 242.241 125.532 244.354 123.152C245.185 122.189 246.234 121.44 247.414 120.966L256.489 110.998L261.076 115.356L251.643 124.721C251.313 125.949 250.693 127.08 249.836 128.019Z" fill="#FFB6B6"/>
<path d="M276.372 81.1181C276.372 81.1181 281.876 76.0622 284.198 77.7642C286.52 79.4663 286.818 84.569 286.818 84.569L273.622 105.824L254.591 121.865L250.338 117.035L267.11 99.8457L276.372 81.1181Z" fill="#3F3D56"/>
<path d="M287.526 69.6633L284.544 80.2606H300.908L295.519 67.2031L287.526 69.6633Z" fill="#FFB6B6"/>
<path opacity="0.1" d="M287.526 69.6633L284.544 80.2606H300.908L295.519 67.2031L287.526 69.6633Z" fill="black"/>
<path d="M295.823 104.635L305.418 127.302L272.946 125.698L275.153 104.635H295.823Z" fill="#FFB6B6"/>
<path d="M286.437 74.8337L299.977 74.2695L309.003 90.0661L301.105 115.453L273.461 118.274L276.454 93.7905L277.974 79.9112L286.437 74.8337Z" fill="#3F3D56"/>
<path d="M309.004 148.567C308.352 151.723 307.646 156.047 306.954 160.734C306.595 163.175 306.24 165.714 305.9 168.238C305.023 174.71 304.241 181.08 303.724 185.416C299.428 186.53 294.961 187.592 290.337 188.595L287.948 168.238L287.067 160.734L286.155 152.97L285.744 160.734L285.345 168.238L284.2 189.875C281.724 190.372 279.208 190.85 276.653 191.312C276.523 191.34 276.389 191.363 276.258 191.383C276.128 191.411 275.998 191.435 275.863 191.454C273.861 191.818 271.831 192.165 269.778 192.505L269.438 168.238L269.332 160.734L268.948 133.509L272.285 122.483L273.292 122.393L275.863 122.16L276.258 122.124L276.653 122.085L302.227 119.763L303.08 119.684C303.08 119.684 303.689 120.872 304.526 122.851C304.597 123.017 304.672 123.19 304.747 123.368C305.47 125.106 306.331 127.361 307.116 129.908C308.155 133.257 309.067 137.111 309.371 140.945C309.577 143.548 309.506 146.139 309.004 148.567Z" fill="#2F2E41"/>
<path d="M310.003 138.275C309.765 141.447 307.935 143.896 305.916 143.744C303.897 143.593 302.454 140.898 302.692 137.725C302.77 136.456 303.151 135.224 303.802 134.132L304.98 120.703L311.27 121.39L309.441 134.556C309.923 135.733 310.115 137.008 310.003 138.275Z" fill="#FFB6B6"/>
<path d="M302.688 84.8855C302.688 84.8855 304.003 77.5284 306.881 77.4752C309.76 77.4219 313.089 81.3002 313.089 81.3002L315.473 106.204L310.055 130.497L303.745 129.232L306.67 105.395L302.688 84.8855Z" fill="#3F3D56"/>
<path d="M291.413 71.965C296.856 71.965 301.268 67.5529 301.268 62.1104C301.268 56.6679 296.856 52.2559 291.413 52.2559C285.971 52.2559 281.559 56.6679 281.559 62.1104C281.559 67.5529 285.971 71.965 291.413 71.965Z" fill="#FFB6B6"/>
<path d="M287.636 51.1069C287.636 51.1069 285.993 55.7057 288.621 56.6911C291.249 57.6766 294.862 58.9905 294.534 60.633C294.205 62.2754 295.519 67.2027 295.519 67.2027C295.519 67.2027 287.636 72.1299 292.892 77.0572C298.147 81.9845 302.089 79.9541 301.268 84.7469C300.447 89.5397 308.659 87.5688 308.659 87.5688C308.659 87.5688 311.615 82.97 309.316 78.3712C307.016 73.7724 310.958 81.9845 311.944 81.9845C312.929 81.9845 317.856 83.2984 315.886 77.7142C313.915 72.1299 310.958 71.8015 310.958 67.5312C310.958 63.2609 308.987 58.0051 308.33 57.3481C307.673 56.6911 304.717 48.1505 298.804 48.8075C292.892 49.4645 287.636 51.1069 287.636 51.1069Z" fill="#2F2E41"/>
<path d="M243.511 114.337L235.557 116.686L241.038 135.244L248.992 132.895L243.511 114.337Z" fill="#34F5C5"/>
<path d="M113.191 98.5398L105.238 100.889L110.718 119.447L118.672 117.098L113.191 98.5398Z" fill="#34F5C5"/>
<path d="M262.354 154.811V193.673C260.268 193.982 258.164 194.282 256.035 194.57V154.811H262.354Z" fill="#3F3D56"/>
<path d="M341.065 160.734H260.379V168.238H341.065V160.734Z" fill="#34F5C5"/>
<path d="M137.766 30.2369C143.018 30.2369 147.275 25.9796 147.275 20.7278C147.275 15.4761 143.018 11.2188 137.766 11.2188C132.515 11.2188 128.257 15.4761 128.257 20.7278C128.257 25.9796 132.515 30.2369 137.766 30.2369Z" fill="#E6E6E6"/>
<path d="M297.036 45.235C302.287 45.235 306.545 40.9776 306.545 35.7259C306.545 30.4742 302.287 26.2168 297.036 26.2168C291.784 26.2168 287.527 30.4742 287.527 35.7259C287.527 40.9776 291.784 45.235 297.036 45.235Z" fill="#E6E6E6"/>
<path d="M140.367 23.1497C139.858 23.1232 139.348 23.1115 138.839 23.1075C139.177 21.2054 139.515 19.3033 139.853 17.4012C139.931 16.9643 139.802 16.5215 139.4 16.2863C139.016 16.0619 138.52 16.1373 138.203 16.4406C137.264 17.3384 136.326 18.2361 135.387 19.1339C135.002 19.5025 135.016 20.159 135.387 20.5301C135.772 20.9152 136.397 20.8998 136.783 20.5301C136.991 20.3317 137.198 20.1333 137.406 19.9349L136.834 23.1511C136.277 23.1788 135.721 23.215 135.165 23.2696C134.635 23.3218 134.178 23.686 134.178 24.2569C134.178 24.8019 134.63 25.2323 135.165 25.2442C135.986 25.2624 136.806 25.2807 137.626 25.2989C137.831 25.3035 138.055 25.2211 138.237 25.0847C138.947 25.0779 139.657 25.0874 140.367 25.1242C140.9 25.1518 141.355 24.6506 141.355 24.1369C141.355 23.5793 140.902 23.1774 140.367 23.1497Z" fill="white"/>
<path d="M214.462 19.0182C219.713 19.0182 223.971 14.7608 223.971 9.50909C223.971 4.25737 219.713 0 214.462 0C209.21 0 204.953 4.25737 204.953 9.50909C204.953 14.7608 209.21 19.0182 214.462 19.0182Z" fill="#34F5C5"/>
<path d="M217.063 11.9309C216.553 11.9045 216.044 11.8928 215.534 11.8888C215.872 9.98668 216.211 8.08454 216.549 6.18243C216.626 5.74551 216.497 5.30273 216.095 5.06751C215.711 4.84313 215.216 4.9185 214.899 5.22189C213.96 6.11964 213.021 7.01739 212.082 7.91515C211.697 8.28373 211.711 8.94023 212.082 9.31135C212.467 9.6964 213.092 9.681 213.479 9.31135C213.686 9.11294 213.894 8.91452 214.101 8.7161L213.529 11.9323C212.973 11.9601 212.416 11.9963 211.861 12.0509C211.33 12.103 210.873 12.4673 210.873 13.0381C210.873 13.5831 211.326 14.0135 211.861 14.0254C212.681 14.0437 213.501 14.0619 214.322 14.0802C214.526 14.0847 214.751 14.0023 214.932 13.8659C215.642 13.8592 216.353 13.8686 217.063 13.9054C217.596 13.9331 218.05 13.4319 218.05 12.9182C218.05 12.3605 217.597 11.9586 217.063 11.9309Z" fill="white"/>
<path d="M74.6755 45.2174C79.9273 45.2174 84.1846 40.96 84.1846 35.7083C84.1846 30.4566 79.9273 26.1992 74.6755 26.1992C69.4238 26.1992 65.1664 30.4566 65.1664 35.7083C65.1664 40.96 69.4238 45.2174 74.6755 45.2174Z" fill="#E6E6E6"/>
<path d="M77.5679 38.4039C76.7505 37.9813 75.858 37.7562 74.9615 37.7246C75.6605 36.5991 76.1423 35.3354 76.3319 34.0322C76.4424 33.2543 76.4543 32.4763 75.9053 31.8484C75.4867 31.3666 74.8826 31.181 74.2704 31.1218C73.7729 31.0744 73.1805 31.106 72.7106 31.2639C71.8852 31.5324 71.6127 32.2433 71.6324 33.0529C71.6522 33.8229 71.7707 34.6048 72.288 35.209C72.6434 35.6237 73.1607 35.8962 73.7018 35.9396C73.2042 36.9664 72.4894 37.8747 71.585 38.6369C71.2099 38.9488 71.2217 39.5767 71.5061 39.9322C71.8141 40.3192 72.3393 40.4298 72.7816 40.1849C73.9427 39.5373 75.3959 39.5017 76.5728 40.1099C77.0466 40.3547 77.643 40.2323 77.9233 39.7545C78.184 39.3122 78.0458 38.6487 77.5679 38.4039ZM74.4324 33.349C74.4324 33.4122 74.4284 33.4715 74.4205 33.5346C74.4166 33.5702 74.4126 33.6018 74.4126 33.6215C74.4087 33.6413 74.4087 33.6571 74.4047 33.661V33.665C74.3889 33.7637 74.3652 33.8585 74.3494 33.9532C74.1915 33.9098 74.0256 33.9059 73.8637 33.9612C73.8479 33.9651 73.84 33.9651 73.8281 33.9691H73.8163C73.7847 33.9454 73.761 33.9256 73.8242 33.9651C73.7886 33.9256 73.7689 33.9019 73.7571 33.894L73.7294 33.8427C73.7334 33.8585 73.7334 33.8703 73.7334 33.8743C73.7255 33.8624 73.7136 33.8269 73.6939 33.7637C73.6741 33.6926 73.6544 33.6176 73.6386 33.5426C73.6149 33.4241 73.6109 33.2701 73.607 33.0963C73.6228 33.0963 73.6386 33.0923 73.6425 33.0923C73.7571 33.0844 73.8676 33.0805 73.9822 33.0805C74.0572 33.0805 74.1322 33.0884 74.2073 33.0923C74.227 33.1003 74.3534 33.1279 74.4008 33.1397C74.4087 33.1476 74.4205 33.1556 74.4284 33.1595C74.4363 33.1713 74.4403 33.1792 74.4521 33.1911L74.4324 33.349Z" fill="white"/>
<path d="M298.361 35.5994C299.025 35.09 299.55 34.3397 299.495 33.4708C299.392 31.8675 297.82 31.1369 296.43 30.8684C295.905 30.7657 295.364 31.0145 295.214 31.5555C295.084 32.0413 295.38 32.6692 295.905 32.7719C296.13 32.8153 296.355 32.8666 296.58 32.9338C296.695 32.9654 296.809 33.0049 296.92 33.0522C296.951 33.068 297.066 33.1194 297.086 33.1312C297.177 33.1786 297.271 33.2339 297.358 33.2971C297.366 33.3089 297.413 33.3524 297.445 33.384C297.374 33.3287 297.508 33.538 297.508 33.4866C297.516 33.5064 297.52 33.5222 297.524 33.538V33.5735C297.524 33.5775 297.5 33.6564 297.508 33.6564C297.445 33.7591 297.421 33.8065 297.382 33.846C297.212 34.0356 297.094 34.1066 296.845 34.2251C296.268 34.5055 295.632 34.6556 295.056 34.9478C294.053 35.4612 294.752 37.0606 295.818 36.7525C295.869 36.7407 295.917 36.7249 295.968 36.713C295.996 36.7091 296.043 36.7012 296.075 36.7012C296.142 36.7012 296.205 36.7012 296.268 36.7051H296.292C296.422 36.7328 296.553 36.7644 296.675 36.8157C296.691 36.8236 296.714 36.8355 296.734 36.8513C296.79 36.8829 296.849 36.9184 296.904 36.95L296.967 36.9934L296.971 36.9974C297.023 37.0369 297.066 37.0842 297.113 37.1277C297.121 37.1356 297.165 37.1869 297.188 37.2106C297.208 37.2383 297.248 37.2896 297.252 37.2975C297.287 37.3567 297.323 37.4199 297.354 37.4831C297.358 37.495 297.362 37.5147 297.366 37.5344C297.374 37.574 297.386 37.6174 297.398 37.6608C297.394 37.6766 297.402 37.7438 297.402 37.7872C297.402 37.799 297.402 37.8069 297.406 37.8148C297.394 37.8662 297.378 37.9175 297.366 37.9689C297.362 37.9807 297.362 37.9847 297.362 37.9886C297.327 38.0557 297.287 38.1189 297.252 38.1821C297.248 38.19 297.24 38.1939 297.236 38.2018V38.2058C297.192 38.2492 297.157 38.2887 297.113 38.3322C297.086 38.3598 297.05 38.3875 297.019 38.4151C296.995 38.4269 296.932 38.4743 296.916 38.4822C296.861 38.5099 296.809 38.5415 296.754 38.5691H296.75C296.746 38.5731 296.742 38.5731 296.738 38.5731C296.663 38.5968 296.592 38.6165 296.521 38.6363H296.509C296.442 38.6363 296.284 38.6165 296.284 38.6244C296.26 38.6204 296.229 38.6125 296.209 38.6086C296.166 38.5849 296.083 38.5415 296.083 38.5415C294.989 37.8859 293.994 39.5959 295.083 40.2475C296.853 41.3058 299.262 39.8842 299.372 37.878C299.424 36.9658 299.005 36.1641 298.361 35.5994Z" fill="white"/>
</g>
<defs>
<clipPath id="clip0_785_68">
<rect width="341.065" height="200" fill="white"/>
</clipPath>
</defs>
</svg>
