<svg width="285" height="200" viewBox="0 0 285 200" fill="none" xmlns="http://www.w3.org/2000/svg">
<ellipse cx="141.88" cy="82.0513" rx="141.88" ry="82.0513" fill="#3F3D56"/>
<g clip-path="url(#clip0_834_739)">
<path d="M90.3021 33.5027C91.5288 33.5027 92.5232 32.5083 92.5232 31.2816C92.5232 30.055 91.5288 29.0605 90.3021 29.0605C89.0755 29.0605 88.0811 30.055 88.0811 31.2816C88.0811 32.5083 89.0755 33.5027 90.3021 33.5027Z" fill="#E6E6E6"/>
<path d="M101.545 33.5027C102.772 33.5027 103.766 32.5083 103.766 31.2816C103.766 30.055 102.772 29.0605 101.545 29.0605C100.319 29.0605 99.3241 30.055 99.3241 31.2816C99.3241 32.5083 100.319 33.5027 101.545 33.5027Z" fill="#E6E6E6"/>
<path d="M112.788 33.5027C114.015 33.5027 115.009 32.5083 115.009 31.2816C115.009 30.055 114.015 29.0605 112.788 29.0605C111.562 29.0605 110.567 30.055 110.567 31.2816C110.567 32.5083 111.562 33.5027 112.788 33.5027Z" fill="#E6E6E6"/>
<path d="M124.031 33.5027C125.258 33.5027 126.252 32.5083 126.252 31.2816C126.252 30.055 125.258 29.0605 124.031 29.0605C122.805 29.0605 121.81 30.055 121.81 31.2816C121.81 32.5083 122.805 33.5027 124.031 33.5027Z" fill="#E6E6E6"/>
<path d="M135.274 33.5027C136.501 33.5027 137.495 32.5083 137.495 31.2816C137.495 30.055 136.501 29.0605 135.274 29.0605C134.048 29.0605 133.053 30.055 133.053 31.2816C133.053 32.5083 134.048 33.5027 135.274 33.5027Z" fill="#E6E6E6"/>
<path d="M90.3021 44.8875C91.5288 44.8875 92.5232 43.8931 92.5232 42.6664C92.5232 41.4397 91.5288 40.4453 90.3021 40.4453C89.0755 40.4453 88.0811 41.4397 88.0811 42.6664C88.0811 43.8931 89.0755 44.8875 90.3021 44.8875Z" fill="#E6E6E6"/>
<path d="M101.545 44.8875C102.772 44.8875 103.766 43.8931 103.766 42.6664C103.766 41.4397 102.772 40.4453 101.545 40.4453C100.319 40.4453 99.3241 41.4397 99.3241 42.6664C99.3241 43.8931 100.319 44.8875 101.545 44.8875Z" fill="#E6E6E6"/>
<path d="M112.788 44.8875C114.015 44.8875 115.009 43.8931 115.009 42.6664C115.009 41.4397 114.015 40.4453 112.788 40.4453C111.562 40.4453 110.567 41.4397 110.567 42.6664C110.567 43.8931 111.562 44.8875 112.788 44.8875Z" fill="#E6E6E6"/>
<path d="M124.031 44.8875C125.258 44.8875 126.252 43.8931 126.252 42.6664C126.252 41.4397 125.258 40.4453 124.031 40.4453C122.805 40.4453 121.81 41.4397 121.81 42.6664C121.81 43.8931 122.805 44.8875 124.031 44.8875Z" fill="#34F5C5"/>
<path d="M135.274 44.8875C136.501 44.8875 137.495 43.8931 137.495 42.6664C137.495 41.4397 136.501 40.4453 135.274 40.4453C134.048 40.4453 133.053 41.4397 133.053 42.6664C133.053 43.8931 134.048 44.8875 135.274 44.8875Z" fill="#E6E6E6"/>
<path d="M157.76 44.8875C158.987 44.8875 159.981 43.8931 159.981 42.6664C159.981 41.4397 158.987 40.4453 157.76 40.4453C156.534 40.4453 155.539 41.4397 155.539 42.6664C155.539 43.8931 156.534 44.8875 157.76 44.8875Z" fill="#E6E6E6"/>
<path d="M90.3021 56.2703C91.5288 56.2703 92.5232 55.2759 92.5232 54.0492C92.5232 52.8225 91.5288 51.8281 90.3021 51.8281C89.0755 51.8281 88.0811 52.8225 88.0811 54.0492C88.0811 55.2759 89.0755 56.2703 90.3021 56.2703Z" fill="#E6E6E6"/>
<path d="M101.545 56.2703C102.772 56.2703 103.766 55.2759 103.766 54.0492C103.766 52.8225 102.772 51.8281 101.545 51.8281C100.319 51.8281 99.3241 52.8225 99.3241 54.0492C99.3241 55.2759 100.319 56.2703 101.545 56.2703Z" fill="#E6E6E6"/>
<path d="M112.788 56.2703C114.015 56.2703 115.009 55.2759 115.009 54.0492C115.009 52.8225 114.015 51.8281 112.788 51.8281C111.562 51.8281 110.567 52.8225 110.567 54.0492C110.567 55.2759 111.562 56.2703 112.788 56.2703Z" fill="#E6E6E6"/>
<path d="M124.031 56.2703C125.258 56.2703 126.252 55.2759 126.252 54.0492C126.252 52.8225 125.258 51.8281 124.031 51.8281C122.805 51.8281 121.81 52.8225 121.81 54.0492C121.81 55.2759 122.805 56.2703 124.031 56.2703Z" fill="#E6E6E6"/>
<path d="M135.274 56.2703C136.501 56.2703 137.495 55.2759 137.495 54.0492C137.495 52.8225 136.501 51.8281 135.274 51.8281C134.048 51.8281 133.053 52.8225 133.053 54.0492C133.053 55.2759 134.048 56.2703 135.274 56.2703Z" fill="#E6E6E6"/>
<path d="M90.3021 67.655C91.5288 67.655 92.5232 66.6606 92.5232 65.434C92.5232 64.2073 91.5288 63.2129 90.3021 63.2129C89.0755 63.2129 88.0811 64.2073 88.0811 65.434C88.0811 66.6606 89.0755 67.655 90.3021 67.655Z" fill="#E6E6E6"/>
<path d="M101.545 67.655C102.772 67.655 103.766 66.6606 103.766 65.434C103.766 64.2073 102.772 63.2129 101.545 63.2129C100.319 63.2129 99.3241 64.2073 99.3241 65.434C99.3241 66.6606 100.319 67.655 101.545 67.655Z" fill="#E6E6E6"/>
<path d="M112.788 67.655C114.015 67.655 115.009 66.6606 115.009 65.434C115.009 64.2073 114.015 63.2129 112.788 63.2129C111.562 63.2129 110.567 64.2073 110.567 65.434C110.567 66.6606 111.562 67.655 112.788 67.655Z" fill="#E6E6E6"/>
<path d="M124.031 67.655C125.258 67.655 126.252 66.6606 126.252 65.434C126.252 64.2073 125.258 63.2129 124.031 63.2129C122.805 63.2129 121.81 64.2073 121.81 65.434C121.81 66.6606 122.805 67.655 124.031 67.655Z" fill="#E6E6E6"/>
<path d="M135.274 67.655C136.501 67.655 137.495 66.6606 137.495 65.434C137.495 64.2073 136.501 63.2129 135.274 63.2129C134.048 63.2129 133.053 64.2073 133.053 65.434C133.053 66.6606 134.048 67.655 135.274 67.655Z" fill="#E6E6E6"/>
<path d="M146.517 67.655C147.744 67.655 148.738 66.6606 148.738 65.434C148.738 64.2073 147.744 63.2129 146.517 63.2129C145.291 63.2129 144.296 64.2073 144.296 65.434C144.296 66.6606 145.291 67.655 146.517 67.655Z" fill="#E6E6E6"/>
<path d="M157.76 67.655C158.987 67.655 159.981 66.6606 159.981 65.434C159.981 64.2073 158.987 63.2129 157.76 63.2129C156.534 63.2129 155.539 64.2073 155.539 65.434C155.539 66.6606 156.534 67.655 157.76 67.655Z" fill="#E6E6E6"/>
<path d="M169.003 67.655C170.23 67.655 171.224 66.6606 171.224 65.434C171.224 64.2073 170.23 63.2129 169.003 63.2129C167.777 63.2129 166.782 64.2073 166.782 65.434C166.782 66.6606 167.777 67.655 169.003 67.655Z" fill="#E6E6E6"/>
<path d="M180.246 67.655C181.473 67.655 182.467 66.6606 182.467 65.434C182.467 64.2073 181.473 63.2129 180.246 63.2129C179.02 63.2129 178.025 64.2073 178.025 65.434C178.025 66.6606 179.02 67.655 180.246 67.655Z" fill="#E6E6E6"/>
<path d="M191.489 67.655C192.716 67.655 193.711 66.6606 193.711 65.434C193.711 64.2073 192.716 63.2129 191.489 63.2129C190.263 63.2129 189.268 64.2073 189.268 65.434C189.268 66.6606 190.263 67.655 191.489 67.655Z" fill="#E6E6E6"/>
<path d="M135.274 79.0398C136.501 79.0398 137.495 78.0454 137.495 76.8187C137.495 75.5921 136.501 74.5977 135.274 74.5977C134.048 74.5977 133.053 75.5921 133.053 76.8187C133.053 78.0454 134.048 79.0398 135.274 79.0398Z" fill="#E6E6E6"/>
<path d="M146.517 79.0398C147.744 79.0398 148.738 78.0454 148.738 76.8187C148.738 75.5921 147.744 74.5977 146.517 74.5977C145.291 74.5977 144.296 75.5921 144.296 76.8187C144.296 78.0454 145.291 79.0398 146.517 79.0398Z" fill="#34F5C5"/>
<path d="M157.76 79.0398C158.987 79.0398 159.981 78.0454 159.981 76.8187C159.981 75.5921 158.987 74.5977 157.76 74.5977C156.534 74.5977 155.539 75.5921 155.539 76.8187C155.539 78.0454 156.534 79.0398 157.76 79.0398Z" fill="#E6E6E6"/>
<path d="M169.003 79.0398C170.23 79.0398 171.224 78.0454 171.224 76.8187C171.224 75.5921 170.23 74.5977 169.003 74.5977C167.777 74.5977 166.782 75.5921 166.782 76.8187C166.782 78.0454 167.777 79.0398 169.003 79.0398Z" fill="#E6E6E6"/>
<path d="M180.246 79.0398C181.473 79.0398 182.467 78.0454 182.467 76.8187C182.467 75.5921 181.473 74.5977 180.246 74.5977C179.02 74.5977 178.025 75.5921 178.025 76.8187C178.025 78.0454 179.02 79.0398 180.246 79.0398Z" fill="#E6E6E6"/>
<path d="M191.489 79.0398C192.716 79.0398 193.711 78.0454 193.711 76.8187C193.711 75.5921 192.716 74.5977 191.489 74.5977C190.263 74.5977 189.268 75.5921 189.268 76.8187C189.268 78.0454 190.263 79.0398 191.489 79.0398Z" fill="#E6E6E6"/>
<path d="M135.274 90.4226C136.501 90.4226 137.495 89.4282 137.495 88.2015C137.495 86.9749 136.501 85.9805 135.274 85.9805C134.048 85.9805 133.053 86.9749 133.053 88.2015C133.053 89.4282 134.048 90.4226 135.274 90.4226Z" fill="#E6E6E6"/>
<path d="M146.517 90.4226C147.744 90.4226 148.738 89.4282 148.738 88.2015C148.738 86.9749 147.744 85.9805 146.517 85.9805C145.291 85.9805 144.296 86.9749 144.296 88.2015C144.296 89.4282 145.291 90.4226 146.517 90.4226Z" fill="#E6E6E6"/>
<path d="M157.76 90.4226C158.987 90.4226 159.981 89.4282 159.981 88.2015C159.981 86.9749 158.987 85.9805 157.76 85.9805C156.534 85.9805 155.539 86.9749 155.539 88.2015C155.539 89.4282 156.534 90.4226 157.76 90.4226Z" fill="#E6E6E6"/>
<path d="M169.003 90.4226C170.23 90.4226 171.224 89.4282 171.224 88.2015C171.224 86.9749 170.23 85.9805 169.003 85.9805C167.777 85.9805 166.782 86.9749 166.782 88.2015C166.782 89.4282 167.777 90.4226 169.003 90.4226Z" fill="#E6E6E6"/>
<path d="M180.246 90.4226C181.473 90.4226 182.467 89.4282 182.467 88.2015C182.467 86.9749 181.473 85.9805 180.246 85.9805C179.02 85.9805 178.025 86.9749 178.025 88.2015C178.025 89.4282 179.02 90.4226 180.246 90.4226Z" fill="#34F5C5"/>
<path d="M191.489 90.4226C192.716 90.4226 193.711 89.4282 193.711 88.2015C193.711 86.9749 192.716 85.9805 191.489 85.9805C190.263 85.9805 189.268 86.9749 189.268 88.2015C189.268 89.4282 190.263 90.4226 191.489 90.4226Z" fill="#E6E6E6"/>
<path d="M135.274 101.807C136.501 101.807 137.495 100.813 137.495 99.5863C137.495 98.3596 136.501 97.3652 135.274 97.3652C134.048 97.3652 133.053 98.3596 133.053 99.5863C133.053 100.813 134.048 101.807 135.274 101.807Z" fill="#E6E6E6"/>
<path d="M146.517 101.807C147.744 101.807 148.738 100.813 148.738 99.5863C148.738 98.3596 147.744 97.3652 146.517 97.3652C145.291 97.3652 144.296 98.3596 144.296 99.5863C144.296 100.813 145.291 101.807 146.517 101.807Z" fill="#E6E6E6"/>
<path d="M157.76 101.807C158.987 101.807 159.981 100.813 159.981 99.5863C159.981 98.3596 158.987 97.3652 157.76 97.3652C156.534 97.3652 155.539 98.3596 155.539 99.5863C155.539 100.813 156.534 101.807 157.76 101.807Z" fill="#E6E6E6"/>
<path d="M169.003 101.807C170.23 101.807 171.224 100.813 171.224 99.5863C171.224 98.3596 170.23 97.3652 169.003 97.3652C167.777 97.3652 166.782 98.3596 166.782 99.5863C166.782 100.813 167.777 101.807 169.003 101.807Z" fill="#E6E6E6"/>
<path d="M180.246 101.807C181.473 101.807 182.467 100.813 182.467 99.5863C182.467 98.3596 181.473 97.3652 180.246 97.3652C179.02 97.3652 178.025 98.3596 178.025 99.5863C178.025 100.813 179.02 101.807 180.246 101.807Z" fill="#E6E6E6"/>
<path d="M191.489 101.807C192.716 101.807 193.711 100.813 193.711 99.5863C193.711 98.3596 192.716 97.3652 191.489 97.3652C190.263 97.3652 189.268 98.3596 189.268 99.5863C189.268 100.813 190.263 101.807 191.489 101.807Z" fill="#E6E6E6"/>
<path d="M90.3021 113.192C91.5288 113.192 92.5232 112.198 92.5232 110.971C92.5232 109.744 91.5288 108.75 90.3021 108.75C89.0755 108.75 88.0811 109.744 88.0811 110.971C88.0811 112.198 89.0755 113.192 90.3021 113.192Z" fill="#E6E6E6"/>
<path d="M101.545 113.192C102.772 113.192 103.766 112.198 103.766 110.971C103.766 109.744 102.772 108.75 101.545 108.75C100.319 108.75 99.3241 109.744 99.3241 110.971C99.3241 112.198 100.319 113.192 101.545 113.192Z" fill="#E6E6E6"/>
<path d="M112.788 113.192C114.015 113.192 115.009 112.198 115.009 110.971C115.009 109.744 114.015 108.75 112.788 108.75C111.562 108.75 110.567 109.744 110.567 110.971C110.567 112.198 111.562 113.192 112.788 113.192Z" fill="#E6E6E6"/>
<path d="M124.031 113.192C125.258 113.192 126.252 112.198 126.252 110.971C126.252 109.744 125.258 108.75 124.031 108.75C122.805 108.75 121.81 109.744 121.81 110.971C121.81 112.198 122.805 113.192 124.031 113.192Z" fill="#E6E6E6"/>
<path d="M135.274 113.192C136.501 113.192 137.495 112.198 137.495 110.971C137.495 109.744 136.501 108.75 135.274 108.75C134.048 108.75 133.053 109.744 133.053 110.971C133.053 112.198 134.048 113.192 135.274 113.192Z" fill="#E6E6E6"/>
<path d="M146.517 113.192C147.744 113.192 148.738 112.198 148.738 110.971C148.738 109.744 147.744 108.75 146.517 108.75C145.291 108.75 144.296 109.744 144.296 110.971C144.296 112.198 145.291 113.192 146.517 113.192Z" fill="#E6E6E6"/>
<path d="M157.76 113.192C158.987 113.192 159.981 112.198 159.981 110.971C159.981 109.744 158.987 108.75 157.76 108.75C156.534 108.75 155.539 109.744 155.539 110.971C155.539 112.198 156.534 113.192 157.76 113.192Z" fill="#E6E6E6"/>
<path d="M169.003 113.192C170.23 113.192 171.224 112.198 171.224 110.971C171.224 109.744 170.23 108.75 169.003 108.75C167.777 108.75 166.782 109.744 166.782 110.971C166.782 112.198 167.777 113.192 169.003 113.192Z" fill="#E6E6E6"/>
<path d="M180.246 113.192C181.473 113.192 182.467 112.198 182.467 110.971C182.467 109.744 181.473 108.75 180.246 108.75C179.02 108.75 178.025 109.744 178.025 110.971C178.025 112.198 179.02 113.192 180.246 113.192Z" fill="#E6E6E6"/>
<path d="M191.489 113.192C192.716 113.192 193.711 112.198 193.711 110.971C193.711 109.744 192.716 108.75 191.489 108.75C190.263 108.75 189.268 109.744 189.268 110.971C189.268 112.198 190.263 113.192 191.489 113.192Z" fill="#E6E6E6"/>
<path d="M90.3008 124.575C91.5275 124.575 92.5219 123.581 92.5219 122.354C92.5219 121.127 91.5275 120.133 90.3008 120.133C89.0742 120.133 88.0798 121.127 88.0798 122.354C88.0798 123.581 89.0742 124.575 90.3008 124.575Z" fill="#E6E6E6"/>
<path d="M101.545 124.575C102.772 124.575 103.766 123.581 103.766 122.354C103.766 121.127 102.772 120.133 101.545 120.133C100.319 120.133 99.3241 121.127 99.3241 122.354C99.3241 123.581 100.319 124.575 101.545 124.575Z" fill="#E6E6E6"/>
<path d="M90.3008 135.96C91.5275 135.96 92.5219 134.965 92.5219 133.739C92.5219 132.512 91.5275 131.518 90.3008 131.518C89.0742 131.518 88.0798 132.512 88.0798 133.739C88.0798 134.965 89.0742 135.96 90.3008 135.96Z" fill="#E6E6E6"/>
<path d="M101.545 135.96C102.772 135.96 103.766 134.965 103.766 133.739C103.766 132.512 102.772 131.518 101.545 131.518C100.319 131.518 99.3241 132.512 99.3241 133.739C99.3241 134.965 100.319 135.96 101.545 135.96Z" fill="#E6E6E6"/>
<path d="M124.031 135.96C125.258 135.96 126.252 134.965 126.252 133.739C126.252 132.512 125.258 131.518 124.031 131.518C122.805 131.518 121.81 132.512 121.81 133.739C121.81 134.965 122.805 135.96 124.031 135.96Z" fill="#E6E6E6"/>
<path d="M236.098 55.265H148.081C147.649 55.2645 147.235 55.0926 146.929 54.7871C146.624 54.4815 146.452 54.0672 146.451 53.6351V31.8018C146.452 31.3697 146.624 30.9554 146.929 30.6498C147.235 30.3443 147.649 30.1724 148.081 30.1719H236.098C236.531 30.1724 236.945 30.3443 237.25 30.6498C237.556 30.9554 237.728 31.3697 237.728 31.8018V53.6351C237.728 54.0672 237.556 54.4815 237.25 54.7871C236.945 55.0926 236.531 55.2645 236.098 55.265ZM148.081 30.8239C147.822 30.8241 147.573 30.9273 147.39 31.1106C147.207 31.2939 147.104 31.5425 147.103 31.8018V53.6351C147.104 53.8944 147.207 54.143 147.39 54.3263C147.573 54.5096 147.822 54.6128 148.081 54.6131H236.098C236.358 54.6128 236.606 54.5096 236.79 54.3263C236.973 54.143 237.076 53.8944 237.076 53.6351V31.8018C237.076 31.5425 236.973 31.2939 236.79 31.1106C236.606 30.9273 236.358 30.8241 236.098 30.8239H148.081Z" fill="#E6E6E6"/>
<path d="M159.491 49.5646C163.272 49.5646 166.337 46.4996 166.337 42.7188C166.337 38.938 163.272 35.873 159.491 35.873C155.71 35.873 152.645 38.938 152.645 42.7188C152.645 46.4996 155.71 49.5646 159.491 49.5646Z" fill="#34F5C5"/>
<path d="M175.301 38.1543C174.999 38.1543 174.709 38.2745 174.495 38.4885C174.281 38.7024 174.16 38.9927 174.16 39.2953C174.16 39.5979 174.281 39.8881 174.495 40.102C174.709 40.316 174.999 40.4362 175.301 40.4362H205.618C205.921 40.4362 206.211 40.316 206.425 40.102C206.639 39.8881 206.759 39.5979 206.759 39.2953C206.759 38.9927 206.639 38.7024 206.425 38.4885C206.211 38.2745 205.921 38.1543 205.618 38.1543H175.301Z" fill="#E6E6E6"/>
<path d="M175.301 45C174.999 45 174.709 45.1202 174.495 45.3342C174.281 45.5481 174.16 45.8384 174.16 46.141C174.16 46.4436 174.281 46.7338 174.495 46.9477C174.709 47.1617 174.999 47.2819 175.301 47.2819H229.089C229.392 47.2819 229.682 47.1617 229.896 46.9477C230.11 46.7338 230.23 46.4436 230.23 46.141C230.23 45.8384 230.11 45.5481 229.896 45.3342C229.682 45.1202 229.392 45 229.089 45H175.301Z" fill="#E6E6E6"/>
<path d="M122.98 99.599H34.9633C34.5311 99.5985 34.1168 99.4266 33.8113 99.121C33.5057 98.8155 33.3338 98.4012 33.3333 97.9691V76.1358C33.3338 75.7037 33.5057 75.2894 33.8113 74.9838C34.1168 74.6783 34.5311 74.5064 34.9633 74.5059H122.98C123.412 74.5064 123.827 74.6783 124.132 74.9838C124.438 75.2894 124.61 75.7037 124.61 76.1358V97.9691C124.61 98.4012 124.438 98.8155 124.132 99.121C123.827 99.4266 123.412 99.5985 122.98 99.599ZM34.9633 75.1578C34.704 75.1581 34.4554 75.2612 34.272 75.4446C34.0887 75.6279 33.9856 75.8765 33.9853 76.1358V97.9691C33.9856 98.2284 34.0887 98.4769 34.272 98.6603C34.4554 98.8436 34.704 98.9468 34.9633 98.947H122.98C123.24 98.9468 123.488 98.8436 123.672 98.6603C123.855 98.4769 123.958 98.2284 123.958 97.9691V76.1358C123.958 75.8765 123.855 75.6279 123.672 75.4446C123.488 75.2612 123.24 75.1581 122.98 75.1578H34.9633Z" fill="#E6E6E6"/>
<path d="M46.3729 93.8986C50.1537 93.8986 53.2186 90.8336 53.2186 87.0528C53.2186 83.272 50.1537 80.207 46.3729 80.207C42.5921 80.207 39.5271 83.272 39.5271 87.0528C39.5271 90.8336 42.5921 93.8986 46.3729 93.8986Z" fill="#34F5C5"/>
<path d="M62.1833 82.4883C61.8807 82.4883 61.5905 82.6085 61.3765 82.8225C61.1626 83.0364 61.0424 83.3266 61.0424 83.6292C61.0424 83.9318 61.1626 84.2221 61.3765 84.436C61.5905 84.65 61.8807 84.7702 62.1833 84.7702H93.8042C94.1068 84.7702 94.397 84.65 94.611 84.436C94.825 84.2221 94.9452 83.9318 94.9452 83.6292C94.9452 83.3266 94.825 83.0364 94.611 82.8225C94.397 82.6085 94.1068 82.4883 93.8042 82.4883H62.1833Z" fill="#E6E6E6"/>
<path d="M62.1833 89.334C61.8807 89.334 61.5905 89.4542 61.3765 89.6682C61.1626 89.8821 61.0424 90.1723 61.0424 90.4749C61.0424 90.7775 61.1626 91.0678 61.3765 91.2817C61.5905 91.4957 61.8807 91.6159 62.1833 91.6159H115.971C116.274 91.6159 116.564 91.4957 116.778 91.2817C116.992 91.0678 117.112 90.7775 117.112 90.4749C117.112 90.1723 116.992 89.8821 116.778 89.6682C116.564 89.4542 116.274 89.334 115.971 89.334H62.1833Z" fill="#E6E6E6"/>
<path d="M202.522 147.519H114.504C114.072 147.518 113.658 147.347 113.352 147.041C113.047 146.735 112.875 146.321 112.875 145.889V124.056C112.875 123.624 113.047 123.209 113.352 122.904C113.658 122.598 114.072 122.426 114.504 122.426H202.522C202.954 122.426 203.368 122.598 203.674 122.904C203.979 123.209 204.151 123.624 204.151 124.056V145.889C204.151 146.321 203.979 146.735 203.674 147.041C203.368 147.347 202.954 147.518 202.522 147.519ZM114.504 123.078C114.245 123.078 113.997 123.181 113.813 123.365C113.63 123.548 113.527 123.796 113.526 124.056V145.889C113.527 146.148 113.63 146.397 113.813 146.58C113.997 146.764 114.245 146.867 114.504 146.867H202.522C202.781 146.867 203.029 146.764 203.213 146.58C203.396 146.397 203.499 146.148 203.499 145.889V124.056C203.499 123.796 203.396 123.548 203.213 123.365C203.029 123.181 202.781 123.078 202.522 123.078H114.504Z" fill="#3F3D56"/>
<path d="M125.914 141.818C129.695 141.818 132.76 138.754 132.76 134.973C132.76 131.192 129.695 128.127 125.914 128.127C122.133 128.127 119.068 131.192 119.068 134.973C119.068 138.754 122.133 141.818 125.914 141.818Z" fill="#34F5C5"/>
<path d="M141.725 130.408C141.422 130.408 141.132 130.528 140.918 130.742C140.704 130.956 140.584 131.247 140.584 131.549C140.584 131.852 140.704 132.142 140.918 132.356C141.132 132.57 141.422 132.69 141.725 132.69H170.738C171.04 132.69 171.33 132.57 171.544 132.356C171.758 132.142 171.878 131.852 171.878 131.549C171.878 131.247 171.758 130.956 171.544 130.742C171.33 130.528 171.04 130.408 170.738 130.408H141.725Z" fill="#E6E6E6"/>
<path d="M141.725 137.254C141.422 137.254 141.132 137.374 140.918 137.588C140.704 137.802 140.584 138.092 140.584 138.395C140.584 138.697 140.704 138.988 140.918 139.202C141.132 139.416 141.422 139.536 141.725 139.536H195.513C195.815 139.536 196.105 139.416 196.319 139.202C196.533 138.988 196.654 138.697 196.654 138.395C196.654 138.092 196.533 137.802 196.319 137.588C196.105 137.374 195.815 137.254 195.513 137.254H141.725Z" fill="#E6E6E6"/>
<path d="M249.871 141.983C246.049 153.45 230.411 141.288 230.411 141.288L234.581 97.8506C240.836 92.9856 247.439 97.1556 247.439 97.1556L249.871 141.983Z" fill="#E6E6E6"/>
<path d="M249.05 180.469L254.378 180.525L253.047 195.884L249.051 195.884L249.05 180.469Z" fill="#FFB8B8"/>
<path d="M248.031 194.578H255.902C257.232 194.58 258.507 195.109 259.447 196.049C260.387 196.989 260.916 198.264 260.918 199.594V199.757H248.031V194.578Z" fill="#2F2E41"/>
<path d="M234.606 180.469L228.707 180.469L230.608 195.884L234.605 195.884L234.606 180.469Z" fill="#FFB8B8"/>
<path d="M222.737 199.757V199.594C222.737 198.264 223.266 196.988 224.207 196.047C225.147 195.106 226.423 194.578 227.754 194.578L235.624 194.578L235.624 199.758L222.737 199.757Z" fill="#2F2E41"/>
<path d="M248.69 193.223L241.71 152.532L235.242 192.698L228.69 193.062L226.943 139.246L227.074 139.216C228.158 138.974 253.654 133.374 257.834 141.385L257.855 141.426L254.367 193.406L248.69 193.223Z" fill="#2F2E41"/>
<path d="M241.292 92.7593C245.714 92.7593 249.299 89.1746 249.299 84.7527C249.299 80.3308 245.714 76.7461 241.292 76.7461C236.871 76.7461 233.286 80.3308 233.286 84.7527C233.286 89.1746 236.871 92.7593 241.292 92.7593Z" fill="#FFB8B8"/>
<path d="M248.019 145.413C247.08 145.153 246.404 144.076 245.89 142.021C245.802 141.667 237.489 106.257 244.519 99.8411L246.139 95.3398L248.357 96.8183C249.142 96.8256 257.166 97.0287 257.851 102.172C258.523 107.206 260.35 140.936 258.513 143.034C258.477 143.08 258.431 143.118 258.379 143.145C258.327 143.171 258.27 143.186 258.211 143.187C256.349 143.187 255.784 141.122 255.651 140.463C255.209 140.647 253.89 141.32 251.724 143.487C250.382 144.829 249.329 145.472 248.46 145.472C248.311 145.473 248.163 145.453 248.019 145.413Z" fill="#2F2E41"/>
<path d="M230.643 143.487C228.476 141.32 227.158 140.646 226.716 140.463C226.583 141.122 226.018 143.187 224.156 143.187C224.098 143.186 224.04 143.171 223.988 143.145C223.936 143.118 223.89 143.081 223.854 143.034C222.017 140.936 223.845 107.206 224.516 102.172C225.202 97.0287 233.226 96.8256 234.01 96.8183L236.228 95.3398L237.848 99.8411C244.878 106.256 236.565 141.667 236.477 142.021C235.963 144.076 235.287 145.153 234.348 145.413C234.205 145.453 234.056 145.473 233.907 145.472C233.038 145.472 231.985 144.829 230.643 143.487Z" fill="#2F2E41"/>
<path d="M247.903 89.3267C249.257 88.3524 250.283 86.9888 250.844 85.4173C251.404 83.8458 251.473 82.1409 251.041 80.5293C250.609 78.9177 249.697 77.4758 248.425 76.3954C247.154 75.315 245.583 74.6473 243.923 74.4812C243.186 74.4074 242.392 74.4184 241.781 73.9998C241.238 73.6279 240.946 72.9829 240.447 72.5538C240.13 72.3086 239.766 72.1315 239.377 72.0336C238.989 71.9357 238.584 71.919 238.189 71.9846C237.4 72.1207 236.635 72.3719 235.919 72.7304C234.144 73.5219 232.257 74.4961 231.449 76.2641C230.749 77.7955 231.058 79.6839 232.049 81.0454C233.09 82.3928 234.609 83.2896 236.292 83.5508C237.965 83.8007 239.673 83.6469 241.275 83.1021C242.331 82.7696 243.374 82.3165 244.482 82.2795C245.346 82.2507 246.199 82.4795 246.933 82.9369C247.666 83.3942 248.248 84.0596 248.602 84.8481C248.957 85.6367 249.069 86.513 248.924 87.3654C248.779 88.2178 248.384 89.0079 247.789 89.6352" fill="#2F2E41"/>
<path d="M204.263 136.957C204.725 136.946 205.181 136.845 205.603 136.658C206.026 136.471 206.409 136.203 206.728 135.868C207.047 135.534 207.297 135.14 207.464 134.709C207.631 134.277 207.712 133.818 207.701 133.355L212.37 125.477L208.763 122.17L203.844 129.932C202.937 130.019 202.098 130.455 201.506 131.148C200.913 131.84 200.612 132.736 200.666 133.646C200.72 134.556 201.126 135.41 201.796 136.027C202.467 136.645 203.351 136.978 204.263 136.957Z" fill="#FFB8B8"/>
<path d="M258.433 145.587C258.82 145.334 259.154 145.008 259.415 144.627C259.677 144.245 259.86 143.816 259.955 143.363C260.051 142.911 260.056 142.444 259.971 141.99C259.886 141.535 259.712 141.102 259.46 140.715L259.281 131.559L254.472 130.646L254.378 139.835C253.653 140.387 253.169 141.199 253.03 142.1C252.891 143.001 253.107 143.921 253.632 144.666C254.158 145.411 254.951 145.924 255.847 146.095C256.742 146.267 257.669 146.085 258.433 145.587Z" fill="#FFB8B8"/>
<path d="M205.683 124.29L205.629 124.204L205.683 124.117C212.686 112.871 227.387 98.8227 227.534 98.682L227.581 98.6378L229.397 98.6191L231.359 103.509C230.748 104.685 214.279 127.668 212.104 129.192C211.931 129.312 211.735 129.394 211.528 129.433C211.321 129.472 211.108 129.467 210.903 129.419C210.541 129.335 210.196 129.188 209.884 128.985C207.878 127.742 205.786 124.453 205.683 124.29Z" fill="#2F2E41"/>
<path d="M253.557 137.123C253.362 137.056 253.183 136.95 253.031 136.81C252.879 136.671 252.758 136.501 252.675 136.313C251.626 133.866 256.12 102.963 256.312 101.649L256.349 101.4L257.868 102.363L257.883 102.429C257.928 102.626 262.353 122.313 261.153 135.395L261.145 135.488L261.06 135.528C260.877 135.612 257.191 137.305 254.734 137.305C254.334 137.316 253.935 137.254 253.557 137.123Z" fill="#2F2E41"/>
<path d="M283.827 200.002H197.114C197.027 200.002 196.944 199.967 196.883 199.906C196.822 199.845 196.788 199.762 196.788 199.676C196.788 199.589 196.822 199.506 196.883 199.445C196.944 199.384 197.027 199.35 197.114 199.35H283.827C283.913 199.35 283.996 199.384 284.057 199.445C284.118 199.506 284.153 199.589 284.153 199.676C284.153 199.762 284.118 199.845 284.057 199.906C283.996 199.967 283.913 200.002 283.827 200.002Z" fill="#3F3D56"/>
</g>
<defs>
<clipPath id="clip0_834_739">
<rect width="250.819" height="170.94" fill="white" transform="translate(33.3333 29.0605)"/>
</clipPath>
</defs>
</svg>
