<svg width="1512" height="982" viewBox="0 0 1512 982" fill="none" xmlns="http://www.w3.org/2000/svg">
<rect width="1512" height="982" fill="#17222D"/>
<path d="M1247 818.5C1247 908.799 1155.89 982 1043.5 982C931.11 982 840 908.799 840 818.5C840 728.201 931.11 655 1043.5 655C1155.89 655 1247 728.201 1247 818.5Z" fill="url(#paint0_linear_686_9)" fill-opacity="0.62"/>
<path d="M287 164.5C287 223.871 238.871 272 179.5 272C120.129 272 72 223.871 72 164.5C72 105.129 120.129 57 179.5 57C238.871 57 287 105.129 287 164.5Z" fill="url(#paint1_linear_686_9)" fill-opacity="0.62"/>
<circle cx="1348" cy="177" r="76" fill="#545353" fill-opacity="0.62"/>
<circle cx="306.5" cy="674.5" r="19.5" fill="#545353" fill-opacity="0.62"/>
<defs>
<linearGradient id="paint0_linear_686_9" x1="1043.5" y1="655" x2="1043.5" y2="982" gradientUnits="userSpaceOnUse">
<stop stop-color="#1DCDFE"/>
<stop offset="0.792708" stop-color="#21D0B2" stop-opacity="0"/>
</linearGradient>
<linearGradient id="paint1_linear_686_9" x1="179.5" y1="57" x2="179.5" y2="272" gradientUnits="userSpaceOnUse">
<stop stop-color="#1DCDFE"/>
<stop offset="0.792708" stop-color="#21D0B2" stop-opacity="0"/>
</linearGradient>
</defs>
</svg>
