<svg width="50" height="56" viewBox="0 0 50 56" fill="none" xmlns="http://www.w3.org/2000/svg">
<path d="M7.06683 11.14C8.79555 11.14 10.197 9.73837 10.197 8.00943C10.197 6.28049 8.79555 4.87891 7.06683 4.87891C5.3381 4.87891 3.93669 6.28049 3.93669 8.00943C3.93669 9.73837 5.3381 11.14 7.06683 11.14Z" fill="#D9D9D9"/>
<path d="M24.7428 23.3372C26.4716 23.3372 27.873 21.9356 27.873 20.2067C27.873 18.4778 26.4716 17.0762 24.7428 17.0762C23.0141 17.0762 21.6127 18.4778 21.6127 20.2067C21.6127 21.9356 23.0141 23.3372 24.7428 23.3372Z" fill="#D9D9D9"/>
<path d="M41.1512 6.26105C42.8799 6.26105 44.2814 4.85946 44.2814 3.13052C44.2814 1.40158 42.8799 0 41.1512 0C39.4225 0 38.0211 1.40158 38.0211 3.13052C38.0211 4.85946 39.4225 6.26105 41.1512 6.26105Z" fill="#D9D9D9"/>
<g clip-path="url(#clip0_820_264)">
<path d="M1.66589 35.8808C4.30487 25.0246 3.92552 14.5833 6.11917 14.5999C8.60971 14.6165 10.8199 28.1453 11.859 34.5528C13.9042 47.0856 12.2878 53.6591 13.7227 53.7587C16.6256 53.9911 20.5789 27.0227 23.3334 27.2219C26.0548 27.4211 26.2909 54.0907 28.468 54.2401C31.3049 54.4393 37.1272 9.9686 40.4259 9.48721C43.2463 9.07222 48.4253 23.5804 48.0295 38.5533" stroke="#34F5C5" stroke-width="2.96083" stroke-miterlimit="10"/>
</g>
<defs>
<clipPath id="clip0_820_264">
<rect width="49.7778" height="48.2222" fill="white" transform="translate(0 7.77734)"/>
</clipPath>
</defs>
</svg>
