<svg width="200" height="56" viewBox="0 0 200 56" fill="none" xmlns="http://www.w3.org/2000/svg">
<path d="M7.06683 11.14C8.79555 11.14 10.197 9.73837 10.197 8.00943C10.197 6.28049 8.79555 4.87891 7.06683 4.87891C5.3381 4.87891 3.93669 6.28049 3.93669 8.00943C3.93669 9.73837 5.3381 11.14 7.06683 11.14Z" fill="#D9D9D9"/>
<path d="M24.7428 23.3372C26.4716 23.3372 27.873 21.9356 27.873 20.2067C27.873 18.4778 26.4716 17.0762 24.7428 17.0762C23.0141 17.0762 21.6127 18.4778 21.6127 20.2067C21.6127 21.9356 23.0141 23.3372 24.7428 23.3372Z" fill="#D9D9D9"/>
<path d="M41.1512 6.26105C42.8799 6.26105 44.2814 4.85946 44.2814 3.13052C44.2814 1.40158 42.8799 0 41.1512 0C39.4225 0 38.0211 1.40158 38.0211 3.13052C38.0211 4.85946 39.4225 6.26105 41.1512 6.26105Z" fill="#D9D9D9"/>
<g clip-path="url(#clip0_820_274)">
<path d="M1.66589 35.8808C4.30487 25.0246 3.92552 14.5833 6.11917 14.5999C8.60971 14.6165 10.8199 28.1453 11.859 34.5528C13.9042 47.0856 12.2878 53.6591 13.7227 53.7587C16.6256 53.9911 20.5789 27.0227 23.3334 27.2219C26.0548 27.4211 26.2909 54.0907 28.468 54.2401C31.3049 54.4393 37.1272 9.9686 40.4259 9.48721C43.2463 9.07222 48.4253 23.5804 48.0295 38.5533" stroke="#34F5C5" stroke-width="2.96083" stroke-miterlimit="10"/>
</g>
<path d="M76.816 30.8C76.816 32.2507 77.1147 33.5093 77.712 34.576C78.3307 35.6427 79.152 36.4747 80.176 37.072C81.2213 37.648 82.3733 37.936 83.632 37.936C84.912 37.936 86.032 37.6693 86.992 37.136C87.952 36.6027 88.6987 35.8453 89.232 34.864C89.7867 33.8613 90.064 32.7093 90.064 31.408C90.064 30.064 89.7867 28.8373 89.232 27.728C88.6987 26.6187 87.92 25.7333 86.896 25.072C85.8933 24.3893 84.6773 24.048 83.248 24.048C81.968 24.048 80.848 24.336 79.888 24.912C78.928 25.488 78.1707 26.288 77.616 27.312C77.0827 28.3147 76.816 29.4773 76.816 30.8ZM71.088 30.8C71.088 29.072 71.3973 27.4933 72.016 26.064C72.6347 24.6347 73.4987 23.3973 74.608 22.352C75.7173 21.3067 77.008 20.5067 78.48 19.952C79.952 19.376 81.5413 19.088 83.248 19.088C84.976 19.088 86.5653 19.376 88.016 19.952C89.4667 20.5067 90.7253 21.3067 91.792 22.352C92.88 23.3973 93.712 24.6347 94.288 26.064C94.8853 27.4933 95.184 29.072 95.184 30.8C95.184 32.528 94.896 34.1173 94.32 35.568C93.744 37.0187 92.9227 38.2773 91.856 39.344C90.7893 40.4107 89.52 41.2427 88.048 41.84C86.5973 42.416 84.9973 42.704 83.248 42.704C81.4773 42.704 79.856 42.416 78.384 41.84C76.912 41.2427 75.6213 40.4107 74.512 39.344C73.424 38.2773 72.5813 37.0187 71.984 35.568C71.3867 34.1173 71.088 32.528 71.088 30.8ZM81.424 32.4H87.024L97.808 42.384H92.016L81.424 32.4ZM105.753 30.576L104.409 42H98.713L102.329 18.48L111.865 32.144L121.433 18.48L125.049 42H119.353L118.009 30.576L111.865 39.92L105.753 30.576ZM131.757 37.392C131.757 37.776 131.853 38.1067 132.045 38.384C132.237 38.64 132.493 38.8427 132.813 38.992C133.133 39.12 133.485 39.184 133.869 39.184C134.424 39.184 134.936 39.0667 135.405 38.832C135.874 38.5973 136.258 38.2453 136.557 37.776C136.856 37.3067 137.005 36.7307 137.005 36.048L137.517 37.968C137.517 38.9067 137.261 39.7067 136.749 40.368C136.237 41.008 135.576 41.4987 134.765 41.84C133.954 42.16 133.08 42.32 132.141 42.32C131.202 42.32 130.328 42.1493 129.517 41.808C128.728 41.4453 128.088 40.912 127.597 40.208C127.128 39.504 126.893 38.6507 126.893 37.648C126.893 36.24 127.394 35.1307 128.397 34.32C129.4 33.488 130.818 33.072 132.653 33.072C133.549 33.072 134.349 33.1573 135.053 33.328C135.778 33.4987 136.397 33.712 136.909 33.968C137.421 34.224 137.805 34.4907 138.061 34.768V36.912C137.549 36.528 136.952 36.24 136.269 36.048C135.608 35.8347 134.904 35.728 134.157 35.728C133.581 35.728 133.122 35.792 132.781 35.92C132.44 36.048 132.184 36.24 132.013 36.496C131.842 36.7307 131.757 37.0293 131.757 37.392ZM129.613 31.792L127.981 28.56C128.813 28.1547 129.816 27.7707 130.989 27.408C132.162 27.0453 133.442 26.864 134.829 26.864C136.13 26.864 137.293 27.056 138.317 27.44C139.341 27.8027 140.152 28.336 140.749 29.04C141.346 29.744 141.645 30.608 141.645 31.632V42H137.005V32.72C137.005 32.3573 136.941 32.048 136.813 31.792C136.706 31.5147 136.536 31.28 136.301 31.088C136.066 30.896 135.768 30.7573 135.405 30.672C135.064 30.5867 134.669 30.544 134.221 30.544C133.56 30.544 132.909 30.6187 132.269 30.768C131.65 30.9173 131.106 31.0987 130.637 31.312C130.168 31.504 129.826 31.664 129.613 31.792ZM146.063 36.656C146.81 37.2747 147.482 37.7653 148.079 38.128C148.698 38.4693 149.242 38.7147 149.711 38.864C150.18 38.992 150.586 39.056 150.927 39.056C151.418 39.056 151.78 38.9493 152.015 38.736C152.25 38.5227 152.367 38.2453 152.367 37.904C152.367 37.584 152.271 37.3173 152.079 37.104C151.887 36.8693 151.556 36.6453 151.087 36.432C150.639 36.2187 150.02 35.9947 149.231 35.76C148.527 35.504 147.855 35.2053 147.215 34.864C146.596 34.5013 146.084 34.0213 145.679 33.424C145.274 32.8267 145.071 32.0587 145.071 31.12C145.071 30.224 145.306 29.4667 145.775 28.848C146.266 28.2293 146.916 27.76 147.727 27.44C148.559 27.12 149.508 26.96 150.575 26.96C151.428 26.96 152.218 27.056 152.943 27.248C153.69 27.44 154.383 27.696 155.023 28.016C155.684 28.336 156.303 28.7093 156.879 29.136L155.151 32.272C154.532 31.696 153.828 31.2267 153.039 30.864C152.25 30.48 151.524 30.288 150.863 30.288C150.415 30.288 150.074 30.3733 149.839 30.544C149.626 30.7147 149.519 30.9387 149.519 31.216C149.519 31.536 149.647 31.8027 149.903 32.016C150.18 32.2293 150.564 32.432 151.055 32.624C151.567 32.7947 152.186 33.0187 152.911 33.296C153.679 33.5733 154.383 33.8933 155.023 34.256C155.684 34.6187 156.207 35.0773 156.591 35.632C156.996 36.1867 157.199 36.9227 157.199 37.84C157.199 39.4187 156.708 40.6133 155.727 41.424C154.767 42.2133 153.412 42.608 151.663 42.608C150.596 42.608 149.604 42.48 148.687 42.224C147.791 41.9893 146.959 41.6693 146.191 41.264C145.423 40.8373 144.708 40.368 144.047 39.856L146.063 36.656ZM158.129 27.28H167.985V31.28H158.129V27.28ZM160.721 22.16H165.361V42H160.721V22.16ZM177.532 42.32C175.826 42.32 174.343 42.0107 173.084 41.392C171.847 40.752 170.887 39.856 170.204 38.704C169.522 37.552 169.18 36.1973 169.18 34.64C169.18 33.0613 169.511 31.696 170.172 30.544C170.834 29.392 171.783 28.5067 173.02 27.888C174.279 27.2693 175.762 26.96 177.468 26.96C179.175 26.96 180.615 27.2587 181.788 27.856C182.962 28.432 183.858 29.2747 184.476 30.384C185.095 31.4933 185.404 32.8373 185.404 34.416C185.404 34.6507 185.404 34.8853 185.404 35.12C185.404 35.3333 185.383 35.5147 185.34 35.664H171.9V32.976H180.988L179.836 34.448C179.943 34.2987 180.028 34.1173 180.092 33.904C180.178 33.6693 180.22 33.4773 180.22 33.328C180.22 32.688 180.103 32.1333 179.868 31.664C179.634 31.1947 179.303 30.832 178.876 30.576C178.45 30.32 177.948 30.192 177.372 30.192C176.647 30.192 176.039 30.352 175.548 30.672C175.058 30.992 174.684 31.4827 174.428 32.144C174.194 32.784 174.066 33.5947 174.044 34.576C174.044 35.472 174.172 36.24 174.428 36.88C174.684 37.52 175.068 38.0107 175.58 38.352C176.092 38.672 176.722 38.832 177.468 38.832C178.322 38.832 179.047 38.672 179.644 38.352C180.263 38.032 180.754 37.552 181.116 36.912L185.436 37.968C184.668 39.4187 183.623 40.5067 182.3 41.232C180.999 41.9573 179.41 42.32 177.532 42.32ZM193.156 27.28V42H188.388V27.28H193.156ZM197.412 32.272C197.156 32.016 196.879 31.8133 196.58 31.664C196.303 31.5147 195.951 31.44 195.524 31.44C195.055 31.44 194.639 31.568 194.276 31.824C193.913 32.08 193.636 32.4533 193.444 32.944C193.252 33.4347 193.156 34.032 193.156 34.736L192.004 33.04C192.004 31.8667 192.228 30.8213 192.676 29.904C193.145 28.9867 193.753 28.2613 194.5 27.728C195.247 27.1947 196.025 26.928 196.836 26.928C197.369 26.928 197.881 27.0347 198.372 27.248C198.863 27.4613 199.236 27.76 199.492 28.144L197.412 32.272Z" fill="white"/>
<defs>
<clipPath id="clip0_820_274">
<rect width="49.7778" height="48.2222" fill="white" transform="translate(0 7.77734)"/>
</clipPath>
</defs>
</svg>
