<svg width="365" height="409" viewBox="0 0 365 409" fill="none" xmlns="http://www.w3.org/2000/svg">
<path d="M49.0174 81.3303C61.6384 81.3303 71.8697 71.0977 71.8697 58.4751C71.8697 45.8525 61.6384 35.6199 49.0174 35.6199C36.3964 35.6199 26.165 45.8525 26.165 58.4751C26.165 71.0977 36.3964 81.3303 49.0174 81.3303Z" fill="#D9D9D9"/>
<path d="M174.653 172.082C187.274 172.082 197.505 161.85 197.505 149.227C197.505 136.605 187.274 126.372 174.653 126.372C162.032 126.372 151.801 136.605 151.801 149.227C151.801 161.85 162.032 172.082 174.653 172.082Z" fill="#D9D9D9"/>
<path d="M299.565 45.7103C312.186 45.7103 322.418 35.4777 322.418 22.8552C322.418 10.2326 312.186 0 299.565 0C286.944 0 276.713 10.2326 276.713 22.8552C276.713 35.4777 286.944 45.7103 299.565 45.7103Z" fill="#D9D9D9"/>
<path d="M13 261.959C32.2665 182.7 29.497 106.471 45.5123 106.592C63.6951 106.714 79.8308 205.484 87.417 252.263C102.349 343.762 90.5478 391.753 101.024 392.481C122.217 394.177 151.079 197.288 171.189 198.742C191.057 200.196 192.781 394.904 208.676 395.995C229.387 397.449 271.894 72.7802 295.977 69.2657C316.568 66.2359 354.379 172.156 351.489 281.47" stroke="#34F5C5" stroke-width="26" stroke-miterlimit="10"/>
</svg>
