<svg width="185" height="207" viewBox="0 0 185 207" fill="none" xmlns="http://www.w3.org/2000/svg">
<path d="M25.1735 41.0372C31.5417 41.0372 36.7042 35.874 36.7042 29.505C36.7042 23.136 31.5417 17.9729 25.1735 17.9729C18.8053 17.9729 13.6428 23.136 13.6428 29.505C13.6428 35.874 18.8053 41.0372 25.1735 41.0372Z" fill="#D9D9D9"/>
<path d="M88.5661 86.8283C94.9344 86.8283 100.097 81.6652 100.097 75.2962C100.097 68.9271 94.9344 63.764 88.5661 63.764C82.1979 63.764 77.0354 68.9271 77.0354 75.2962C77.0354 81.6652 82.1979 86.8283 88.5661 86.8283Z" fill="#D9D9D9"/>
<path d="M151.593 23.0643C157.962 23.0643 163.124 17.9011 163.124 11.5321C163.124 5.16311 157.962 0 151.593 0C145.225 0 140.063 5.16311 140.063 11.5321C140.063 17.9011 145.225 23.0643 151.593 23.0643Z" fill="#D9D9D9"/>
<path d="M7 132.177C16.7214 92.1856 15.3239 53.7226 23.4049 53.7837C32.5794 53.8449 40.7211 103.682 44.5489 127.285C52.083 173.453 46.1286 197.669 51.4146 198.036C62.1082 198.892 76.6713 99.5462 86.818 100.28C96.8432 101.014 97.7128 199.259 105.733 199.809C116.183 200.543 137.631 36.723 149.783 34.9496C160.173 33.4209 179.251 86.8656 177.793 142.023" stroke="#34F5C5" stroke-width="13.9116" stroke-miterlimit="10"/>
</svg>
