<svg width="275" height="175" viewBox="0 0 275 175" fill="none" xmlns="http://www.w3.org/2000/svg">
<g clip-path="url(#clip0_3694_71946)">
<path d="M15.4168 174.49C11.1744 174.14 7.42882 171.071 5.29876 167.386C4.58444 166.15 4.09501 164.528 4.90392 163.352C5.13546 163.016 5.45545 162.749 5.82862 162.583C6.20178 162.416 6.61366 162.356 7.01885 162.409C7.42404 162.462 7.80682 162.625 8.12502 162.881C8.44323 163.138 8.68449 163.477 8.82224 163.862C8.5617 162.418 8.44974 160.951 8.48812 159.484C8.52073 158.242 8.75538 156.838 9.78796 156.148C10.9859 155.347 12.7126 155.983 13.5839 157.131C14.4553 158.278 14.6917 159.772 14.9008 161.198C14.7301 160.594 14.7134 159.957 14.8524 159.346C14.9914 158.734 15.2815 158.167 15.6962 157.697C16.111 157.226 16.6371 156.867 17.2265 156.652C17.8158 156.438 18.4496 156.374 19.0697 156.468C20.8243 156.733 22.1988 158.252 22.7351 159.944C23.2714 161.635 23.104 163.469 22.7588 165.21C22.3541 167.251 21.6971 169.276 20.5145 170.988C19.3318 172.699 17.5751 174.08 15.537 174.498L15.4168 174.49Z" fill="#F2F2F2"/>
<path d="M275 36.7076C275 44.3204 272.634 51.7451 268.229 57.9542C263.824 64.1633 257.598 68.8498 250.413 71.3651C250.184 71.4447 249.952 71.5244 249.72 71.5971V34.2973H201.665C201.679 34.0653 201.696 33.8333 201.717 33.6047H249.72V26.3186C249.72 25.8595 249.538 25.4192 249.213 25.0945C248.888 24.7698 248.448 24.5873 247.989 24.5871H203.635C203.715 24.3551 203.798 24.1231 203.888 23.8945C206.893 15.8294 212.636 9.07632 220.114 4.81514C227.591 0.553962 236.329 -0.944421 244.799 0.581762C253.269 2.10795 260.934 6.56166 266.454 13.1648C271.974 19.768 274.999 28.1009 275 36.7076Z" fill="#F2F2F2"/>
<path d="M247.989 23.8946H79.3435C78.7008 23.8953 78.0847 24.1509 77.6302 24.6053C77.1758 25.0598 76.9201 25.676 76.9194 26.3186V140.597C76.9201 141.24 77.1758 141.856 77.6302 142.31C78.0847 142.765 78.7008 143.02 79.3435 143.021H247.989C248.632 143.02 249.248 142.765 249.702 142.31C250.157 141.856 250.412 141.24 250.413 140.597V26.3186C250.412 25.676 250.157 25.0598 249.702 24.6053C249.248 24.1509 248.632 23.8953 247.989 23.8946ZM249.72 140.597C249.72 141.056 249.538 141.496 249.213 141.821C248.888 142.146 248.448 142.328 247.989 142.328H79.3435C78.8843 142.328 78.444 142.146 78.1194 141.821C77.7947 141.496 77.6122 141.056 77.612 140.597V26.3186C77.6122 25.8595 77.7947 25.4192 78.1194 25.0945C78.444 24.7698 78.8843 24.5873 79.3435 24.5872H247.989C248.448 24.5873 248.888 24.7698 249.213 25.0945C249.538 25.4192 249.72 25.8595 249.72 26.3186V140.597Z" fill="#3F3D56"/>
<path d="M250.067 33.6047H77.2656V34.2973H250.067V33.6047Z" fill="#3F3D56"/>
<path d="M83.153 31.1668C84.3005 31.1668 85.2307 30.2365 85.2307 29.089C85.2307 27.9415 84.3005 27.0112 83.153 27.0112C82.0054 27.0112 81.0752 27.9415 81.0752 29.089C81.0752 30.2365 82.0054 31.1668 83.153 31.1668Z" fill="#3F3D56"/>
<path d="M89.1266 31.1668C90.2741 31.1668 91.2044 30.2365 91.2044 29.089C91.2044 27.9415 90.2741 27.0112 89.1266 27.0112C87.9791 27.0112 87.0488 27.9415 87.0488 29.089C87.0488 30.2365 87.9791 31.1668 89.1266 31.1668Z" fill="#3F3D56"/>
<path d="M95.1002 31.1668C96.2477 31.1668 97.178 30.2365 97.178 29.089C97.178 27.9415 96.2477 27.0112 95.1002 27.0112C93.9527 27.0112 93.0225 27.9415 93.0225 29.089C93.0225 30.2365 93.9527 31.1668 95.1002 31.1668Z" fill="#3F3D56"/>
<path d="M124.362 47.7891H93.8879C93.2452 47.7898 92.6291 48.0455 92.1746 48.4999C91.7202 48.9544 91.4646 49.5705 91.4639 50.2132V80.6874C91.4646 81.3301 91.7202 81.9463 92.1746 82.4007C92.6291 82.8552 93.2452 83.1108 93.8879 83.1115H124.362C125.005 83.1108 125.621 82.8552 126.075 82.4007C126.53 81.9463 126.785 81.3301 126.786 80.6874V50.2132C126.785 49.5705 126.53 48.9544 126.075 48.4999C125.621 48.0455 125.005 47.7898 124.362 47.7891ZM126.093 80.6874C126.093 81.1466 125.911 81.5869 125.586 81.9116C125.261 82.2363 124.821 82.4187 124.362 82.4189H93.8879C93.4288 82.4187 92.9885 82.2363 92.6638 81.9116C92.3391 81.5869 92.1566 81.1466 92.1565 80.6874V50.2132C92.1566 49.754 92.3391 49.3137 92.6638 48.9891C92.9885 48.6644 93.4288 48.4819 93.8879 48.4817H124.362C124.821 48.4819 125.261 48.6644 125.586 48.9891C125.911 49.3137 126.093 49.754 126.093 50.2132V80.6874Z" fill="#3F3D56"/>
<path d="M179.076 47.9623H148.602C148.006 47.9634 147.434 48.201 147.012 48.6228C146.59 49.0447 146.353 49.6166 146.352 50.2132V80.6874C146.353 81.2841 146.59 81.8559 147.012 82.2778C147.434 82.6997 148.006 82.9372 148.602 82.9384H179.076C179.673 82.9372 180.245 82.6997 180.667 82.2778C181.089 81.8559 181.326 81.2841 181.327 80.6874V50.2132C181.326 49.6166 181.089 49.0447 180.667 48.6228C180.245 48.201 179.673 47.9634 179.076 47.9623Z" fill="#7669FF"/>
<path d="M233.791 47.9623H203.317C202.72 47.9634 202.148 48.201 201.726 48.6228C201.305 49.0447 201.067 49.6166 201.066 50.2132V80.6874C201.067 81.2841 201.305 81.8559 201.726 82.2778C202.148 82.6997 202.72 82.9372 203.317 82.9384H233.791C234.387 82.9372 234.959 82.6997 235.381 82.2778C235.803 81.8559 236.041 81.2841 236.042 80.6874V50.2132C236.041 49.6166 235.803 49.0447 235.381 48.6228C234.959 48.201 234.387 47.9634 233.791 47.9623Z" fill="#E6E6E6"/>
<path d="M124.362 93.6736H93.8881C93.2915 93.6748 92.7196 93.9123 92.2978 94.3342C91.8759 94.756 91.6384 95.3279 91.6372 95.9245V126.399C91.6384 126.995 91.8759 127.567 92.2978 127.989C92.7196 128.411 93.2915 128.649 93.8881 128.65H124.362C124.959 128.649 125.531 128.411 125.952 127.989C126.374 127.567 126.612 126.995 126.613 126.399V95.9245C126.612 95.3279 126.374 94.756 125.952 94.3342C125.531 93.9123 124.959 93.6748 124.362 93.6736Z" fill="#E6E6E6"/>
<path d="M179.076 93.6736H148.602C148.006 93.6748 147.434 93.9123 147.012 94.3342C146.59 94.756 146.353 95.3279 146.352 95.9245V126.399C146.353 126.995 146.59 127.567 147.012 127.989C147.434 128.411 148.006 128.649 148.602 128.65H179.076C179.673 128.649 180.245 128.411 180.667 127.989C181.089 127.567 181.326 126.995 181.327 126.399V95.9245C181.326 95.3279 181.089 94.756 180.667 94.3342C180.245 93.9123 179.673 93.6748 179.076 93.6736Z" fill="#7669FF"/>
<path d="M233.791 93.6736H203.317C202.72 93.6748 202.148 93.9123 201.726 94.3342C201.305 94.756 201.067 95.3279 201.066 95.9245V126.399C201.067 126.995 201.305 127.567 201.726 127.989C202.148 128.411 202.72 128.649 203.317 128.65H233.791C234.387 128.649 234.959 128.411 235.381 127.989C235.803 127.567 236.041 126.995 236.042 126.399V95.9245C236.041 95.3279 235.803 94.756 235.381 94.3342C234.959 93.9123 234.387 93.6748 233.791 93.6736Z" fill="#E6E6E6"/>
<path d="M116.917 98.6949H86.4428C85.846 98.6942 85.2739 98.4569 84.8519 98.0349C84.4299 97.6129 84.1926 97.0407 84.1919 96.444V65.9697C84.1926 65.373 84.4299 64.8008 84.8519 64.3788C85.2739 63.9569 85.846 63.7195 86.4428 63.7188H116.917C117.513 63.7195 118.086 63.9569 118.508 64.3789C118.93 64.8008 119.167 65.373 119.168 65.9697V96.444C119.167 97.0407 118.93 97.6129 118.508 98.0349C118.086 98.4569 117.513 98.6942 116.917 98.6949Z" fill="#7669FF"/>
<path d="M70.2098 170.409L74.2683 169.163L71.3955 152.916L65.4053 154.754L70.2098 170.409Z" fill="#A0616A"/>
<path d="M83.2524 170.53L70.4966 174.445L68.9842 169.516L76.8116 167.114C77.4588 166.916 78.1388 166.846 78.8127 166.911C79.4867 166.975 80.1414 167.171 80.7395 167.488C81.3376 167.805 81.8673 168.237 82.2985 168.759C82.7297 169.281 83.0538 169.883 83.2524 170.53Z" fill="#2F2E41"/>
<path d="M35.5813 170.503L39.8268 170.502L41.8464 154.126L35.5806 154.127L35.5813 170.503Z" fill="#A0616A"/>
<path d="M48.0146 174.444L34.6717 174.445L34.6714 169.29L42.8592 169.289C43.5362 169.289 44.2065 169.422 44.832 169.682C45.4575 169.941 46.0258 170.32 46.5045 170.799C46.9833 171.278 47.363 171.846 47.6221 172.471C47.8812 173.097 48.0146 173.767 48.0146 174.444Z" fill="#2F2E41"/>
<path d="M35.2766 123.033C34.9278 122.727 34.6503 122.349 34.4636 121.924C34.2769 121.499 34.1856 121.039 34.1961 120.575C34.2066 120.111 34.3187 119.656 34.5244 119.24C34.7301 118.824 35.0244 118.459 35.3867 118.169L38.6784 76.7189L45.3725 78.3915L40.0127 118.825C40.459 119.466 40.6547 120.248 40.5628 121.023C40.4708 121.799 40.0976 122.514 39.5138 123.032C38.93 123.551 38.1762 123.838 37.3953 123.838C36.6143 123.838 35.8605 123.551 35.2766 123.033Z" fill="#A0616A"/>
<path d="M48.6816 60.6424C53.379 60.6424 57.187 56.8344 57.187 52.137C57.187 47.4395 53.379 43.6315 48.6816 43.6315C43.9842 43.6315 40.1763 47.4395 40.1763 52.137C40.1763 56.8344 43.9842 60.6424 48.6816 60.6424Z" fill="#A0616A"/>
<path d="M41.2859 75.444C39.3667 72.8093 39.3076 69.1806 41.3749 66.6604C42.724 65.0158 44.9807 63.6998 48.7484 63.6998C58.7909 63.6998 62.6001 71.6646 62.6001 71.6646C62.6001 71.6646 66.7557 79.2832 64.3316 86.2091C61.9076 93.1351 61.9076 93.8277 61.9076 93.8277L45.978 92.4425C45.978 92.4425 48.6653 85.5748 41.2859 75.444Z" fill="#CCCCCC"/>
<path d="M36.374 82.3383L39.8057 71.1111C40.0355 70.3593 40.4277 69.6672 40.9544 69.0836C41.4811 68.5 42.1296 68.0393 42.854 67.7339C43.5784 67.4285 44.361 67.286 45.1465 67.3163C45.932 67.3467 46.7013 67.5491 47.4 67.9095C48.6121 68.5373 49.5402 69.6026 49.996 70.8893C50.4518 72.1761 50.4012 73.588 49.8545 74.8388L45.4918 84.7746L36.374 82.3383Z" fill="#CCCCCC"/>
<path d="M61.5614 92.0962L75.0669 162.048L67.7947 164.126L50.1337 118.069L42.1689 165.165L34.5504 166.204C34.5504 166.204 31.2086 103.889 45.9782 92.4425L61.5614 92.0962Z" fill="#2F2E41"/>
<path d="M80.9995 88.8176C80.8763 88.9644 80.7649 89.1206 80.6662 89.2849L63.5125 90.1166L60.2094 80.0325L54.4741 82.7584L59.8721 97.7778L81.0868 93.6289C81.5853 94.1731 82.2377 94.5527 82.9572 94.7171C83.6767 94.8816 84.4292 94.8231 85.1147 94.5494C85.8001 94.2758 86.386 93.7999 86.7944 93.1852C87.2028 92.5704 87.4144 91.8459 87.401 91.1079C87.3877 90.37 87.1499 89.6536 86.7195 89.0541C86.2891 88.4545 85.6863 88.0002 84.9914 87.7516C84.2965 87.503 83.5423 87.4718 82.8293 87.6622C82.1162 87.8526 81.478 88.2556 80.9995 88.8176Z" fill="#A0616A"/>
<path d="M52.0739 72.6704C51.982 71.8896 52.0628 71.0982 52.3104 70.3521C52.558 69.606 52.9665 68.9234 53.507 68.3525C54.0475 67.7816 54.7067 67.3364 55.4382 67.0484C56.1697 66.7604 56.9555 66.6365 57.7401 66.6856C59.1024 66.773 60.3804 67.3753 61.3151 68.3702C62.2497 69.3651 62.7711 70.6783 62.7733 72.0434V82.8946L53.4456 84.3299L52.0739 72.6704Z" fill="#CCCCCC"/>
<path d="M50.5523 60.7195C49.2757 60.714 48.2909 59.3699 48.3482 58.0946C48.4054 56.8193 49.2619 55.6973 50.2939 54.9458C51.3258 54.1943 52.5361 53.7365 53.6869 53.184C54.8377 52.6315 55.9784 51.9423 56.689 50.8817C57.1182 50.1876 57.3744 49.4005 57.4361 48.5867C57.4978 47.7728 57.3631 46.9561 57.0433 46.2052C56.3821 44.7033 55.2468 43.4596 53.8113 42.6646C51.6789 41.4164 49.1546 41.0172 46.7411 41.5467C44.3277 42.0762 42.2022 43.4954 40.7882 45.5217L39.331 49.4895C37.8461 51.2751 37.6106 53.9268 38.5233 56.0621C39.4361 58.1975 41.3796 59.8042 43.5727 60.568C45.7978 61.283 48.1797 61.3544 50.4436 60.774" fill="#2F2E41"/>
<path d="M42.7794 47.5047C42.1529 46.5007 41.0671 45.8621 39.9446 45.4874C38.6442 45.0532 37.2612 44.9251 35.9031 45.1129C34.5451 45.3008 33.2487 45.7995 32.115 46.5704C30.9812 47.3412 30.0407 48.3633 29.3666 49.5571C28.6926 50.7509 28.3031 52.0842 28.2286 53.4532C28.1097 55.6398 28.7944 57.7781 29.1967 59.9308C29.599 62.0834 29.679 64.4609 28.4922 66.3013C27.5882 67.703 26.0806 68.5856 24.5926 69.3392C23.3524 69.9672 22.011 70.5567 20.6264 70.4315C19.2419 70.3064 17.8504 69.2097 17.8871 67.8201C17.4237 68.8165 17.1107 69.8762 16.9585 70.9646C16.8611 72.0575 17.1305 73.2367 17.9198 73.9988C19.0671 75.1065 20.885 75.0254 22.4617 74.7864C25.8751 74.269 29.3316 73.2989 32.0283 71.1433C34.725 68.9876 36.5144 65.438 35.8043 62.0594C35.5076 60.6481 34.8104 59.3597 34.2471 58.0321C33.6837 56.7045 33.2439 55.2524 33.5027 53.8336C33.6558 53.1026 33.9676 52.4142 34.4159 51.817C34.8642 51.2197 35.4382 50.7281 36.0973 50.3769C37.4302 49.6839 38.9554 49.4526 40.4338 49.7193C41.4031 49.8783 42.6134 50.1253 43.1883 49.3289C43.3407 49.0766 43.4185 48.7863 43.4127 48.4916C43.407 48.1969 43.3179 47.9098 43.1559 47.6637C42.8242 47.1767 42.4018 46.7582 41.9118 46.431" fill="#2F2E41"/>
<path d="M106.827 175H0.412552C0.358304 175 0.304554 174.99 0.25439 174.969C0.204226 174.948 0.158633 174.918 0.120218 174.88C0.0818031 174.841 0.0513231 174.796 0.0305269 174.746C0.00973058 174.696 -0.000976562 174.642 -0.000976562 174.588C-0.000976562 174.533 0.00973058 174.48 0.0305269 174.43C0.0513231 174.38 0.0818031 174.334 0.120218 174.296C0.158633 174.257 0.204226 174.227 0.25439 174.206C0.304554 174.186 0.358304 174.175 0.412552 174.175H106.827C106.881 174.175 106.935 174.186 106.985 174.206C107.035 174.227 107.081 174.257 107.119 174.296C107.157 174.334 107.188 174.38 107.209 174.43C107.23 174.48 107.24 174.533 107.24 174.588C107.24 174.642 107.23 174.696 107.209 174.746C107.188 174.796 107.157 174.841 107.119 174.88C107.081 174.918 107.035 174.948 106.985 174.969C106.935 174.99 106.881 175 106.827 175Z" fill="#3F3D56"/>
</g>
<defs>
<clipPath id="clip0_3694_71946">
<rect width="275" height="175" fill="white"/>
</clipPath>
</defs>
</svg>
