<svg width="62" height="56" viewBox="0 0 62 56" fill="black" xmlns="http://www.w3.org/2000/svg">
<g id="arrow-up-right-dots-solid 1">
<path id="Vector" d="M19.86 6.49268C18.3753 6.49268 17.1759 7.71672 17.1759 9.23181C17.1759 10.7469 18.3753 11.9709 19.86 11.9709H24.1126L7.22792 29.2103C6.17944 30.2803 6.17944 32.018 7.22792 33.0879C8.27639 34.1579 9.97912 34.1579 11.0276 33.0879L27.9123 15.8485V20.1883C27.9123 21.7034 29.1117 22.9275 30.5964 22.9275C32.081 22.9275 33.2805 21.7034 33.2805 20.1883V9.23181C33.2805 7.71672 32.081 6.49268 30.5964 6.49268H19.86ZM54.7532 13.3405C54.7532 12.2508 54.3291 11.2057 53.574 10.4352C52.819 9.66469 51.7949 9.23181 50.7271 9.23181C49.6593 9.23181 48.6352 9.66469 47.8802 10.4352C47.1251 11.2057 46.701 12.2508 46.701 13.3405C46.701 14.4302 47.1251 15.4753 47.8802 16.2458C48.6352 17.0163 49.6593 17.4492 50.7271 17.4492C51.7949 17.4492 52.819 17.0163 53.574 16.2458C54.3291 15.4753 54.7532 14.4302 54.7532 13.3405ZM44.0168 24.297C44.0168 23.7575 43.9127 23.2232 43.7104 22.7247C43.508 22.2262 43.2115 21.7733 42.8376 21.3917C42.4638 21.0102 42.0199 20.7076 41.5314 20.5011C41.043 20.2946 40.5194 20.1883 39.9907 20.1883C39.462 20.1883 38.9384 20.2946 38.45 20.5011C37.9615 20.7076 37.5176 21.0102 37.1438 21.3917C36.7699 21.7733 36.4734 22.2262 36.271 22.7247C36.0687 23.2232 35.9646 23.7575 35.9646 24.297C35.9646 24.8366 36.0687 25.3709 36.271 25.8694C36.4734 26.3678 36.7699 26.8208 37.1438 27.2023C37.5176 27.5838 37.9615 27.8865 38.45 28.093C38.9384 28.2994 39.462 28.4057 39.9907 28.4057C40.5194 28.4057 41.043 28.2994 41.5314 28.093C42.0199 27.8865 42.4638 27.5838 42.8376 27.2023C43.2115 26.8208 43.508 26.3678 43.7104 25.8694C43.9127 25.3709 44.0168 24.8366 44.0168 24.297ZM39.9907 39.3622C41.0585 39.3622 42.0826 38.9294 42.8376 38.1588C43.5927 37.3883 44.0168 36.3432 44.0168 35.2535C44.0168 34.1639 43.5927 33.1188 42.8376 32.3483C42.0826 31.5777 41.0585 31.1448 39.9907 31.1448C38.9229 31.1448 37.8988 31.5777 37.1438 32.3483C36.3887 33.1188 35.9646 34.1639 35.9646 35.2535C35.9646 36.3432 36.3887 37.3883 37.1438 38.1588C37.8988 38.9294 38.9229 39.3622 39.9907 39.3622ZM44.0168 46.2101C44.0168 45.6705 43.9127 45.1362 43.7104 44.6377C43.508 44.1392 43.2115 43.6863 42.8376 43.3048C42.4638 42.9233 42.0199 42.6206 41.5314 42.4141C41.043 42.2076 40.5194 42.1014 39.9907 42.1014C39.462 42.1014 38.9384 42.2076 38.45 42.4141C37.9615 42.6206 37.5176 42.9233 37.1438 43.3048C36.7699 43.6863 36.4734 44.1392 36.271 44.6377C36.0687 45.1362 35.9646 45.6705 35.9646 46.2101C35.9646 46.7496 36.0687 47.2839 36.271 47.7824C36.4734 48.2809 36.7699 48.7338 37.1438 49.1154C37.5176 49.4969 37.9615 49.7995 38.45 50.006C38.9384 50.2125 39.462 50.3188 39.9907 50.3188C40.5194 50.3188 41.043 50.2125 41.5314 50.006C42.0199 49.7995 42.4638 49.4969 42.8376 49.1154C43.2115 48.7338 43.508 48.2809 43.7104 47.7824C43.9127 47.2839 44.0168 46.7496 44.0168 46.2101ZM54.7532 46.2101C54.7532 45.1204 54.3291 44.0753 53.574 43.3048C52.819 42.5343 51.7949 42.1014 50.7271 42.1014C49.6593 42.1014 48.6352 42.5343 47.8802 43.3048C47.1251 44.0753 46.701 45.1204 46.701 46.2101C46.701 47.2998 47.1251 48.3448 47.8802 49.1154C48.6352 49.8859 49.6593 50.3188 50.7271 50.3188C51.7949 50.3188 52.819 49.8859 53.574 49.1154C54.3291 48.3448 54.7532 47.2998 54.7532 46.2101ZM29.2543 39.3622C30.3221 39.3622 31.3462 38.9294 32.1012 38.1588C32.8563 37.3883 33.2805 36.3432 33.2805 35.2535C33.2805 34.1639 32.8563 33.1188 32.1012 32.3483C31.3462 31.5777 30.3221 31.1448 29.2543 31.1448C28.1865 31.1448 27.1624 31.5777 26.4074 32.3483C25.6523 33.1188 25.2282 34.1639 25.2282 35.2535C25.2282 36.3432 25.6523 37.3883 26.4074 38.1588C27.1624 38.9294 28.1865 39.3622 29.2543 39.3622ZM33.2805 46.2101C33.2805 45.1204 32.8563 44.0753 32.1012 43.3048C31.3462 42.5343 30.3221 42.1014 29.2543 42.1014C28.1865 42.1014 27.1624 42.5343 26.4074 43.3048C25.6523 44.0753 25.2282 45.1204 25.2282 46.2101C25.2282 47.2998 25.6523 48.3448 26.4074 49.1154C27.1624 49.8859 28.1865 50.3188 29.2543 50.3188C30.3221 50.3188 31.3462 49.8859 32.1012 49.1154C32.8563 48.3448 33.2805 47.2998 33.2805 46.2101ZM18.5179 50.3188C19.5857 50.3188 20.6098 49.8859 21.3648 49.1154C22.1199 48.3448 22.5441 47.2998 22.5441 46.2101C22.5441 45.1204 22.1199 44.0753 21.3648 43.3048C20.6098 42.5343 19.5857 42.1014 18.5179 42.1014C17.4501 42.1014 16.426 42.5343 15.671 43.3048C14.9159 44.0753 14.4918 45.1204 14.4918 46.2101C14.4918 47.2998 14.9159 48.3448 15.671 49.1154C16.426 49.8859 17.4501 50.3188 18.5179 50.3188ZM54.7532 35.2535C54.7532 34.1639 54.3291 33.1188 53.574 32.3483C52.819 31.5777 51.7949 31.1448 50.7271 31.1448C49.6593 31.1448 48.6352 31.5777 47.8802 32.3483C47.1251 33.1188 46.701 34.1639 46.701 35.2535C46.701 36.3432 47.1251 37.3883 47.8802 38.1588C48.6352 38.9294 49.6593 39.3622 50.7271 39.3622C51.7949 39.3622 52.819 38.9294 53.574 38.1588C54.3291 37.3883 54.7532 36.3432 54.7532 35.2535ZM50.7271 28.4057C51.7949 28.4057 52.819 27.9728 53.574 27.2023C54.3291 26.4318 54.7532 25.3867 54.7532 24.297C54.7532 23.2073 54.3291 22.1623 53.574 21.3917C52.819 20.6212 51.7949 20.1883 50.7271 20.1883C49.6593 20.1883 48.6352 20.6212 47.8802 21.3917C47.1251 22.1623 46.701 23.2073 46.701 24.297C46.701 25.3867 47.1251 26.4318 47.8802 27.2023C48.6352 27.9728 49.6593 28.4057 50.7271 28.4057Z" fill="#D9D9D9"/>
</g>
</svg>
