<svg width="24" height="21" viewBox="0 0 24 21" fill="none" xmlns="http://www.w3.org/2000/svg">
<path id="Vector" d="M6.66592 0C5.92838 0 5.33252 0.586523 5.33252 1.3125C5.33252 2.03848 5.92838 2.625 6.66592 2.625H8.77851L0.390642 10.8855C-0.130214 11.3982 -0.130214 12.2309 0.390642 12.7436C0.911498 13.2563 1.75737 13.2563 2.27822 12.7436L10.6661 4.48301V6.5625C10.6661 7.28848 11.2619 7.875 11.9995 7.875C12.737 7.875 13.3329 7.28848 13.3329 6.5625V1.3125C13.3329 0.586523 12.737 0 11.9995 0H6.66592ZM24 3.28125C24 2.7591 23.7893 2.25835 23.4142 1.88913C23.0391 1.51992 22.5304 1.3125 21.9999 1.3125C21.4695 1.3125 20.9607 1.51992 20.5856 1.88913C20.2106 2.25835 19.9998 2.7591 19.9998 3.28125C19.9998 3.8034 20.2106 4.30415 20.5856 4.67337C20.9607 5.04258 21.4695 5.25 21.9999 5.25C22.5304 5.25 23.0391 5.04258 23.4142 4.67337C23.7893 4.30415 24 3.8034 24 3.28125ZM18.6664 8.53125C18.6664 8.27271 18.6147 8.0167 18.5142 7.77784C18.4137 7.53898 18.2663 7.32195 18.0806 7.13913C17.8949 6.95632 17.6744 6.8113 17.4317 6.71236C17.1891 6.61342 16.929 6.5625 16.6663 6.5625C16.4037 6.5625 16.1436 6.61342 15.9009 6.71236C15.6583 6.8113 15.4378 6.95632 15.2521 7.13913C15.0663 7.32195 14.919 7.53898 14.8185 7.77784C14.718 8.0167 14.6663 8.27271 14.6663 8.53125C14.6663 8.78979 14.718 9.0458 14.8185 9.28466C14.919 9.52352 15.0663 9.74055 15.2521 9.92337C15.4378 10.1062 15.6583 10.2512 15.9009 10.3501C16.1436 10.4491 16.4037 10.5 16.6663 10.5C16.929 10.5 17.1891 10.4491 17.4317 10.3501C17.6744 10.2512 17.8949 10.1062 18.0806 9.92337C18.2663 9.74055 18.4137 9.52352 18.5142 9.28466C18.6147 9.0458 18.6664 8.78979 18.6664 8.53125ZM16.6663 15.75C17.1968 15.75 17.7055 15.5426 18.0806 15.1734C18.4557 14.8042 18.6664 14.3034 18.6664 13.7812C18.6664 13.2591 18.4557 12.7583 18.0806 12.3891C17.7055 12.0199 17.1968 11.8125 16.6663 11.8125C16.1359 11.8125 15.6272 12.0199 15.2521 12.3891C14.877 12.7583 14.6663 13.2591 14.6663 13.7812C14.6663 14.3034 14.877 14.8042 15.2521 15.1734C15.6272 15.5426 16.1359 15.75 16.6663 15.75ZM18.6664 19.0312C18.6664 18.7727 18.6147 18.5167 18.5142 18.2778C18.4137 18.039 18.2663 17.8219 18.0806 17.6391C17.8949 17.4563 17.6744 17.3113 17.4317 17.2124C17.1891 17.1134 16.929 17.0625 16.6663 17.0625C16.4037 17.0625 16.1436 17.1134 15.9009 17.2124C15.6583 17.3113 15.4378 17.4563 15.2521 17.6391C15.0663 17.8219 14.919 18.039 14.8185 18.2778C14.718 18.5167 14.6663 18.7727 14.6663 19.0312C14.6663 19.2898 14.718 19.5458 14.8185 19.7847C14.919 20.0235 15.0663 20.2406 15.2521 20.4234C15.4378 20.6062 15.6583 20.7512 15.9009 20.8501C16.1436 20.9491 16.4037 21 16.6663 21C16.929 21 17.1891 20.9491 17.4317 20.8501C17.6744 20.7512 17.8949 20.6062 18.0806 20.4234C18.2663 20.2406 18.4137 20.0235 18.5142 19.7847C18.6147 19.5458 18.6664 19.2898 18.6664 19.0312ZM24 19.0312C24 18.5091 23.7893 18.0083 23.4142 17.6391C23.0391 17.2699 22.5304 17.0625 21.9999 17.0625C21.4695 17.0625 20.9607 17.2699 20.5856 17.6391C20.2106 18.0083 19.9998 18.5091 19.9998 19.0312C19.9998 19.5534 20.2106 20.0542 20.5856 20.4234C20.9607 20.7926 21.4695 21 21.9999 21C22.5304 21 23.0391 20.7926 23.4142 20.4234C23.7893 20.0542 24 19.5534 24 19.0312ZM11.3328 15.75C11.8632 15.75 12.372 15.5426 12.7471 15.1734C13.1221 14.8042 13.3329 14.3034 13.3329 13.7812C13.3329 13.2591 13.1221 12.7583 12.7471 12.3891C12.372 12.0199 11.8632 11.8125 11.3328 11.8125C10.8023 11.8125 10.2936 12.0199 9.91851 12.3891C9.54342 12.7583 9.3327 13.2591 9.3327 13.7812C9.3327 14.3034 9.54342 14.8042 9.91851 15.1734C10.2936 15.5426 10.8023 15.75 11.3328 15.75ZM13.3329 19.0312C13.3329 18.5091 13.1221 18.0083 12.7471 17.6391C12.372 17.2699 11.8632 17.0625 11.3328 17.0625C10.8023 17.0625 10.2936 17.2699 9.91851 17.6391C9.54342 18.0083 9.3327 18.5091 9.3327 19.0312C9.3327 19.5534 9.54342 20.0542 9.91851 20.4234C10.2936 20.7926 10.8023 21 11.3328 21C11.8632 21 12.372 20.7926 12.7471 20.4234C13.1221 20.0542 13.3329 19.5534 13.3329 19.0312ZM5.99922 21C6.52968 21 7.03841 20.7926 7.41349 20.4234C7.78858 20.0542 7.99931 19.5534 7.99931 19.0312C7.99931 18.5091 7.78858 18.0083 7.41349 17.6391C7.03841 17.2699 6.52968 17.0625 5.99922 17.0625C5.46876 17.0625 4.96003 17.2699 4.58494 17.6391C4.20986 18.0083 3.99913 18.5091 3.99913 19.0312C3.99913 19.5534 4.20986 20.0542 4.58494 20.4234C4.96003 20.7926 5.46876 21 5.99922 21ZM24 13.7812C24 13.2591 23.7893 12.7583 23.4142 12.3891C23.0391 12.0199 22.5304 11.8125 21.9999 11.8125C21.4695 11.8125 20.9607 12.0199 20.5856 12.3891C20.2106 12.7583 19.9998 13.2591 19.9998 13.7812C19.9998 14.3034 20.2106 14.8042 20.5856 15.1734C20.9607 15.5426 21.4695 15.75 21.9999 15.75C22.5304 15.75 23.0391 15.5426 23.4142 15.1734C23.7893 14.8042 24 14.3034 24 13.7812ZM21.9999 10.5C22.5304 10.5 23.0391 10.2926 23.4142 9.92337C23.7893 9.55415 24 9.0534 24 8.53125C24 8.0091 23.7893 7.50835 23.4142 7.13913C23.0391 6.76992 22.5304 6.5625 21.9999 6.5625C21.4695 6.5625 20.9607 6.76992 20.5856 7.13913C20.2106 7.50835 19.9998 8.0091 19.9998 8.53125C19.9998 9.0534 20.2106 9.55415 20.5856 9.92337C20.9607 10.2926 21.4695 10.5 21.9999 10.5Z" fill="#17222D"/>
</svg>
