<svg width="358" height="58" viewBox="0 0 191 61" fill="none" xmlns="http://www.w3.org/2000/svg">
<path d="M6.43586 20.1454C8.01024 20.1454 9.28652 18.8689 9.28652 17.2944C9.28652 15.7198 8.01024 14.4434 6.43586 14.4434C4.86149 14.4434 3.58521 15.7198 3.58521 17.2944C3.58521 18.8689 4.86149 20.1454 6.43586 20.1454Z" fill="#D9D9D9"/>
<path d="M22.5336 31.2532C24.108 31.2532 25.3843 29.9767 25.3843 28.4022C25.3843 26.8276 24.108 25.5511 22.5336 25.5511C20.9593 25.5511 19.683 26.8276 19.683 28.4022C19.683 29.9767 20.9593 31.2532 22.5336 31.2532Z" fill="#D9D9D9"/>
<path d="M37.477 15.702C39.0514 15.702 40.3277 14.4256 40.3277 12.851C40.3277 11.2764 39.0514 10 37.477 10C35.9026 10 34.6263 11.2764 34.6263 12.851C34.6263 14.4256 35.9026 15.702 37.477 15.702Z" fill="#D9D9D9"/>
<g clip-path="url(#clip0_483_91)">
<path d="M1.51709 42.6775C3.92045 32.7906 3.57496 23.2816 5.57276 23.2967C7.84092 23.3118 9.85374 35.6327 10.8001 41.4681C12.6627 52.8819 11.1906 58.8685 12.4974 58.9592C15.1411 59.1708 18.7415 34.6103 21.25 34.7917C23.7284 34.9731 23.9434 59.2615 25.9262 59.3976C28.5098 59.579 33.8122 19.0789 36.8164 18.6405C39.385 18.2625 44.1016 31.4753 43.7411 45.1114" stroke="#34F5C5" stroke-width="2.96083" stroke-miterlimit="10"/>
</g>
<path d="M87.6202 38.336C87.6202 41.536 86.8522 44.144 85.3162 46.16C83.8122 48.144 81.6202 49.456 78.7402 50.096C80.2442 51.6 82.7402 52.352 86.2282 52.352V57.152C82.8042 57.12 80.0362 56.56 77.9242 55.472C75.8442 54.416 74.2762 52.784 73.2202 50.576C69.0922 50.416 65.9402 49.296 63.7642 47.216C61.5882 45.136 60.5002 42.176 60.5002 38.336V28.064C60.5002 24.064 61.6682 21.024 64.0042 18.944C66.3402 16.864 69.7002 15.824 74.0842 15.824C78.4682 15.824 81.8122 16.864 84.1162 18.944C86.4522 21.024 87.6202 24.064 87.6202 28.064V38.336ZM81.9562 28.064C81.9562 25.536 81.2682 23.616 79.8922 22.304C78.5482 20.96 76.6122 20.288 74.0842 20.288C71.5242 20.288 69.5562 20.96 68.1802 22.304C66.8362 23.616 66.1642 25.536 66.1642 28.064V38.336C66.1642 40.864 66.8362 42.8 68.1802 44.144C69.5562 45.456 71.5242 46.112 74.0842 46.112C76.6122 46.112 78.5482 45.456 79.8922 44.144C81.2682 42.8 81.9562 40.864 81.9562 38.336V28.064ZM112.959 43.952C112.959 44.72 113.103 45.36 113.391 45.872C113.679 46.352 114.223 46.88 115.023 47.456L111.519 50.48C110.463 49.936 109.663 49.36 109.119 48.752C108.575 48.112 108.191 47.344 107.967 46.448C107.231 47.728 106.271 48.736 105.087 49.472C103.903 50.208 102.463 50.576 100.767 50.576C98.3033 50.576 96.3993 49.904 95.0553 48.56C93.7113 47.184 93.0393 45.232 93.0393 42.704V27.44H98.2713V42.272C98.2713 43.584 98.6233 44.624 99.3273 45.392C100.031 46.128 101.023 46.496 102.303 46.496C103.647 46.496 104.767 46.032 105.663 45.104C106.559 44.176 107.247 42.944 107.727 41.408V27.44H112.959V43.952ZM129.123 46.544C130.371 46.544 131.411 46.384 132.243 46.064C133.107 45.712 133.971 45.12 134.835 44.288L137.955 47.168C136.995 48.288 135.795 49.136 134.355 49.712C132.915 50.288 131.139 50.576 129.027 50.576C125.571 50.576 123.011 49.872 121.347 48.464C119.683 47.024 118.851 44.832 118.851 41.888V34.88C118.851 32.416 119.715 30.48 121.443 29.072C123.203 27.632 125.603 26.912 128.643 26.912C131.747 26.912 134.163 27.68 135.891 29.216C137.619 30.72 138.483 32.896 138.483 35.744C138.483 37.056 138.355 38.08 138.099 38.816C137.843 39.552 137.379 40.096 136.707 40.448C136.035 40.768 135.043 40.928 133.731 40.928H124.035V41.888C124.035 44.992 125.731 46.544 129.123 46.544ZM128.595 30.896C127.187 30.896 126.067 31.296 125.235 32.096C124.435 32.896 124.035 33.952 124.035 35.264V37.328H130.899C131.795 37.328 132.419 37.184 132.771 36.896C133.123 36.576 133.299 36.032 133.299 35.264C133.299 33.856 132.883 32.784 132.051 32.048C131.251 31.28 130.099 30.896 128.595 30.896ZM162.741 43.952C162.741 44.72 162.885 45.36 163.173 45.872C163.461 46.352 164.005 46.88 164.805 47.456L161.301 50.48C160.245 49.936 159.445 49.36 158.901 48.752C158.357 48.112 157.973 47.344 157.749 46.448C157.013 47.728 156.053 48.736 154.869 49.472C153.685 50.208 152.245 50.576 150.549 50.576C148.085 50.576 146.181 49.904 144.837 48.56C143.493 47.184 142.821 45.232 142.821 42.704V27.44H148.053V42.272C148.053 43.584 148.405 44.624 149.109 45.392C149.813 46.128 150.805 46.496 152.085 46.496C153.429 46.496 154.549 46.032 155.445 45.104C156.341 44.176 157.029 42.944 157.509 41.408V27.44H162.741V43.952ZM178.904 46.544C180.152 46.544 181.192 46.384 182.024 46.064C182.888 45.712 183.752 45.12 184.616 44.288L187.736 47.168C186.776 48.288 185.576 49.136 184.136 49.712C182.696 50.288 180.92 50.576 178.808 50.576C175.352 50.576 172.792 49.872 171.128 48.464C169.464 47.024 168.632 44.832 168.632 41.888V34.88C168.632 32.416 169.496 30.48 171.224 29.072C172.984 27.632 175.384 26.912 178.424 26.912C181.528 26.912 183.944 27.68 185.672 29.216C187.4 30.72 188.264 32.896 188.264 35.744C188.264 37.056 188.136 38.08 187.88 38.816C187.624 39.552 187.16 40.096 186.488 40.448C185.816 40.768 184.824 40.928 183.512 40.928H173.816V41.888C173.816 44.992 175.512 46.544 178.904 46.544ZM178.376 30.896C176.968 30.896 175.848 31.296 175.016 32.096C174.216 32.896 173.816 33.952 173.816 35.264V37.328H180.68C181.576 37.328 182.2 37.184 182.552 36.896C182.904 36.576 183.08 36.032 183.08 35.264C183.08 33.856 182.664 32.784 181.832 32.048C181.032 31.28 179.88 30.896 178.376 30.896Z" fill="#EAEAEA"/>
<defs>
<clipPath id="clip0_483_91">
<rect width="45.3333" height="43.9167" fill="white" transform="translate(0 17.0834)"/>
</clipPath>
</defs>
</svg>
