<svg width="265" height="230" viewBox="0 0 265 230" fill="none" xmlns="http://www.w3.org/2000/svg">
<g clip-path="url(#clip0_280_76)">
<path d="M71.5538 39.9439C77.7524 39.9439 82.7774 34.9183 82.7774 28.7189C82.7774 22.5195 77.7524 17.4939 71.5538 17.4939C65.3552 17.4939 60.3302 22.5195 60.3302 28.7189C60.3302 34.9183 65.3552 39.9439 71.5538 39.9439Z" fill="#D9D9D9"/>
<path d="M134.934 83.6785C141.133 83.6785 146.158 78.6529 146.158 72.4535C146.158 66.2541 141.133 61.2285 134.934 61.2285C128.736 61.2285 123.711 66.2541 123.711 72.4535C123.711 78.6529 128.736 83.6785 134.934 83.6785Z" fill="#D9D9D9"/>
<path d="M188.191 22.45C194.39 22.45 199.415 17.4244 199.415 11.225C199.415 5.0256 194.39 0 188.191 0C181.993 0 176.968 5.0256 176.968 11.225C176.968 17.4244 181.993 22.45 188.191 22.45Z" fill="#D9D9D9"/>
<path d="M3.08105 198.679C71.3514 168.394 56.3382 53.6266 69.7361 53.7307C78.1648 53.7973 85.6164 99.2311 89.1551 120.79C96.0653 162.917 90.6076 184.971 95.4535 185.35C105.282 186.121 125.498 95.1117 134.815 95.799C144.028 96.4779 137.949 186.508 145.313 187.016C154.89 187.679 174.569 38.257 185.727 36.6534C198.557 34.8083 225.608 123.139 202.522 184.517C201.281 187.812 200.119 190.457 200.947 194.097C208.882 228.943 274.67 212.92 421.906 211.174" stroke="#34F5C5" stroke-width="11.6526" stroke-miterlimit="10"/>
<rect width="108.909" height="68.4287" transform="matrix(0.99743 0.0716519 -0.0799594 0.996798 -38.1552 140.37)" fill="#17222D"/>
</g>
<rect width="72.3324" height="68.5098" transform="matrix(0.977184 0.212394 -0.225231 0.974305 194.255 147.447)" fill="#17222D"/>
<defs>
<clipPath id="clip0_280_76">
<rect width="250.598" height="223.233" fill="white"/>
</clipPath>
</defs>
</svg>
