<svg width="179" height="58" viewBox="0 0 179 58" fill="none" xmlns="http://www.w3.org/2000/svg">
<path d="M76.2868 38.336C76.2868 41.536 75.5188 44.144 73.9828 46.16C72.4788 48.144 70.2868 49.456 67.4068 50.096C68.9108 51.6 71.4068 52.352 74.8948 52.352V57.152C71.4708 57.12 68.7028 56.56 66.5908 55.472C64.5108 54.416 62.9428 52.784 61.8868 50.576C57.7588 50.416 54.6068 49.296 52.4308 47.216C50.2548 45.136 49.1668 42.176 49.1668 38.336V28.064C49.1668 24.064 50.3348 21.024 52.6708 18.944C55.0068 16.864 58.3668 15.824 62.7508 15.824C67.1348 15.824 70.4788 16.864 72.7828 18.944C75.1188 21.024 76.2868 24.064 76.2868 28.064V38.336ZM70.6228 28.064C70.6228 25.536 69.9348 23.616 68.5588 22.304C67.2148 20.96 65.2788 20.288 62.7508 20.288C60.1908 20.288 58.2228 20.96 56.8468 22.304C55.5028 23.616 54.8308 25.536 54.8308 28.064V38.336C54.8308 40.864 55.5028 42.8 56.8468 44.144C58.2228 45.456 60.1908 46.112 62.7508 46.112C65.2788 46.112 67.2148 45.456 68.5588 44.144C69.9348 42.8 70.6228 40.864 70.6228 38.336V28.064ZM101.626 43.952C101.626 44.72 101.77 45.36 102.058 45.872C102.346 46.352 102.89 46.88 103.69 47.456L100.186 50.48C99.1299 49.936 98.3299 49.36 97.7859 48.752C97.2419 48.112 96.8579 47.344 96.6339 46.448C95.8979 47.728 94.9379 48.736 93.7539 49.472C92.5699 50.208 91.1299 50.576 89.4339 50.576C86.9699 50.576 85.0659 49.904 83.7219 48.56C82.3779 47.184 81.7059 45.232 81.7059 42.704V27.44H86.9379V42.272C86.9379 43.584 87.2899 44.624 87.9939 45.392C88.6979 46.128 89.6899 46.496 90.9699 46.496C92.3139 46.496 93.4339 46.032 94.3299 45.104C95.2259 44.176 95.9139 42.944 96.3939 41.408V27.44H101.626V43.952ZM117.789 46.544C119.037 46.544 120.077 46.384 120.909 46.064C121.773 45.712 122.637 45.12 123.501 44.288L126.621 47.168C125.661 48.288 124.461 49.136 123.021 49.712C121.581 50.288 119.805 50.576 117.693 50.576C114.237 50.576 111.677 49.872 110.013 48.464C108.349 47.024 107.517 44.832 107.517 41.888V34.88C107.517 32.416 108.381 30.48 110.109 29.072C111.869 27.632 114.269 26.912 117.309 26.912C120.413 26.912 122.829 27.68 124.557 29.216C126.285 30.72 127.149 32.896 127.149 35.744C127.149 37.056 127.021 38.08 126.765 38.816C126.509 39.552 126.045 40.096 125.373 40.448C124.701 40.768 123.709 40.928 122.397 40.928H112.701V41.888C112.701 44.992 114.397 46.544 117.789 46.544ZM117.261 30.896C115.853 30.896 114.733 31.296 113.901 32.096C113.101 32.896 112.701 33.952 112.701 35.264V37.328H119.565C120.461 37.328 121.085 37.184 121.437 36.896C121.789 36.576 121.965 36.032 121.965 35.264C121.965 33.856 121.549 32.784 120.717 32.048C119.917 31.28 118.765 30.896 117.261 30.896ZM151.407 43.952C151.407 44.72 151.551 45.36 151.839 45.872C152.127 46.352 152.671 46.88 153.471 47.456L149.967 50.48C148.911 49.936 148.111 49.36 147.567 48.752C147.023 48.112 146.639 47.344 146.415 46.448C145.679 47.728 144.719 48.736 143.535 49.472C142.351 50.208 140.911 50.576 139.215 50.576C136.751 50.576 134.847 49.904 133.503 48.56C132.159 47.184 131.487 45.232 131.487 42.704V27.44H136.719V42.272C136.719 43.584 137.071 44.624 137.775 45.392C138.479 46.128 139.471 46.496 140.751 46.496C142.095 46.496 143.215 46.032 144.111 45.104C145.007 44.176 145.695 42.944 146.175 41.408V27.44H151.407V43.952ZM167.57 46.544C168.818 46.544 169.858 46.384 170.69 46.064C171.554 45.712 172.418 45.12 173.282 44.288L176.402 47.168C175.442 48.288 174.242 49.136 172.802 49.712C171.362 50.288 169.586 50.576 167.474 50.576C164.018 50.576 161.458 49.872 159.794 48.464C158.13 47.024 157.298 44.832 157.298 41.888V34.88C157.298 32.416 158.162 30.48 159.89 29.072C161.65 27.632 164.05 26.912 167.09 26.912C170.194 26.912 172.61 27.68 174.338 29.216C176.066 30.72 176.93 32.896 176.93 35.744C176.93 37.056 176.802 38.08 176.546 38.816C176.29 39.552 175.826 40.096 175.154 40.448C174.482 40.768 173.49 40.928 172.178 40.928H162.482V41.888C162.482 44.992 164.178 46.544 167.57 46.544ZM167.042 30.896C165.634 30.896 164.514 31.296 163.682 32.096C162.882 32.896 162.482 33.952 162.482 35.264V37.328H169.346C170.242 37.328 170.866 37.184 171.218 36.896C171.57 36.576 171.746 36.032 171.746 35.264C171.746 33.856 171.33 32.784 170.498 32.048C169.698 31.28 168.546 30.896 167.042 30.896Z" fill="#EAEAEA"/>
<rect y="30.2539" width="9" height="19.3446" fill="#34F5C5"/>
<rect x="12.1622" y="33.3824" width="9" height="16.2162" fill="#34F5C5"/>
<rect x="24" y="27" width="9" height="23" fill="#34F5C5"/>
<ellipse cx="4.51106" cy="23.3578" rx="3.75921" ry="3.75921" fill="#DDDDDD"/>
<ellipse cx="16.7322" cy="26.601" rx="3.75921" ry="3.75921" fill="#DDDDDD"/>
<ellipse cx="28.8943" cy="20.3578" rx="3.75921" ry="3.75921" fill="#DDDDDD"/>
</svg>
