<svg width="251" height="224" viewBox="0 0 251 224" fill="none" xmlns="http://www.w3.org/2000/svg">
<g clip-path="url(#clip0_315_9)">
<path d="M71.5538 39.944C77.7524 39.944 82.7774 34.9184 82.7774 28.719C82.7774 22.5196 77.7524 17.494 71.5538 17.494C65.3552 17.494 60.3302 22.5196 60.3302 28.719C60.3302 34.9184 65.3552 39.944 71.5538 39.944Z" fill="#D9D9D9"/>
<path d="M134.934 83.6784C141.133 83.6784 146.158 78.6528 146.158 72.4534C146.158 66.254 141.133 61.2284 134.934 61.2284C128.735 61.2284 123.711 66.254 123.711 72.4534C123.711 78.6528 128.735 83.6784 134.934 83.6784Z" fill="#D9D9D9"/>
<path d="M188.191 22.4501C194.39 22.4501 199.415 17.4245 199.415 11.2251C199.415 5.02573 194.39 0.00012207 188.191 0.00012207C181.993 0.00012207 176.968 5.02573 176.968 11.2251C176.968 17.4245 181.993 22.4501 188.191 22.4501Z" fill="#D9D9D9"/>
<path d="M3.08105 198.679C71.3514 168.394 56.3382 53.6267 69.7361 53.7308C78.1648 53.7974 85.6164 99.2312 89.1551 120.79C96.0653 162.917 90.6076 184.971 95.4535 185.35C105.282 186.121 125.498 95.1119 134.815 95.7991C144.028 96.478 137.949 186.508 145.313 187.017C154.89 187.679 174.569 38.2572 185.727 36.6536C198.557 34.8084 225.608 123.139 202.522 184.517C201.281 187.812 200.119 190.457 200.947 194.097C208.882 228.943 274.67 212.92 421.906 211.175" stroke="#34F5C5" stroke-width="11.6526" stroke-miterlimit="10"/>
<rect width="71.4195" height="68.4287" transform="matrix(0.521314 0.853365 -0.857679 0.514186 38.6898 127)" fill="#17222D"/>
<rect width="71.4195" height="96.9437" transform="matrix(-0.748546 0.663082 -0.656823 -0.754045 288.136 208.1)" fill="#17222D"/>
</g>
<defs>
<clipPath id="clip0_315_9">
<rect width="250.598" height="223.233" fill="white"/>
</clipPath>
</defs>
</svg>
