<svg width="308" height="323" viewBox="0 0 308 323" fill="none" xmlns="http://www.w3.org/2000/svg">
<path d="M237 118.5C237 183.946 183.946 237 118.5 237C53.0543 237 0 183.946 0 118.5C0 53.0543 53.0543 0 118.5 0C183.946 0 237 53.0543 237 118.5Z" fill="url(#paint0_linear_168_4)" fill-opacity="0.62"/>
<circle cx="228.5" cy="243.5" r="79.5" fill="#545353" fill-opacity="0.62"/>
<path d="M116.561 174.313C104.213 174.313 94.4813 169.416 87.3661 159.621C80.251 149.827 76.6934 137.962 76.6934 124.026C76.6934 109.996 80.134 98.1553 87.0151 88.5032C93.8962 78.8511 103.603 74.0299 116.134 74.0395C129.424 74.0395 139.437 79.1247 146.173 89.2951C152.909 99.4655 156.279 111.237 156.281 124.608C156.281 137.884 152.795 149.488 145.822 159.422C138.849 169.357 129.096 174.32 116.561 174.313ZM116.923 163.295C125.047 163.295 131.119 159.758 135.138 152.682C139.158 145.607 141.168 136.688 141.168 125.924C141.168 113.944 139.111 104.134 134.997 96.4944C130.883 88.8552 124.574 85.0344 116.069 85.0319C99.9039 85.0319 91.8212 97.8613 91.8212 123.52C91.8212 150.039 100.186 163.298 116.916 163.295H116.923ZM120.991 268.804H103.131L220.057 76.003H237.58L120.991 268.804ZM224.432 270.782C211.898 270.782 202.127 265.84 195.118 255.957C188.109 246.073 184.59 234.207 184.561 220.358C184.561 206.422 187.977 194.628 194.81 184.976C201.643 175.324 211.373 170.503 224.002 170.512C237.197 170.512 247.14 175.598 253.83 185.768C260.521 195.938 263.867 207.708 263.87 221.078C263.87 234.266 260.406 245.849 253.479 255.827C246.552 265.804 236.867 270.789 224.425 270.782H224.432ZM224.642 259.482C232.727 259.482 238.766 256.005 242.759 249.05C246.752 242.096 248.749 233.213 248.749 222.401C248.749 210.83 246.728 201.126 242.687 193.289C238.646 185.452 232.35 181.528 223.799 181.516C207.539 181.516 199.41 194.345 199.41 220.004C199.405 246.325 207.813 259.485 224.635 259.482H224.642Z" fill="#3F3D56"/>
<path d="M116.561 174.313C104.213 174.313 94.4813 169.416 87.3661 159.621C80.251 149.827 76.6934 137.962 76.6934 124.026C76.6934 109.996 80.134 98.1553 87.0151 88.5032C93.8962 78.8511 103.603 74.0299 116.134 74.0395C129.424 74.0395 139.437 79.1247 146.173 89.2951C152.909 99.4655 156.279 111.237 156.281 124.608C156.281 137.884 152.795 149.488 145.822 159.422C138.849 169.357 129.096 174.32 116.561 174.313ZM116.923 163.295C125.047 163.295 131.119 159.758 135.138 152.682C139.158 145.607 141.168 136.688 141.168 125.924C141.168 113.944 139.111 104.134 134.997 96.4944C130.883 88.8552 124.574 85.0344 116.069 85.0319C99.9039 85.0319 91.8212 97.8613 91.8212 123.52C91.8212 150.039 100.186 163.298 116.916 163.295H116.923ZM120.991 268.804H103.131L220.057 76.003H237.58L120.991 268.804ZM224.432 270.782C211.898 270.782 202.127 265.84 195.118 255.957C188.109 246.073 184.59 234.207 184.561 220.358C184.561 206.422 187.977 194.628 194.81 184.976C201.643 175.324 211.373 170.503 224.002 170.512C237.197 170.512 247.14 175.598 253.83 185.768C260.521 195.938 263.867 207.708 263.87 221.078C263.87 234.266 260.406 245.849 253.479 255.827C246.552 265.804 236.867 270.789 224.425 270.782H224.432ZM224.642 259.482C232.727 259.482 238.766 256.005 242.759 249.05C246.752 242.096 248.749 233.213 248.749 222.401C248.749 210.83 246.728 201.126 242.687 193.289C238.646 185.452 232.35 181.528 223.799 181.516C207.539 181.516 199.41 194.345 199.41 220.004C199.405 246.325 207.813 259.485 224.635 259.482H224.642Z" fill="#3F3D56"/>
<path opacity="0.15" d="M116.561 174.313C104.213 174.313 94.4813 169.416 87.3661 159.621C80.251 149.827 76.6934 137.962 76.6934 124.026C76.6934 109.996 80.134 98.1553 87.0151 88.5032C93.8962 78.8511 103.603 74.0299 116.134 74.0395C129.424 74.0395 139.437 79.1247 146.173 89.2951C152.909 99.4655 156.279 111.237 156.281 124.608C156.281 137.884 152.795 149.488 145.822 159.422C138.849 169.357 129.096 174.32 116.561 174.313ZM116.923 163.295C125.047 163.295 131.119 159.758 135.138 152.682C139.158 145.607 141.168 136.688 141.168 125.924C141.168 113.944 139.111 104.134 134.997 96.4944C130.883 88.8552 124.574 85.0344 116.069 85.0319C99.9039 85.0319 91.8212 97.8613 91.8212 123.52C91.8212 150.039 100.186 163.298 116.916 163.295H116.923ZM120.991 268.804H103.131L220.057 76.003H237.58L120.991 268.804ZM224.432 270.782C211.898 270.782 202.127 265.84 195.118 255.957C188.109 246.073 184.59 234.207 184.561 220.358C184.561 206.422 187.977 194.628 194.81 184.976C201.643 175.324 211.373 170.503 224.002 170.512C237.197 170.512 247.14 175.598 253.83 185.768C260.521 195.938 263.867 207.708 263.87 221.078C263.87 234.266 260.406 245.849 253.479 255.827C246.552 265.804 236.867 270.789 224.425 270.782H224.432ZM224.642 259.482C232.727 259.482 238.766 256.005 242.759 249.05C246.752 242.096 248.749 233.213 248.749 222.401C248.749 210.83 246.728 201.126 242.687 193.289C238.646 185.452 232.35 181.528 223.799 181.516C207.539 181.516 199.41 194.345 199.41 220.004C199.405 246.325 207.813 259.485 224.635 259.482H224.642Z" fill="#ABABAB"/>
<path d="M105.342 174.313C92.9937 174.313 83.262 169.416 76.1468 159.621C69.0317 149.827 65.4741 137.962 65.4741 124.026C65.4741 109.996 68.9147 98.1553 75.7958 88.5032C82.6769 78.8511 92.3833 74.0299 104.915 74.0395C118.204 74.0395 128.217 79.1247 134.954 89.2951C141.69 99.4655 145.059 111.237 145.062 124.608C145.062 137.884 141.575 149.488 134.603 159.422C127.63 169.357 117.876 174.32 105.342 174.313ZM105.704 163.295C113.828 163.295 119.899 159.758 123.919 152.682C127.939 145.607 129.948 136.688 129.948 125.924C129.948 113.944 127.891 104.134 123.778 96.4944C119.664 88.8552 113.355 85.0344 104.85 85.0319C88.6846 85.0319 80.6019 97.8613 80.6019 123.52C80.6019 150.039 88.9669 163.298 105.697 163.295H105.704ZM109.772 268.804H91.9116L208.837 76.003H226.361L109.772 268.804ZM213.213 270.782C200.679 270.782 190.907 265.84 183.898 255.957C176.889 246.073 173.37 234.207 173.341 220.358C173.341 206.422 176.758 194.628 183.591 184.976C190.423 175.324 200.154 170.503 212.782 170.512C225.977 170.512 235.92 175.598 242.611 185.768C249.301 195.938 252.648 207.708 252.65 221.078C252.65 234.266 249.187 245.849 242.26 255.827C235.333 265.804 225.648 270.789 213.206 270.782H213.213ZM213.423 259.482C221.508 259.482 227.547 256.005 231.54 249.05C235.533 242.096 237.53 233.213 237.53 222.401C237.53 210.83 235.509 201.126 231.468 193.289C227.426 185.452 221.128 181.528 212.572 181.516C196.313 181.516 188.183 194.345 188.183 220.004C188.183 246.325 196.594 259.485 213.416 259.482H213.423Z" fill="#DEDEDE"/>
<path d="M144.414 273.642C145.905 270.88 144.211 267.495 142.264 265.029C140.317 262.563 137.943 260.003 137.994 256.861C138.066 252.352 142.858 249.687 146.679 247.293C149.522 245.519 152.143 243.414 154.489 241.023C155.472 240.102 156.284 239.015 156.889 237.812C157.682 236.048 157.656 234.041 157.613 232.11C157.446 225.669 157.128 219.237 156.657 212.815" stroke="#3F3D56" stroke-width="4" stroke-miterlimit="10"/>
<path d="M163.939 212.461C163.884 211.283 163.534 210.137 162.92 209.13C162.306 208.122 161.448 207.286 160.425 206.697L158.847 209.814L158.894 206.039C158.141 205.819 157.357 205.725 156.574 205.761C155.183 205.826 153.842 206.302 152.721 207.128C151.601 207.955 150.75 209.095 150.278 210.404C149.806 211.713 149.733 213.133 150.068 214.483C150.404 215.834 151.132 217.055 152.162 217.992C153.192 218.929 154.477 219.54 155.854 219.747C157.232 219.955 158.639 219.75 159.9 219.157C161.161 218.565 162.217 217.613 162.936 216.421C163.655 215.229 164.004 213.851 163.939 212.461Z" fill="#34F5C5"/>
<path d="M151.381 260.097C150.642 261.532 149.432 262.669 147.953 263.318C146.475 263.967 144.818 264.088 143.26 263.661C141.703 263.235 140.34 262.286 139.399 260.974C138.459 259.663 137.999 258.068 138.095 256.458C138.192 254.847 138.84 253.319 139.931 252.129C141.021 250.939 142.488 250.16 144.085 249.922C145.683 249.685 147.313 250.003 148.703 250.824C150.093 251.645 151.159 252.918 151.721 254.431L147.32 258.007L152.17 256.879C152.168 257.999 151.897 259.103 151.381 260.097Z" fill="#34F5C5"/>
<path d="M147.903 246.425C146.979 246.469 146.055 246.33 145.185 246.016C144.315 245.703 143.515 245.221 142.831 244.599C142.147 243.977 141.593 243.226 141.199 242.39C140.806 241.554 140.581 240.648 140.538 239.725C140.483 238.623 140.691 237.523 141.146 236.518C141.567 235.578 142.188 234.741 142.967 234.067C143.746 233.393 144.664 232.898 145.655 232.616L145.615 235.509L147.211 232.356C149.077 232.268 150.902 232.925 152.283 234.182C153.664 235.438 154.489 237.192 154.576 239.056C154.664 240.92 154.006 242.743 152.749 244.123C151.491 245.503 149.736 246.327 147.87 246.414L147.903 246.425Z" fill="#34F5C5"/>
<path d="M164.999 235.06C164.064 235.122 163.127 234.998 162.241 234.693C161.355 234.389 160.538 233.911 159.839 233.287C159.14 232.664 158.573 231.907 158.17 231.062C157.768 230.217 157.538 229.3 157.494 228.365C157.45 227.43 157.593 226.495 157.915 225.616C158.237 224.737 158.731 223.931 159.369 223.245C160.007 222.559 160.775 222.007 161.628 221.621C162.482 221.235 163.404 221.024 164.341 220.998C165.657 220.934 166.964 221.244 168.112 221.891L166.867 225.297L169.429 222.842C170.804 224.095 171.626 225.841 171.713 227.698C171.745 228.35 171.684 229.002 171.532 229.637C171.182 231.127 170.354 232.464 169.175 233.442C167.997 234.421 166.53 234.989 164.999 235.06Z" fill="#34F5C5"/>
<path opacity="0.1" d="M162.991 214.338C161.366 214.515 159.788 215.021 158.156 215.122C156.523 215.223 154.732 214.833 153.7 213.564C153.143 212.884 152.868 212.02 152.398 211.275C151.953 210.581 151.344 210.009 150.624 209.608C150.172 210.5 149.916 211.478 149.871 212.477C149.827 213.475 149.997 214.472 150.368 215.4C150.74 216.329 151.305 217.167 152.027 217.86C152.748 218.553 153.609 219.084 154.552 219.418C155.495 219.753 156.498 219.882 157.496 219.799C158.493 219.715 159.461 219.421 160.335 218.934C161.209 218.447 161.969 217.78 162.565 216.977C163.161 216.174 163.579 215.253 163.791 214.276C163.523 214.291 163.259 214.309 162.991 214.338Z" fill="black"/>
<path opacity="0.1" d="M164.999 235.06C163.786 235.116 162.578 234.857 161.494 234.308C160.41 233.76 159.487 232.942 158.813 231.932C158.139 230.922 157.737 229.755 157.648 228.544C157.558 227.334 157.783 226.121 158.3 225.023C158.858 225.4 159.339 225.882 159.715 226.44C160.218 227.196 160.522 228.071 161.112 228.765C162.198 230.056 164.084 230.475 165.781 230.399C167.478 230.324 169.121 229.839 170.815 229.676C171.05 229.655 171.289 229.64 171.539 229.633C171.189 231.126 170.361 232.463 169.181 233.443C168 234.423 166.532 234.991 164.999 235.06Z" fill="black"/>
<path opacity="0.1" d="M147.903 246.425C146.979 246.469 146.055 246.33 145.185 246.016C144.315 245.703 143.515 245.221 142.831 244.599C142.147 243.977 141.593 243.226 141.199 242.39C140.806 241.554 140.581 240.648 140.538 239.725C140.483 238.623 140.691 237.523 141.146 236.518C141.727 236.904 142.231 237.394 142.633 237.964C143.18 238.734 143.524 239.624 144.164 240.336C145.351 241.656 147.349 242.122 149.148 242.079C150.946 242.036 152.571 241.616 154.305 241.482C153.875 242.864 153.03 244.079 151.885 244.963C150.739 245.848 149.349 246.358 147.903 246.425Z" fill="black"/>
<path opacity="0.1" d="M151.381 260.097C150.561 261.706 149.154 262.939 147.45 263.541C145.746 264.142 143.876 264.066 142.227 263.329C140.577 262.591 139.275 261.248 138.588 259.578C137.902 257.908 137.885 256.038 138.54 254.355C139.12 254.736 139.641 255.2 140.085 255.733C140.755 256.55 141.197 257.476 141.971 258.235C143.419 259.645 145.735 260.227 147.805 260.282C148.999 260.291 150.193 260.23 151.381 260.097Z" fill="black"/>
<path d="M253.349 273.281C254.84 270.518 253.146 267.134 251.199 264.668C249.252 262.202 246.878 259.641 246.928 256.499C247.001 251.99 251.793 249.325 255.614 246.932C258.457 245.157 261.078 243.053 263.424 240.661C264.407 239.74 265.219 238.653 265.824 237.451C266.616 235.686 266.591 233.679 266.548 231.748C266.381 225.307 266.063 218.876 265.592 212.454" stroke="#3F3D56" stroke-width="4" stroke-miterlimit="10"/>
<path d="M272.874 212.099C272.819 210.921 272.469 209.775 271.855 208.768C271.241 207.761 270.383 206.924 269.36 206.335L267.782 209.452L267.829 205.677C267.076 205.458 266.292 205.364 265.509 205.399C264.118 205.464 262.777 205.94 261.656 206.767C260.535 207.593 259.685 208.733 259.213 210.042C258.741 211.351 258.668 212.771 259.003 214.122C259.338 215.473 260.067 216.694 261.097 217.631C262.127 218.568 263.412 219.178 264.789 219.386C266.166 219.593 267.574 219.388 268.835 218.796C270.095 218.204 271.152 217.252 271.871 216.06C272.59 214.868 272.939 213.489 272.874 212.099Z" fill="#34F5C5"/>
<path d="M260.315 259.735C259.577 261.17 258.366 262.307 256.888 262.956C255.409 263.605 253.753 263.726 252.195 263.3C250.638 262.873 249.275 261.924 248.334 260.613C247.394 259.301 246.933 257.706 247.03 256.096C247.127 254.485 247.775 252.957 248.865 251.767C249.956 250.577 251.423 249.798 253.02 249.561C254.617 249.323 256.248 249.642 257.638 250.462C259.028 251.283 260.094 252.557 260.656 254.069L256.255 257.645L261.104 256.517C261.102 257.638 260.832 258.741 260.315 259.735Z" fill="#34F5C5"/>
<path d="M256.838 246.064C255.914 246.107 254.99 245.968 254.12 245.655C253.25 245.341 252.45 244.86 251.766 244.238C251.082 243.615 250.528 242.865 250.134 242.028C249.741 241.192 249.516 240.287 249.473 239.363C249.418 238.261 249.626 237.162 250.081 236.156C250.501 235.216 251.123 234.38 251.902 233.706C252.681 233.031 253.599 232.536 254.59 232.254L254.55 235.147L256.146 231.994H256.164C257.088 231.951 258.012 232.09 258.882 232.403C259.752 232.717 260.552 233.198 261.236 233.82C261.92 234.443 262.474 235.193 262.868 236.029C263.261 236.866 263.486 237.771 263.529 238.694C263.573 239.618 263.433 240.54 263.12 241.41C262.806 242.279 262.324 243.078 261.702 243.761C261.079 244.445 260.327 244.999 259.49 245.392C258.653 245.785 257.747 246.01 256.823 246.053L256.838 246.064Z" fill="#34F5C5"/>
<path d="M273.934 234.699C272.999 234.761 272.061 234.636 271.175 234.332C270.289 234.027 269.473 233.549 268.774 232.926C268.075 232.302 267.508 231.546 267.105 230.7C266.702 229.855 266.472 228.938 266.429 228.003C266.385 227.068 266.528 226.134 266.85 225.255C267.172 224.375 267.666 223.569 268.304 222.883C268.941 222.197 269.71 221.645 270.563 221.26C271.417 220.874 272.339 220.662 273.276 220.636C274.592 220.572 275.899 220.882 277.047 221.53L275.802 224.936L278.364 222.481C279.739 223.733 280.561 225.48 280.648 227.337C280.68 227.988 280.619 228.641 280.467 229.275C280.116 230.766 279.289 232.102 278.11 233.081C276.931 234.06 275.465 234.628 273.934 234.699Z" fill="#34F5C5"/>
<path opacity="0.1" d="M271.926 213.976C270.301 214.153 268.723 214.659 267.09 214.761C265.458 214.862 263.667 214.471 262.635 213.202C262.078 212.522 261.803 211.658 261.332 210.913C260.888 210.22 260.279 209.647 259.559 209.246C259.107 210.138 258.85 211.116 258.806 212.115C258.762 213.114 258.931 214.11 259.303 215.039C259.675 215.967 260.24 216.805 260.962 217.498C261.683 218.191 262.544 218.722 263.487 219.057C264.43 219.391 265.433 219.521 266.431 219.437C267.428 219.354 268.396 219.059 269.27 218.572C270.144 218.086 270.904 217.419 271.5 216.616C272.096 215.812 272.514 214.892 272.725 213.914C272.458 213.929 272.193 213.947 271.926 213.976Z" fill="black"/>
<path opacity="0.1" d="M273.934 234.699C272.721 234.754 271.513 234.495 270.429 233.947C269.345 233.399 268.422 232.58 267.748 231.57C267.074 230.56 266.672 229.393 266.583 228.183C266.493 226.972 266.718 225.759 267.235 224.661C267.793 225.039 268.274 225.52 268.65 226.078C269.153 226.834 269.457 227.709 270.047 228.403C271.133 229.694 273.019 230.114 274.716 230.038C276.413 229.962 278.056 229.477 279.75 229.315C279.985 229.293 280.224 229.279 280.474 229.271C280.124 230.764 279.296 232.102 278.116 233.081C276.935 234.061 275.467 234.629 273.934 234.699Z" fill="black"/>
<path opacity="0.1" d="M256.838 246.064C255.914 246.107 254.99 245.968 254.12 245.655C253.25 245.341 252.45 244.86 251.766 244.238C251.082 243.615 250.528 242.865 250.134 242.028C249.741 241.192 249.516 240.286 249.473 239.363C249.418 238.261 249.626 237.162 250.081 236.156C250.661 236.543 251.166 237.033 251.568 237.602C252.115 238.373 252.459 239.262 253.099 239.974C254.286 241.294 256.284 241.761 258.083 241.717C259.827 241.681 261.506 241.255 263.24 241.121C262.81 242.502 261.965 243.717 260.82 244.602C259.674 245.486 258.284 245.997 256.838 246.064Z" fill="black"/>
<path opacity="0.1" d="M260.316 259.736C259.496 261.345 258.089 262.578 256.385 263.179C254.681 263.781 252.811 263.705 251.161 262.967C249.512 262.229 248.21 260.887 247.523 259.216C246.837 257.546 246.82 255.676 247.475 253.993C248.055 254.375 248.575 254.839 249.02 255.371C249.69 256.188 250.131 257.114 250.906 257.873C252.353 259.284 254.67 259.866 256.74 259.92C257.934 259.93 259.128 259.868 260.316 259.736Z" fill="black"/>
<path d="M113.083 234.695C113.09 233.819 112.891 232.952 112.503 232.166C112.115 231.38 111.547 230.696 110.847 230.168C110.76 226.852 108.393 224.144 105.349 223.724C105.114 222.598 104.586 221.553 103.819 220.695C103.052 219.837 102.071 219.196 100.977 218.836C100.711 218.751 100.439 218.687 100.163 218.644H100.084L99.9424 218.626H99.8229H99.7035H99.5479H99.4538H99.1968C96.0916 218.626 93.5076 220.998 92.9756 224.126C90.967 223.663 89.1249 224.263 88.7955 225.532C88.7105 225.869 88.7294 226.223 88.8498 226.549C89.19 227.532 90.2975 228.472 91.7994 228.939L91.9948 228.997C92.0925 229.025 92.1902 229.047 92.288 229.069H92.3531C91.8009 230.245 91.7226 231.588 92.1342 232.821C92.5458 234.053 93.4159 235.08 94.5644 235.69C94.5191 235.714 94.4756 235.742 94.4341 235.773C94.2486 235.943 94.1007 236.15 93.9998 236.38C93.6369 237.016 93.3549 237.696 93.1602 238.402C93.0154 239.005 92.9901 239.638 92.7983 240.235C92.4689 241.32 91.6221 242.271 91.5243 243.424C91.4809 243.938 91.5642 244.541 91.1986 244.892C91.1076 244.97 91.0108 245.042 90.9091 245.105C90.6528 245.281 90.4359 245.507 90.2721 245.771C90.1655 245.989 90.0223 246.187 89.8487 246.357C89.5194 246.606 88.9765 246.581 88.8136 246.964C88.6508 247.347 89.0706 247.799 88.9729 248.219C88.8933 248.559 88.5205 248.714 88.2491 248.942C87.9455 249.271 87.7334 249.674 87.6338 250.11C87.0932 250.214 86.5362 250.198 86.0025 250.062C85.4689 249.927 84.9718 249.675 84.5467 249.325C84.6925 249.698 84.7992 250.084 84.8652 250.479C84.4345 250.02 83.7252 249.886 83.2004 249.647C82.5236 249.337 81.9194 248.889 81.4271 248.331L82.3753 248.201L78.1771 241.837L76.9394 241.584L78.0504 243.713C77.9595 243.757 77.8797 243.821 77.817 243.9C77.7543 243.978 77.7104 244.071 77.6885 244.169C77.6287 244.405 77.614 244.65 77.6451 244.892C77.7039 245.463 77.7994 246.029 77.931 246.588L78.2531 248.085C78.2804 248.225 78.3154 248.364 78.3581 248.501C77.9384 248.486 77.5187 248.533 77.1131 248.642C76.2809 248.334 75.4144 248.129 74.5327 248.031C74.3387 247.997 74.1396 248.007 73.95 248.06C73.7349 248.159 73.5482 248.311 73.4071 248.501C72.6832 249.337 72.041 250.24 71.489 251.198C69.2343 255.118 66.2232 258.539 63.4039 262.082C61.4569 262.874 59.4953 263.626 57.5302 264.371L53.3067 265.98C52.4634 266.302 51.5876 266.631 50.6901 266.573C50.2847 266.548 49.7925 266.486 49.5645 266.83C49.4535 267 49.367 267.185 49.3076 267.38C49.1592 267.38 49.0108 267.416 48.8733 267.423H48.8479C48.5801 266.758 48.3485 266.045 47.8346 265.561C47.7312 265.577 47.6333 265.618 47.5499 265.681C47.4665 265.744 47.4002 265.827 47.3569 265.922C47.2555 266.11 47.194 266.316 47.0782 266.49C46.8502 266.823 46.4557 266.985 46.1734 267.267C45.8911 267.55 45.7138 267.991 45.4098 268.265C44.9841 268.575 44.4852 268.768 43.9622 268.826C43.1787 269.01 42.423 269.297 41.7147 269.679C41.4535 269.84 41.1741 269.968 40.8823 270.063C40.5615 270.124 40.233 270.135 39.9088 270.095L37.6722 269.932C37.4731 269.906 37.2711 269.915 37.075 269.958C36.8446 270.042 36.6486 270.2 36.5177 270.408C36.3868 270.615 36.3282 270.86 36.3512 271.104C36.3784 271.346 36.4551 271.58 36.5765 271.792C36.6979 272.003 36.8614 272.188 37.0569 272.333C37.4452 272.618 37.8748 272.841 38.3308 272.995C40.2744 273.747 42.278 274.334 44.3204 274.749V275.201C45.7361 275.913 47.299 276.285 48.8841 276.286C49.0009 276.295 49.1181 276.274 49.2243 276.224C49.3708 276.114 49.4724 275.955 49.5102 275.776C49.9848 274.358 50.285 272.887 50.4042 271.397C50.6836 271.379 50.9573 271.309 51.2112 271.191C51.9821 270.981 52.7457 271.509 53.5383 271.596C54.5154 271.701 55.4238 271.133 56.3467 270.782C56.4806 270.732 56.6145 270.688 56.7484 270.645C56.4852 270.985 56.1744 271.286 55.8256 271.538C55.4419 271.813 55.0113 272.015 54.6349 272.301C54.3221 272.586 53.9868 272.846 53.6324 273.078C53.3825 273.195 53.1249 273.294 52.8615 273.375C52.4796 273.514 52.1152 273.697 51.7758 273.921C51.4718 274.1 51.214 274.347 51.023 274.644C50.9269 274.782 50.8677 274.943 50.8513 275.111C50.8349 275.278 50.8617 275.448 50.9291 275.602C50.9966 275.756 51.1025 275.891 51.2368 275.993C51.371 276.095 51.5292 276.161 51.6962 276.184C51.9985 276.238 52.307 276.247 52.6118 276.21C53.8206 276.119 55.0257 276.007 56.2309 275.899C56.7411 275.865 57.248 275.792 57.7473 275.682C58.0115 275.617 58.2721 275.53 58.5363 275.461C58.987 275.342 59.4494 275.273 59.9151 275.255C60.0504 275.244 60.1864 275.258 60.3169 275.295C60.5992 275.385 60.7982 275.656 61.0841 275.729C61.2697 275.747 61.457 275.721 61.6306 275.653C62.5128 275.461 63.4132 275.366 64.316 275.367C64.7104 275.345 65.1737 275.27 65.3583 274.904C65.5826 274.452 65.2063 273.946 65.0579 273.458C64.9823 273.148 64.941 272.83 64.9348 272.511C64.866 271.723 64.6395 270.957 64.2689 270.258C64.0719 269.932 63.9059 269.588 63.7731 269.231C65.5025 268.574 67.1573 267.735 68.7096 266.729C69.5998 266.175 70.5191 265.579 71.5252 265.376C72.6978 265.141 73.9066 265.452 75.0611 265.785C77.811 266.58 80.516 267.523 83.1642 268.609C84.4309 269.126 85.6976 269.676 86.9932 270.055C87.372 270.566 87.8302 271.013 88.3504 271.379C89.219 271.939 90.2794 272.102 91.3 272.182C92.6787 272.307 94.0632 272.359 95.4475 272.337C96.5042 272.319 97.5936 272.247 98.5382 271.766C98.7689 271.647 98.9861 271.504 99.186 271.339C99.9098 271.469 100.652 271.082 101.22 270.587C101.972 269.948 102.514 269.097 102.776 268.146C103.109 266.841 102.852 265.319 103.656 264.252C103.869 263.966 104.148 263.735 104.358 263.445C104.616 263.058 104.743 262.598 104.72 262.133L104.756 262.079C104.938 261.659 105.059 261.216 105.118 260.762C105.213 260.408 105.334 260.061 105.48 259.725C105.888 258.716 106.243 257.686 106.544 256.64C106.753 255.946 106.917 255.24 107.036 254.525C107.123 253.954 107.173 253.379 107.22 252.804C107.278 251.904 107.454 251.015 107.742 250.161C108.456 248.121 108.86 245.985 108.939 243.825C108.939 243.782 108.939 243.742 108.939 243.699C109.99 243.584 110.96 243.081 111.66 242.289C112.359 241.498 112.738 240.474 112.721 239.418C112.722 238.781 112.589 238.152 112.331 237.57C112.83 236.694 113.09 235.703 113.083 234.695ZM92.6173 259.54C92.6788 259.761 92.7512 259.981 92.8236 260.202C92.4907 259.873 92.1613 259.533 91.8247 259.208C91.9586 259.247 92.0925 259.291 92.2228 259.338C92.3616 259.393 92.4949 259.46 92.6209 259.54H92.6173ZM90.9959 258.455C89.0199 256.742 86.7326 255.411 84.7096 253.755C85.7953 254.301 86.881 254.934 87.9668 255.541C89.231 256.264 90.5098 256.956 91.803 257.617C91.5909 257.938 91.3209 258.218 91.0068 258.441L90.9959 258.455ZM91.8392 254.138L91.9333 254.04C91.9333 254.283 91.9333 254.51 91.9333 254.717C91.756 254.659 91.5714 254.601 91.4013 254.536C91.5576 254.408 91.7051 254.271 91.8428 254.124L91.8392 254.138ZM74.4422 258.781C75.2559 257.861 75.9637 256.853 76.5521 255.776C77.3339 257.147 78.6078 258.134 79.6935 259.28C77.9491 259.034 76.2011 258.842 74.4458 258.766L74.4422 258.781Z" fill="url(#paint1_linear_168_4)"/>
<path d="M77.2652 242.111L78.5138 242.365L82.7662 248.642L80.8879 248.895L77.2652 242.111Z" fill="#2F2E41"/>
<path d="M47.0276 267.589C47.3643 268.702 47.7791 269.789 48.269 270.844C49.678 270.549 51.0641 270.154 52.4165 269.661C52.1547 269.254 51.867 268.864 51.5551 268.493C51.2227 268.124 50.8252 267.819 50.3826 267.593C49.9519 267.405 49.4199 267.546 48.9603 267.571C48.3161 267.595 47.6718 267.601 47.0276 267.589Z" fill="#FBBEBE"/>
<path d="M50.3898 269.267C49.6877 269.046 49.257 268.338 48.9711 267.654C48.6851 266.971 48.4535 266.226 47.9107 265.723C47.8073 265.74 47.7096 265.781 47.6263 265.844C47.5429 265.907 47.4765 265.99 47.4329 266.085C47.328 266.266 47.2665 266.472 47.147 266.646C46.9227 266.971 46.5246 267.13 46.2386 267.408C45.9527 267.687 45.7754 268.11 45.4678 268.388C45.041 268.695 44.5425 268.887 44.0201 268.945C43.2312 269.124 42.4695 269.406 41.7546 269.784C41.49 269.937 41.2081 270.059 40.915 270.146C40.5917 270.207 40.2608 270.218 39.9342 270.178L37.6795 270.016C37.479 269.991 37.2758 270 37.0787 270.045C36.849 270.124 36.6528 270.279 36.5216 270.484C36.3903 270.688 36.3316 270.931 36.3549 271.173C36.3848 271.414 36.4646 271.646 36.5892 271.854C36.7138 272.063 36.8805 272.243 37.0787 272.384C37.4707 272.664 37.9026 272.883 38.3599 273.035C40.3243 273.773 42.3456 274.35 44.4038 274.76V275.204C45.8342 275.912 47.4076 276.283 49.0036 276.289C49.1276 276.3 49.2522 276.279 49.3655 276.228C49.5122 276.12 49.615 275.964 49.6551 275.787C50.196 274.207 50.5116 272.558 50.5924 270.891C50.6339 270.469 50.6021 270.043 50.4983 269.632C50.3753 269.227 50.7951 269.397 50.4042 269.238" fill="#2F2E41"/>
<path d="M93.6162 260.777C86.9317 261.182 80.3305 259.222 73.6352 259.012C72.8042 258.962 71.9702 259.015 71.1525 259.171C70.3 259.4 69.4748 259.72 68.6915 260.126C65.105 261.793 61.3918 263.174 57.6822 264.556L53.4261 266.139C52.572 266.454 51.6926 266.776 50.7842 266.721C50.3788 266.696 49.883 266.635 49.6514 266.975C48.9602 267.998 49.2895 269.506 49.7455 270.656C49.8939 271.017 50.1436 271.433 50.5417 271.476C50.8233 271.457 51.0992 271.387 51.356 271.27C52.1305 271.064 52.905 271.585 53.7012 271.668C54.6892 271.773 55.6048 271.212 56.5349 270.869C58.0767 270.301 59.7632 270.319 61.3845 270.048C64.1061 269.596 66.625 268.334 68.9846 266.895C69.8822 266.349 70.7942 265.763 71.822 265.564C73.0054 265.333 74.2251 265.637 75.3868 265.966C78.1564 266.749 80.8829 267.677 83.5551 268.746C84.946 269.35 86.3721 269.869 87.8257 270.301C90.9936 271.135 94.3448 270.94 97.3946 269.744C98.4803 269.321 99.6239 268.576 99.6854 267.423C99.7216 266.765 99.2113 266.186 98.8711 265.615C98.6504 265.253 98.4332 264.892 98.1944 264.548C97.0435 262.871 95.6465 260.654 93.6162 260.777Z" fill="#2F2E41"/>
<path opacity="0.1" d="M93.6162 260.777C86.9317 261.182 80.3305 259.222 73.6352 259.012C72.8042 258.962 71.9702 259.015 71.1525 259.171C70.3 259.4 69.4748 259.72 68.6915 260.126C65.105 261.793 61.3918 263.174 57.6822 264.556L53.4261 266.139C52.572 266.454 51.6926 266.776 50.7842 266.721C50.3788 266.696 49.883 266.635 49.6514 266.975C48.9602 267.998 49.2895 269.506 49.7455 270.656C49.8939 271.017 50.1436 271.433 50.5417 271.476C50.8233 271.457 51.0992 271.387 51.356 271.27C52.1305 271.064 52.905 271.585 53.7012 271.668C54.6892 271.773 55.6048 271.212 56.5349 270.869C58.0767 270.301 59.7632 270.319 61.3845 270.048C64.1061 269.596 66.625 268.334 68.9846 266.895C69.8822 266.349 70.7942 265.763 71.822 265.564C73.0054 265.333 74.2251 265.637 75.3868 265.966C78.1564 266.749 80.8829 267.677 83.5551 268.746C84.946 269.35 86.3721 269.869 87.8257 270.301C90.9936 271.135 94.3448 270.94 97.3946 269.744C98.4803 269.321 99.6239 268.576 99.6854 267.423C99.7216 266.765 99.2113 266.186 98.8711 265.615C98.6504 265.253 98.4332 264.892 98.1944 264.548C97.0435 262.871 95.6465 260.654 93.6162 260.777Z" fill="black"/>
<path d="M59.8572 267.915C60.9044 268.269 61.9587 268.597 63.0203 268.898C63.6175 267.918 64.7322 267.239 64.9855 266.121C64.9999 266.073 64.9999 266.021 64.9855 265.973C64.9578 265.925 64.9161 265.888 64.8661 265.865C64.1031 265.444 63.2566 265.197 62.387 265.141C61.6994 265.098 61.3881 265.814 61.0769 266.316C60.9683 266.519 60.1359 268.009 59.8572 267.915Z" fill="#FBBEBE"/>
<path d="M61.3302 267.199C61.0177 267.147 60.7195 267.03 60.4546 266.857C60.1898 266.683 59.9641 266.456 59.7921 266.19C59.6438 265.933 59.4881 265.586 59.1914 265.604C58.8946 265.622 58.7933 265.948 58.7317 266.219C58.5313 267.232 58.2419 268.225 57.8668 269.188C57.4885 270.153 56.848 270.993 56.0174 271.614C55.6302 271.881 55.1995 272.084 54.8195 272.366C54.5028 272.648 54.1639 272.904 53.8062 273.132C53.5541 273.248 53.2941 273.344 53.028 273.422C52.6381 273.558 52.2652 273.739 51.917 273.961C51.6117 274.139 51.3527 274.387 51.1606 274.684C51.068 274.834 51.0136 275.005 51.0022 275.182C50.9909 275.358 51.0229 275.535 51.0954 275.696C51.1734 275.827 51.2782 275.94 51.403 276.028C51.5277 276.116 51.6695 276.177 51.8193 276.206C52.1243 276.257 52.435 276.264 52.7421 276.228C53.9618 276.137 55.1778 276.029 56.3938 275.92C56.9086 275.889 57.4203 275.818 57.9247 275.711C58.1925 275.646 58.4531 275.559 58.7173 275.49C59.1733 275.374 59.6403 275.306 60.1106 275.288C60.247 275.277 60.3842 275.291 60.516 275.327C60.7982 275.418 60.9973 275.689 61.2868 275.754C61.4733 275.773 61.6618 275.749 61.8369 275.682C62.727 275.494 63.6343 275.399 64.544 275.4C64.9421 275.378 65.4126 275.302 65.5936 274.944C65.8216 274.499 65.4452 274 65.2932 273.523C65.2181 273.217 65.1756 272.905 65.1665 272.59C65.098 271.813 64.8701 271.059 64.497 270.374C64.1857 269.802 63.7731 269.173 63.9794 268.566C64.0904 268.376 64.1606 268.165 64.1857 267.947C64.1351 266.967 61.8804 267.329 61.3302 267.199Z" fill="#2F2E41"/>
<path d="M83.595 250.067C82.4108 249.544 81.462 248.603 80.9313 247.423C80.8227 247.17 80.7286 246.906 80.6237 246.649C80.2714 245.801 79.7262 245.046 79.0313 244.444C78.9569 244.362 78.8656 244.297 78.7638 244.254C78.6619 244.211 78.5519 244.191 78.4414 244.194C78.3344 244.226 78.2379 244.286 78.1616 244.367C78.0853 244.448 78.032 244.548 78.0071 244.657C77.9451 244.893 77.9291 245.138 77.96 245.38C78.0219 245.941 78.1185 246.498 78.2496 247.047L78.5753 248.523C78.6164 248.749 78.6844 248.97 78.778 249.181C78.9172 249.428 79.1013 249.648 79.3208 249.828C79.6176 250.103 79.918 250.367 80.222 250.623C80.3895 250.775 80.5727 250.908 80.7685 251.021C81.0896 251.173 81.4328 251.273 81.7854 251.318C83.1136 251.564 84.4636 251.918 85.5819 252.764C85.5819 252.764 85.5819 251.777 85.5565 251.679C85.543 251.393 85.4447 251.118 85.2742 250.887C84.8544 250.435 84.1306 250.302 83.595 250.067Z" fill="#FBBEBE"/>
<path opacity="0.1" d="M83.595 250.067C82.4108 249.544 81.462 248.603 80.9313 247.423C80.8227 247.17 80.7286 246.906 80.6237 246.649C80.2714 245.801 79.7262 245.046 79.0313 244.444C78.9569 244.362 78.8656 244.297 78.7638 244.254C78.6619 244.211 78.5519 244.191 78.4414 244.194C78.3344 244.226 78.2379 244.286 78.1616 244.367C78.0853 244.448 78.032 244.548 78.0071 244.657C77.9451 244.893 77.9291 245.138 77.96 245.38C78.0219 245.941 78.1185 246.498 78.2496 247.047L78.5753 248.523C78.6164 248.749 78.6844 248.97 78.778 249.181C78.9172 249.428 79.1013 249.648 79.3208 249.828C79.6176 250.103 79.918 250.367 80.222 250.623C80.3895 250.775 80.5727 250.908 80.7685 251.021C81.0896 251.173 81.4328 251.273 81.7854 251.318C83.1136 251.564 84.4636 251.918 85.5819 252.764C85.5819 252.764 85.5819 251.777 85.5565 251.679C85.543 251.393 85.4447 251.118 85.2742 250.887C84.8544 250.435 84.1306 250.302 83.595 250.067Z" fill="black"/>
<path d="M97.2028 238.785C98.1002 238.785 98.8278 238.053 98.8278 237.15C98.8278 236.248 98.1002 235.516 97.2028 235.516C96.3053 235.516 95.5778 236.248 95.5778 237.15C95.5778 238.053 96.3053 238.785 97.2028 238.785Z" fill="#2F2E41"/>
<path d="M96.1967 236.163C95.7603 236.064 95.3026 236.13 94.9119 236.348C94.7241 236.514 94.5747 236.718 94.474 236.948C94.1084 237.572 93.8239 238.241 93.6271 238.937C93.4823 239.533 93.457 240.155 93.2652 240.745C92.9322 241.829 92.0781 242.751 91.9804 243.883C91.937 244.389 92.0202 244.986 91.6511 245.33C91.5593 245.406 91.4613 245.475 91.3579 245.536C91.1008 245.708 90.8827 245.932 90.7174 246.194C90.6068 246.429 90.4534 246.641 90.265 246.819C89.932 247.065 89.3855 247.04 89.2227 247.42C89.0598 247.799 89.4796 248.24 89.3819 248.653C89.3023 248.989 88.9259 249.144 88.6581 249.376C88.353 249.699 88.1394 250.097 88.0392 250.529C87.4956 250.632 86.9362 250.615 86.3996 250.481C85.8629 250.347 85.3618 250.098 84.9304 249.752C85.3828 250.869 85.3936 252.102 85.4117 253.306C85.4639 253.692 85.3611 254.082 85.1258 254.391C86.4215 254.42 87.6809 254.753 88.944 255.053C89.4842 255.234 90.0686 255.234 90.6088 255.053C90.8975 254.897 91.1562 254.692 91.3724 254.445C92.06 253.748 92.7802 252.999 92.9467 252.026C92.9908 251.479 93.0004 250.93 92.9757 250.381C93.0421 249.704 93.1817 249.036 93.3919 248.389C93.7553 247.045 93.9976 245.672 94.1157 244.285C94.1917 243.428 94.93 242.741 95.3208 241.974C96.0447 240.528 96.8047 239.027 96.8626 237.407C96.9132 236.879 96.7323 236.232 96.1967 236.163Z" fill="#2F2E41"/>
<path opacity="0.1" d="M96.2663 237.045C95.8299 236.946 95.3722 237.012 94.9815 237.23C94.7937 237.396 94.6443 237.6 94.5436 237.83C94.178 238.454 93.8934 239.123 93.6967 239.819C93.5519 240.415 93.5266 241.037 93.3348 241.627C93.0018 242.711 92.1477 243.633 92.05 244.765C92.0066 245.271 92.0898 245.868 91.7207 246.212C91.6289 246.288 91.5308 246.357 91.4275 246.418C91.1704 246.59 90.9522 246.814 90.7869 247.076C90.6764 247.311 90.523 247.523 90.3345 247.701C90.0016 247.947 89.4551 247.922 89.2922 248.302C89.1294 248.681 89.5492 249.122 89.4515 249.535C89.3719 249.871 88.9955 250.026 88.7277 250.258C88.4226 250.581 88.209 250.979 88.1088 251.411C87.5652 251.514 87.0058 251.497 86.4692 251.363C85.9325 251.229 85.4313 250.98 85 250.634C85.4524 251.751 85.4632 252.984 85.4813 254.188C85.5335 254.573 85.4307 254.964 85.1954 255.273C86.4911 255.302 87.7505 255.635 89.0136 255.935C89.5537 256.116 90.1382 256.116 90.6784 255.935C90.9671 255.779 91.2257 255.574 91.442 255.327C92.1296 254.629 92.8498 253.881 93.0163 252.908C93.0603 252.361 93.07 251.812 93.0452 251.263C93.1117 250.586 93.2512 249.918 93.4615 249.271C93.8249 247.927 94.0672 246.553 94.1853 245.167C94.2613 244.31 94.9996 243.623 95.3904 242.856C96.1142 241.41 96.8742 239.909 96.9322 238.289C96.9828 237.761 96.8019 237.114 96.2663 237.045Z" fill="black"/>
<path d="M94.6766 262.183C93.2832 261.522 92.2663 260.289 91.1407 259.233C88.991 257.215 86.3635 255.791 84.1052 253.899C82.6105 252.648 81.2715 251.191 79.6248 250.142C78.1765 249.219 76.534 248.644 74.8258 248.461C74.6307 248.427 74.4304 248.437 74.2395 248.49C74.0238 248.586 73.8359 248.736 73.6931 248.924C72.9634 249.745 72.315 250.635 71.7568 251.582C68.8941 256.434 64.8299 260.517 61.4605 265.033C61.3524 265.139 61.2884 265.282 61.281 265.434C61.2736 265.585 61.3235 265.734 61.4207 265.85L62.1047 267.192C62.4883 267.94 63.1036 268.815 63.9143 268.667C64.2862 268.56 64.6192 268.348 64.8733 268.056L67.9495 265.116L71.1742 262.035C73.0633 260.227 74.9851 258.383 76.2192 256.076C77.1819 257.743 78.8901 258.835 80.0627 260.365C80.5078 260.943 80.8697 261.583 81.2678 262.198C81.9084 263.185 82.6322 264.111 83.356 265.033L87.0584 269.752C87.5255 270.424 88.1045 271.011 88.7702 271.487C89.646 272.041 90.7137 272.189 91.7451 272.279C93.1347 272.406 94.5301 272.456 95.9252 272.431C96.9892 272.413 98.0966 272.344 99.0376 271.871C99.9786 271.397 100.778 270.424 100.728 269.365C100.67 268.81 100.488 268.274 100.196 267.799C98.8892 265.376 97.1593 263.351 94.6766 262.183Z" fill="#2F2E41"/>
<path d="M98.2016 239.537C98.8912 239.537 99.4502 238.975 99.4502 238.282C99.4502 237.589 98.8912 237.027 98.2016 237.027C97.512 237.027 96.953 237.589 96.953 238.282C96.953 238.975 97.512 239.537 98.2016 239.537Z" fill="#E8E8F0"/>
<path d="M97.9265 237.338C98.2087 237.9 98.2581 238.549 98.0641 239.146C97.8711 239.734 97.6009 240.293 97.2606 240.81C96.9678 241.343 96.617 241.843 96.2147 242.3C98.1437 242.394 100.015 241.638 101.716 240.719C103.087 239.996 104.455 239.074 105.186 237.696C104.969 237.748 104.743 237.754 104.523 237.714C104.303 237.673 104.094 237.587 103.909 237.461C103.541 237.205 103.211 236.898 102.928 236.55L101.962 235.465C101.734 235.227 101.533 234.964 101.365 234.681C101.153 234.296 101.064 233.856 101.108 233.419C100.723 233.821 100.293 234.178 99.8266 234.482C99.1353 234.934 98.3789 235.259 97.6805 235.704C97.4344 235.863 96.8879 236.12 97.029 236.427C97.1702 236.735 97.7311 236.991 97.9265 237.338Z" fill="#FBBEBE"/>
<path opacity="0.1" d="M97.9265 237.338C98.2087 237.9 98.2581 238.549 98.0641 239.146C97.8711 239.734 97.6009 240.293 97.2606 240.81C96.9678 241.343 96.617 241.843 96.2147 242.3C98.1437 242.394 100.015 241.638 101.716 240.719C103.087 239.996 104.455 239.074 105.186 237.696C104.969 237.748 104.743 237.754 104.523 237.714C104.303 237.673 104.094 237.587 103.909 237.461C103.541 237.205 103.211 236.898 102.928 236.55L101.962 235.465C101.734 235.227 101.533 234.964 101.365 234.681C101.153 234.296 101.064 233.856 101.108 233.419C100.723 233.821 100.293 234.178 99.8266 234.482C99.1353 234.934 98.3789 235.259 97.6805 235.704C97.4344 235.863 96.8879 236.12 97.029 236.427C97.1702 236.735 97.7311 236.991 97.9265 237.338Z" fill="black"/>
<path d="M97.9519 237.526C97.7568 237.802 97.6521 238.131 97.6521 238.468C97.6521 238.806 97.7568 239.135 97.9519 239.41C98.0062 239.479 98.2125 239.909 98.3138 239.913C98.3992 239.906 98.4784 239.866 98.5346 239.801C98.9718 239.344 99.3803 238.861 99.7578 238.355C100.139 237.841 100.691 237.48 101.314 237.335C102.07 237.215 102.798 237.617 103.46 238C103.745 238.141 103.993 238.347 104.184 238.6C104.324 238.852 104.406 239.131 104.426 239.418C104.617 241.142 104.689 242.876 104.644 244.61C104.679 245.86 104.596 247.111 104.398 248.345C104.274 248.982 104.09 249.604 104.003 250.247C103.94 250.814 103.914 251.384 103.927 251.954V254.341C103.911 254.778 103.943 255.215 104.021 255.646C104.171 256.159 104.346 256.665 104.546 257.161C104.722 257.751 104.843 258.356 104.908 258.969L105.234 261.439C105.338 262.22 105.414 263.069 104.94 263.695C104.73 263.981 104.448 264.205 104.217 264.487C103.402 265.521 103.674 267.022 103.312 268.305C103.044 269.247 102.496 270.086 101.741 270.71C101.166 271.198 100.42 271.585 99.6746 271.433C98.6721 271.245 98.0677 270.2 97.7927 269.213C97.5176 268.226 97.4308 267.148 96.8264 266.32C96.3414 265.637 95.5922 265.21 94.9155 264.722C94.2387 264.234 93.5728 263.608 93.4244 262.784C93.3593 262.422 93.3991 262.061 93.3629 261.699C93.3091 261.238 93.1322 260.8 92.8508 260.431C92.5693 260.062 92.1937 259.776 91.7633 259.602C91.2493 259.403 90.6124 259.331 90.3156 258.879C91.0524 258.416 91.5894 257.695 91.8211 256.857C92.0457 256.032 92.1673 255.181 92.1831 254.326L92.3568 251.455C92.4328 250.171 92.469 248.899 93.0335 247.745C93.2869 247.232 93.6017 246.747 93.8623 246.237C94.2114 245.522 94.5089 244.782 94.7526 244.024C95.1616 242.849 95.5742 241.67 95.9397 240.481C96.086 239.905 96.3048 239.349 96.5911 238.828C96.9277 238.286 97.3728 237.635 97.9519 237.526Z" fill="#34F5C5"/>
<path d="M88.0807 266.359L88.8407 266.385L89.0035 265.238C89.0252 265.009 89.0788 264.784 89.1628 264.569C89.289 264.343 89.4355 264.129 89.6007 263.929C90.3498 262.873 90.2955 261.47 90.4801 260.187C90.7262 258.476 91.4428 256.871 92.1521 255.294L93.6287 252.008C93.7602 251.737 93.8657 251.455 93.9436 251.165C94.0081 250.845 94.0384 250.519 94.0341 250.192C94.0341 249.686 94.2006 247.838 94.2114 247.329C94.2114 247.141 93.7988 247.245 93.712 247.079C93.5274 246.717 93.2741 247.701 92.9266 247.918C92.5991 248.168 92.3607 248.517 92.2462 248.912C91.9278 249.74 91.7323 250.612 91.4356 251.443C91.1752 252.295 90.7004 253.066 90.0567 253.682C89.7563 253.949 89.4052 254.159 89.1193 254.441C88.2001 255.349 88.1132 256.781 88.0807 258.057C88.0589 258.849 87.9106 266.359 88.0807 266.359Z" fill="#2F2E41"/>
<path d="M102.519 236.156C101.795 236.445 101.376 237.241 101.169 238.015C100.963 238.788 100.876 239.606 100.478 240.293C99.5515 241.905 97.1883 242.375 96.5332 244.118C96.3664 244.707 96.2776 245.315 96.269 245.926C96.1532 247.174 95.7406 248.381 95.6176 249.629C95.5537 250.599 95.5767 251.573 95.6863 252.54L96.5151 262.386C96.6758 263.836 96.5914 265.303 96.2654 266.725C97.1153 266.847 97.9823 266.705 98.7481 266.316C99.5262 265.955 100.236 265.478 100.981 265.065C102.266 264.342 103.685 263.854 104.806 262.896C105.01 262.737 105.185 262.545 105.324 262.328C105.504 261.914 105.626 261.477 105.686 261.03C105.781 260.682 105.902 260.341 106.048 260.01C106.463 259.018 106.826 258.004 107.134 256.973C107.344 256.289 107.51 255.592 107.629 254.887C107.72 254.326 107.767 253.758 107.818 253.194C107.875 252.307 108.052 251.431 108.342 250.591C109.06 248.585 109.467 246.482 109.547 244.353C109.572 244.046 109.552 243.736 109.486 243.435C109.361 243.069 109.193 242.72 108.987 242.393C108.643 241.746 108.436 241.034 108.111 240.379C107.387 238.897 106.088 237.772 104.73 236.829C104.036 236.369 103.272 235.87 102.519 236.156Z" fill="#2F2E41"/>
<path d="M85.2416 252.222C84.6538 251.915 84.1217 251.511 83.6673 251.028C83.461 250.786 83.3054 250.515 83.081 250.276C82.5495 249.71 81.8597 249.317 81.1014 249.148C80.3483 248.982 79.5778 248.908 78.8069 248.927C78.2919 248.892 77.7748 248.955 77.2832 249.112C77.0364 249.193 76.814 249.334 76.6368 249.524C76.4596 249.714 76.3334 249.945 76.2699 250.197C76.1577 250.811 76.5594 251.408 77.0407 251.799C77.4884 252.164 78.015 252.42 78.5789 252.547C79.0388 252.627 79.5027 252.681 79.9686 252.71C82.7046 252.995 85.1475 254.482 87.5434 255.838C89.6497 257.026 91.797 258.138 93.9854 259.175C94.0721 258.521 94.1084 257.861 94.094 257.201C94.094 256.709 94.0578 255.957 93.5909 255.668C93.048 255.328 92.1432 255.252 91.5425 255.049C90.132 254.589 88.7548 254.034 87.4203 253.386C86.6639 253.021 85.9401 252.634 85.2416 252.222Z" fill="#FBBEBE"/>
<path d="M97.2028 236.778C99.8951 236.778 102.078 234.584 102.078 231.878C102.078 229.172 99.8951 226.979 97.2028 226.979C94.5104 226.979 92.3279 229.172 92.3279 231.878C92.3279 234.584 94.5104 236.778 97.2028 236.778Z" fill="#FBBEBE"/>
<path d="M103.913 241.71C103.525 242.255 103.207 242.847 102.968 243.471C102.364 244.711 101.419 245.774 100.948 247.087C100.449 248.45 100.467 250.074 99.5008 251.148C99.3066 251.311 99.1603 251.523 99.0774 251.762C99.0715 251.912 99.0545 252.06 99.0267 252.207C98.8892 252.598 98.2486 252.616 98.1292 253.013C98.0966 253.129 98.1292 253.256 98.0713 253.375C97.9736 253.632 97.637 253.668 97.409 253.823C96.9349 254.145 97.0471 254.89 96.6852 255.353C96.5381 255.525 96.3481 255.655 96.1346 255.73C95.9211 255.805 95.6915 255.822 95.4692 255.78C95.0255 255.686 94.5985 255.527 94.2025 255.306C94.0633 255.228 93.9092 255.18 93.7501 255.165C93.5612 255.169 93.378 255.231 93.2253 255.342C92.3242 255.913 91.9008 257.049 91.908 258.119C91.9716 259.19 92.2252 260.24 92.6571 261.222C92.7081 261.391 92.7931 261.549 92.9069 261.684C93.2036 261.999 93.7248 261.948 94.1229 261.771C94.4958 261.551 94.8929 261.373 95.3063 261.243C96.0591 261.106 96.7974 261.627 97.561 261.583C98.1197 261.498 98.6457 261.266 99.0847 260.911C99.8598 260.44 100.554 259.848 101.14 259.157C101.473 258.719 101.719 258.22 102.013 257.754C102.387 257.181 102.798 256.633 103.243 256.112L106.055 252.674C106.337 252.348 106.59 251.998 106.811 251.629C107.065 251.129 107.263 250.602 107.401 250.059C107.703 249.153 107.898 248.215 107.984 247.264C107.998 246.477 107.929 245.69 107.778 244.917C107.683 244.149 107.48 243.398 107.173 242.686C106.547 241.421 105.06 240.372 103.913 241.71Z" fill="#2F2E41"/>
<path d="M113.706 235.328C113.71 234.459 113.507 233.602 113.114 232.827C112.722 232.052 112.15 231.381 111.447 230.87C111.426 229.327 110.857 227.843 109.843 226.681C108.828 225.518 107.433 224.754 105.907 224.524C105.612 223.063 104.81 221.753 103.643 220.825C102.476 219.897 101.019 219.41 99.5276 219.45C98.0366 219.49 96.6076 220.055 95.4924 221.044C94.3772 222.034 93.6474 223.385 93.4316 224.86C91.4049 224.404 89.5519 224.997 89.2154 226.245C88.8535 227.55 90.3011 229.076 92.4436 229.655C93.1149 229.844 93.8145 229.914 94.5101 229.861C95.0083 230.592 95.654 231.211 96.4056 231.678C97.1572 232.145 97.9983 232.449 98.8747 232.573C99.1321 233.752 99.714 234.836 100.555 235.703C101.396 236.57 102.462 237.185 103.634 237.479C103.958 238.262 104.461 238.958 105.103 239.512C105.103 239.664 105.078 239.819 105.078 239.978C105.055 240.534 105.144 241.089 105.341 241.609C105.538 242.13 105.838 242.605 106.223 243.006C106.609 243.408 107.071 243.728 107.584 243.946C108.096 244.164 108.647 244.277 109.204 244.277C109.76 244.277 110.312 244.164 110.824 243.946C111.336 243.728 111.799 243.408 112.184 243.006C112.569 242.605 112.87 242.13 113.066 241.609C113.263 241.089 113.353 240.534 113.329 239.978C113.33 239.354 113.195 238.737 112.935 238.17C113.444 237.31 113.71 236.328 113.706 235.328Z" fill="#F86D70"/>
<path opacity="0.1" d="M90.5906 226.494C90.9272 225.247 92.7621 224.654 94.8069 225.109C95.0448 223.612 95.8045 222.246 96.9521 221.254C98.0997 220.261 99.5612 219.706 101.079 219.685C101.22 219.685 101.361 219.685 101.499 219.685C100.912 219.507 100.302 219.417 99.689 219.418C98.1715 219.438 96.7099 219.994 95.5624 220.986C94.4148 221.979 93.655 223.344 93.4171 224.842C91.3904 224.386 89.5375 224.979 89.2009 226.227C88.839 227.532 90.2866 229.058 92.4291 229.637C92.8277 229.747 93.2362 229.817 93.6488 229.846C91.6148 229.253 90.2468 227.771 90.5906 226.494Z" fill="black"/>
<path opacity="0.1" d="M106.453 240.231C106.453 240.072 106.453 239.917 106.478 239.761C105.836 239.209 105.333 238.514 105.009 237.733C103.838 237.436 102.773 236.819 101.932 235.952C101.092 235.085 100.51 234.001 100.25 232.822C99.3733 232.7 98.5321 232.395 97.7804 231.928C97.0286 231.461 96.3831 230.842 95.8854 230.11C95.48 230.142 95.0724 230.131 94.6694 230.078C95.1697 230.751 95.7991 231.319 96.5211 231.747C97.2431 232.176 98.0432 232.456 98.8748 232.573C99.1322 233.752 99.714 234.836 100.555 235.703C101.396 236.57 102.462 237.185 103.634 237.479C103.958 238.262 104.461 238.958 105.103 239.512C105.103 239.663 105.078 239.819 105.078 239.978C105.059 241.087 105.481 242.157 106.25 242.957C107.018 243.756 108.073 244.219 109.182 244.245C108.372 243.933 107.677 243.381 107.19 242.664C106.702 241.947 106.445 241.098 106.453 240.231Z" fill="black"/>
<path d="M99.433 233.674C99.764 233.422 99.7609 232.862 99.426 232.421C99.0912 231.981 98.5513 231.827 98.2202 232.078C97.8892 232.33 97.8923 232.89 98.2272 233.331C98.5621 233.771 99.1019 233.925 99.433 233.674Z" fill="#FBBEBE"/>
<defs>
<linearGradient id="paint0_linear_168_4" x1="118.5" y1="0" x2="118.5" y2="237" gradientUnits="userSpaceOnUse">
<stop stop-color="#1DCDFE"/>
<stop offset="0.792708" stop-color="#21D0B2" stop-opacity="0"/>
</linearGradient>
<linearGradient id="paint1_linear_168_4" x1="74.7209" y1="276.289" x2="74.7209" y2="218.565" gradientUnits="userSpaceOnUse">
<stop stop-color="#808080" stop-opacity="0.25"/>
<stop offset="0.54" stop-color="#808080" stop-opacity="0.12"/>
<stop offset="1" stop-color="#808080" stop-opacity="0.1"/>
</linearGradient>
</defs>
</svg>
