<svg width="309" height="323" viewBox="0 0 309 323" fill="none" xmlns="http://www.w3.org/2000/svg">
<path d="M237 118.5C237 183.946 183.946 237 118.5 237C53.0543 237 0 183.946 0 118.5C0 53.0543 53.0543 0 118.5 0C183.946 0 237 53.0543 237 118.5Z" fill="url(#paint0_linear_168_2)" fill-opacity="0.62"/>
<circle cx="228.5" cy="243.5" r="79.5" fill="#545353" fill-opacity="0.62"/>
<g clip-path="url(#clip0_168_2)">
<path d="M168.585 130.98L161.403 133.106L166.352 149.901L173.535 147.775L168.585 130.98Z" fill="#34F5C5"/>
<path d="M128.226 138.271L128.38 128.005L122.063 124.059L115.194 132.479L128.226 138.271Z" fill="#FFB6B6"/>
<path opacity="0.1" d="M128.226 138.271L128.635 128.261L122.063 124.059L124.296 136.447L128.226 138.271Z" fill="black"/>
<path d="M124.843 129.028C131.048 129.028 136.077 123.988 136.077 117.77C136.077 111.552 131.048 106.512 124.843 106.512C118.639 106.512 113.609 111.552 113.609 117.77C113.609 123.988 118.639 129.028 124.843 129.028Z" fill="#FFB6B6"/>
<path d="M143.567 206.152L141.588 219.636L140.593 226.426L136.449 254.682C131.221 254.518 126.061 254.282 120.979 253.985L121.717 236.78L122.163 226.426L122.455 219.636L122.637 215.362L119.973 205.165C119.973 205.165 119.096 203.532 118.204 201.355C118.047 200.969 117.887 200.566 117.734 200.151C116.628 197.188 115.751 193.661 116.853 191.817C116.906 191.731 116.96 191.649 117.02 191.57C117.52 190.923 118.814 190.441 120.572 190.083C121.646 189.862 122.898 189.69 124.246 189.558C128.325 189.154 133.307 189.093 137.12 189.133C140.568 189.161 143.057 189.268 143.057 189.268L143.093 190.408L143.097 190.519L143.122 191.384L143.182 193.45L143.336 198.553L143.493 203.739L143.567 206.152Z" fill="#2F2E41"/>
<path d="M143.493 203.739L137.94 214.901L134.427 219.636L129.395 226.426L121.717 236.78L109.542 253.202C103.686 252.745 97.9446 252.198 92.342 251.576L107.245 226.426L111.268 219.636L115.152 213.085L117.619 202.839C117.619 202.839 117.619 202.292 117.659 201.416C117.677 201.048 117.702 200.619 117.734 200.151C117.951 197.024 118.611 192.038 120.572 190.083C120.836 189.815 121.125 189.608 121.439 189.465C122.027 189.201 123.008 189.265 124.246 189.558C127.305 190.291 131.927 192.449 136.078 194.594C138.949 196.08 141.592 197.556 143.336 198.553L143.493 203.739Z" fill="#2F2E41"/>
<path d="M116.638 130.308L129.401 136.447C129.401 136.447 142.929 176.607 142.929 178.654C142.929 180.7 146.758 181.979 144.46 184.281C142.163 186.583 148.736 188.533 145.194 190.372C141.653 192.211 119.559 202.27 117.102 201.362C110.326 198.861 117.389 189.668 117.389 189.668C117.389 189.668 112.299 185.56 113.065 183.514C113.831 181.467 108.47 142.33 108.47 142.33L116.638 130.308Z" fill="#34F5C5"/>
<path d="M125.789 120.387L128.608 121.968C128.608 121.968 126.879 116.842 128.141 114.582C129.403 112.321 128.667 110.721 128.667 110.721C128.667 110.721 133.169 112.207 134.355 110.349C135.541 108.49 135.933 107.523 132.071 105.951C128.21 104.38 129.662 105.491 129.662 105.491C129.662 105.491 126.365 104.236 127.091 104.791C127.818 105.347 124.358 103.852 124.845 104.571C125.332 105.289 122.675 103.948 123.163 104.666C123.65 105.385 117.006 106.409 118.373 106.878C119.74 107.348 112.771 107.893 112.981 113.353C113.19 118.813 109.395 120.362 112.196 121.949C114.996 123.536 118.904 130.329 118.904 130.329L122.201 128.084C122.201 128.084 121.21 119.303 125.789 120.387Z" fill="#2F2E41"/>
<path d="M101.856 178.891C105.131 178.466 107.567 176.428 107.297 174.339C107.027 172.25 104.153 170.902 100.876 171.328C99.5651 171.48 98.3094 171.944 97.2141 172.682L83.3591 174.66L84.4236 181.156L97.9692 178.517C99.2164 178.951 100.549 179.079 101.856 178.891Z" fill="#A0616A"/>
<path d="M59.4995 150.386L63.2998 178.737C63.2998 178.737 64.3452 184.835 73.8604 183.937C83.3757 183.039 95.8802 179.341 95.8802 179.341L95.0664 172.721L84.4386 173.874C84.4386 173.874 79.4776 172.668 78.4927 173.482C77.5078 174.295 77.9602 175.247 76.9862 174.063C76.0122 172.878 76.5013 172.143 75.6485 173.179C74.7957 174.215 74.6225 176.015 74.1117 173.785C73.6009 171.555 72.6507 172.009 72.6507 172.009L72.11 151.241C72.11 151.241 69.2552 141.334 64.0408 144.646C58.8264 147.959 59.4995 150.386 59.4995 150.386Z" fill="#E6E6E6"/>
<path d="M76.156 127.766H57.3348V155.636H76.156V127.766Z" fill="#2F2E41"/>
<path d="M61.5595 147.138L62.2187 139.156H70.9827L72.9255 147.613L61.5595 147.138Z" fill="#A0616A"/>
<path opacity="0.1" d="M61.5595 147.138L62.2187 139.156H70.9827L72.9255 147.613L61.5595 147.138Z" fill="black"/>
<path d="M77.4369 133.633C78.2844 128.399 74.7378 123.468 69.5153 122.619C64.2928 121.769 59.3721 125.324 58.5246 130.557C57.6771 135.791 61.2237 140.722 66.4462 141.572C71.6687 142.421 76.5894 138.867 77.4369 133.633Z" fill="#A0616A"/>
<path d="M70.3973 121.995C70.3973 121.995 70.3973 118.054 66.7454 118.898C63.0935 119.743 61.9698 121.15 61.9698 121.15C61.9698 121.15 60.5653 123.402 58.318 123.684C56.0706 123.965 54.1042 130.44 54.3852 131.848C54.6661 133.256 56.0706 136.915 54.1042 138.605C52.1378 140.294 49.3287 142.827 50.1714 145.361C51.0142 147.895 53.5424 154.37 53.5424 154.37C53.5424 154.37 46.4908 155.403 47.067 159.813C47.067 159.813 50.4524 157.185 54.947 157.185C59.4416 157.185 58.8798 149.013 58.8798 149.013C58.8798 149.013 59.1607 143.953 60.0035 142.546C60.8462 141.138 59.7225 133.256 63.9363 129.033C68.15 124.81 70.3973 121.995 70.3973 121.995Z" fill="#2F2E41"/>
<path d="M69.2736 121.15C69.2736 121.15 74.611 122.276 76.5774 127.625C78.5438 132.974 77.5506 133.969 77.5506 133.969C77.5506 133.969 77.9854 137.19 80.3715 138.32C82.7575 139.449 80.7911 144.235 80.7911 144.235C80.7911 144.235 81.3529 149.021 88.9376 150.71C96.5223 152.399 79.4263 165.352 79.4263 165.352C79.4263 165.352 80.6555 159.239 72.7898 158.957C64.9242 158.676 74.3301 144.235 74.3301 144.235L75.1728 134.945C75.1728 134.945 73.4873 124.247 68.4309 122.839C63.3744 121.432 69.2736 121.15 69.2736 121.15Z" fill="#2F2E41"/>
<path d="M82.8736 206.409L80.9336 219.636L79.9386 226.426L78.2518 237.913L76.5436 249.553C74.5215 249.26 72.5244 248.956 70.5523 248.642C67.1644 248.102 63.8478 247.534 60.6025 246.934L61.2337 232.163L61.4798 226.426L61.7722 219.636L61.9434 215.615L59.2759 205.419C59.2759 205.419 53.7732 195.151 56.3266 191.827C56.4443 191.677 56.6012 191.534 56.8009 191.402C57.45 190.962 58.5198 190.612 59.8643 190.341C63.0418 189.69 67.7492 189.454 72.0394 189.394C77.5457 189.315 82.3601 189.526 82.3601 189.526L82.3886 190.366L82.4421 192.188L82.8736 206.409Z" fill="#2F2E41"/>
<path d="M82.8736 206.409L80.9336 219.636L79.9386 226.426L78.2518 237.913L70.5523 248.642C67.1644 248.102 63.8478 247.534 60.6025 246.934C58.2167 246.494 55.8737 246.037 53.5663 245.565L61.2337 232.163L64.5147 226.426L68.3947 219.636L70.2599 216.377L71.8825 213.539L73.0701 208.25L73.983 204.193L74.1934 203.257C74.1934 203.257 74.172 201.784 74.3111 199.808C74.5251 196.813 75.1135 192.653 76.7326 190.698C77.0464 190.312 77.4031 190.015 77.806 189.826C78.6477 189.429 80.3095 189.701 82.3886 190.366L82.4421 192.188L82.8736 206.409Z" fill="#2F2E41"/>
<path d="M73.5556 147.19L73.3218 147.124L61.8142 143.865L52.6252 156.399L58.7512 182.49L56.454 192.978C56.454 192.978 75.0871 188.118 82.4893 192.211C82.4893 192.211 82.9998 189.878 82.4893 188.742C81.9788 187.606 81.213 182.879 81.9788 180.766C82.7445 178.653 80.4473 168.677 80.4473 168.677C80.4473 168.677 81.213 162.027 77.8948 158.701C74.5766 155.376 73.5556 147.19 73.5556 147.19Z" fill="#E6E6E6"/>
<path d="M70.3614 216.793C71.1866 219.998 73.5055 222.169 75.5406 221.642C77.5757 221.115 78.5561 218.091 77.7302 214.885C77.4178 213.6 76.8029 212.408 75.9368 211.41L72.2695 197.875L65.9683 199.735L70.2526 212.881C69.9767 214.175 70.0139 215.516 70.3614 216.793Z" fill="#A0616A"/>
<path d="M72.0325 158.711C72.0325 158.711 68.4634 149.045 64.5518 149.674C60.6402 150.304 57.0739 156.379 57.0739 156.379L59.9016 190.763L67.6687 210.384L75.9076 207.129L71.6281 187.52L72.0325 158.711Z" fill="#E6E6E6"/>
<path d="M250.476 99.0162V247.202C250.358 247.227 250.241 247.248 250.119 247.266C248.311 247.595 246.478 247.909 244.624 248.217C242.42 248.581 240.184 248.935 237.919 249.275C236.036 249.553 234.136 249.825 232.213 250.086C226.618 250.854 220.866 251.537 214.974 252.13C213.088 252.323 211.183 252.505 209.268 252.677C192.525 254.185 174.729 255 156.277 255C153.663 255 151.067 254.982 148.482 254.95C148.36 254.95 148.243 254.95 148.125 254.946V99.0162H250.476Z" fill="#F2F2F2"/>
<path d="M250.119 147.904V148.343L250.166 148.251C250.162 148.136 250.144 148.022 250.119 147.904ZM148.125 194.594L147.768 194.304V226.426H148.125V254.946C148.243 254.95 148.36 254.95 148.482 254.95V172.928C148.364 172.993 148.246 173.054 148.125 173.114V194.594ZM147.768 98.6588V254.939C147.886 254.943 148.004 254.946 148.125 254.946C148.243 254.95 148.36 254.95 148.482 254.95V99.3736H250.119V247.266C250.241 247.248 250.358 247.227 250.476 247.202C250.594 247.184 250.715 247.162 250.833 247.137V98.6588H147.768Z" fill="#3F3D56"/>
<path d="M156.861 211.06C160.603 211.06 163.637 208.02 163.637 204.27C163.637 200.52 160.603 197.479 156.861 197.479C153.119 197.479 150.085 200.52 150.085 204.27C150.085 208.02 153.119 211.06 156.861 211.06Z" fill="#3F3D56"/>
<path d="M155.984 202.388C158.416 204.627 161.541 205.184 162.962 203.633C164.384 202.081 163.564 199.009 161.131 196.77C160.171 195.862 159.008 195.197 157.74 194.832L147.314 185.476L143.037 190.472L153.769 199.166C154.24 200.402 154.999 201.507 155.984 202.388Z" fill="#FFB6B6"/>
<path d="M125.852 152.745C125.852 152.745 117.61 146.581 114.669 149.242C111.729 151.903 112.035 158.945 112.035 158.945L133.076 186.252L150.245 198.48L155.391 191.256L141.154 177.137L125.852 152.745Z" fill="#34F5C5"/>
<path d="M214.974 214.275V252.13C213.088 252.323 211.183 252.505 209.268 252.677V214.275H214.974Z" fill="#3F3D56"/>
<path d="M6.70598 214.275V231.466C4.71244 230.583 2.80806 229.675 1 228.75V214.275H6.70598Z" fill="#3F3D56"/>
<path d="M212.833 219.637H4.92122V226.427H212.833V219.637Z" fill="#34F5C5"/>
<path d="M258.904 119.271C258.904 119.271 255.1 121.507 256.347 123.717C257.595 125.928 259.334 128.94 258.154 129.888C256.974 130.837 255.026 135.019 255.026 135.019C255.026 135.019 246.712 133.855 247.492 140.328C248.273 146.8 252.179 147.683 248.831 150.53C245.483 153.378 252.311 156.783 252.311 156.783C252.311 156.783 257.024 155.311 258.099 150.785C259.175 146.258 257.141 154.246 257.823 154.819C258.505 155.391 261.154 159.167 263.028 154.147C264.902 149.128 263.046 147.182 265.523 144.22C267.999 141.257 269.683 136.466 269.609 135.628C269.536 134.791 272.442 127.148 267.968 124.167C263.494 121.186 258.904 119.271 258.904 119.271Z" fill="#2F2E41"/>
<path d="M226.615 189.858C224.708 192.011 222.054 192.77 220.686 191.554C219.319 190.337 219.757 187.606 221.665 185.452C222.415 184.582 223.363 183.903 224.428 183.475L232.623 174.453L236.766 178.398L228.247 186.872C227.949 187.984 227.389 189.008 226.615 189.858Z" fill="#FFB6B6"/>
<path d="M250.579 147.412C250.579 147.412 255.549 142.836 257.646 144.377C259.743 145.917 260.012 150.535 260.012 150.535L248.096 169.77L230.909 184.288L227.069 179.916L242.215 164.36L250.579 147.412Z" fill="#3F3D56"/>
<path d="M260.651 137.045L257.959 146.635H272.736L267.87 134.818L260.651 137.045Z" fill="#FFB6B6"/>
<path opacity="0.1" d="M260.651 137.045L257.959 146.635H272.736L267.87 134.818L260.651 137.045Z" fill="black"/>
<path d="M268.144 168.694L276.809 189.208L247.485 187.757L249.478 168.694H268.144Z" fill="#FFB6B6"/>
<path d="M259.668 141.725L271.895 141.215L280.047 155.51L272.914 178.486L247.95 181.039L250.653 158.881L252.026 146.32L259.668 141.725Z" fill="#3F3D56"/>
<path d="M280.047 208.453C279.459 211.309 278.821 215.222 278.196 219.464C277.872 221.673 277.551 223.971 277.244 226.255C276.453 232.113 275.746 237.877 275.279 241.802C271.399 242.809 267.366 243.771 263.19 244.679L261.032 226.255L260.237 219.464L259.413 212.438L259.042 219.464L258.682 226.255L257.648 245.836C255.412 246.287 253.14 246.719 250.833 247.137C250.715 247.162 250.594 247.184 250.476 247.202C250.358 247.227 250.241 247.248 250.119 247.266C248.311 247.595 246.478 247.909 244.624 248.217L244.317 226.255L244.221 219.464L243.875 194.826L246.888 184.847L247.798 184.765L250.119 184.554L250.476 184.522L250.833 184.487L273.928 182.385L274.698 182.314C274.698 182.314 275.247 183.389 276.003 185.18C276.067 185.33 276.135 185.487 276.203 185.648C276.856 187.221 277.633 189.261 278.343 191.566C279.281 194.597 280.104 198.085 280.379 201.556C280.564 203.911 280.5 206.255 280.047 208.453Z" fill="#2F2E41"/>
<path d="M280.949 199.138C280.734 202.009 279.082 204.225 277.259 204.088C275.436 203.95 274.132 201.512 274.348 198.64C274.418 197.491 274.762 196.377 275.35 195.389L276.413 183.235L282.094 183.857L280.442 195.772C280.877 196.837 281.051 197.991 280.949 199.138Z" fill="#FFB6B6"/>
<path d="M274.344 150.821C274.344 150.821 275.531 144.162 278.13 144.114C280.73 144.066 283.736 147.576 283.736 147.576L285.889 170.114L280.997 192.099L275.298 190.954L277.94 169.382L274.344 150.821Z" fill="#3F3D56"/>
<path d="M264.162 139.129C269.077 139.129 273.061 135.136 273.061 130.211C273.061 125.285 269.077 121.292 264.162 121.292C259.247 121.292 255.263 125.285 255.263 130.211C255.263 135.136 259.247 139.129 264.162 139.129Z" fill="#FFB6B6"/>
<path d="M260.751 120.252C260.751 120.252 259.267 124.414 261.64 125.306C264.014 126.197 267.277 127.387 266.98 128.873C266.683 130.359 267.87 134.818 267.87 134.818C267.87 134.818 260.751 139.278 265.497 143.737C270.243 148.196 273.803 146.359 273.061 150.696C272.32 155.033 279.736 153.25 279.736 153.25C279.736 153.25 282.405 149.088 280.329 144.926C278.252 140.764 281.812 148.196 282.702 148.196C283.592 148.196 288.041 149.385 286.262 144.331C284.482 139.278 281.812 138.98 281.812 135.116C281.812 131.251 280.032 126.495 279.439 125.9C278.846 125.306 276.176 117.576 270.836 118.171C265.497 118.765 260.751 120.252 260.751 120.252Z" fill="#2F2E41"/>
<path d="M220.904 177.475L213.721 179.601L218.67 196.396L225.853 194.27L220.904 177.475Z" fill="#34F5C5"/>
<path d="M103.218 163.179L96.0353 165.305L100.985 182.1L108.167 179.974L103.218 163.179Z" fill="#34F5C5"/>
<path d="M237.919 214.104V249.275C236.036 249.553 234.136 249.825 232.213 250.086V214.104H237.919Z" fill="#3F3D56"/>
<path d="M309 219.464H236.137V226.254H309V219.464Z" fill="#34F5C5"/>
</g>
<defs>
<linearGradient id="paint0_linear_168_2" x1="118.5" y1="0" x2="118.5" y2="237" gradientUnits="userSpaceOnUse">
<stop stop-color="#1DCDFE"/>
<stop offset="0.792708" stop-color="#21D0B2" stop-opacity="0"/>
</linearGradient>
<clipPath id="clip0_168_2">
<rect width="308" height="181" fill="white" transform="translate(1 74)"/>
</clipPath>
</defs>
</svg>
