<svg width="308" height="323" viewBox="0 0 308 323" fill="none" xmlns="http://www.w3.org/2000/svg">
<path d="M237 118.5C237 183.946 183.946 237 118.5 237C53.0543 237 0 183.946 0 118.5C0 53.0543 53.0543 0 118.5 0C183.946 0 237 53.0543 237 118.5Z" fill="url(#paint0_linear_168_3)" fill-opacity="0.62"/>
<circle cx="228.5" cy="243.5" r="79.5" fill="#545353" fill-opacity="0.62"/>
<path d="M270.513 252.552L282.671 254.449C286.786 249.475 289.623 243.574 290.935 237.258C282.045 244.522 268.526 240.662 257.747 244.627C254.395 245.89 251.37 247.889 248.897 250.477C246.423 253.065 244.566 256.176 243.46 259.578L237.519 265.958C242.897 268.084 248.673 269.02 254.449 268.702C260.224 268.385 265.862 266.822 270.974 264.12C273.827 262.576 276.473 260.679 278.851 258.475C274.597 255.802 270.513 252.552 270.513 252.552Z" fill="#F2F2F2"/>
<path d="M266.198 233.144L277.926 229.43C279.387 223.147 279.29 216.602 277.642 210.365C272.931 220.823 259.107 223.387 251.23 231.734C248.794 234.357 246.98 237.493 245.923 240.91C244.865 244.328 244.592 247.939 245.123 251.476L242.656 259.831C248.419 259.339 254.007 257.606 259.035 254.751C264.062 251.896 268.41 247.987 271.778 243.293C273.642 240.641 275.163 237.765 276.307 234.734C271.305 234.235 266.198 233.144 266.198 233.144Z" fill="#F2F2F2"/>
<path d="M131.901 249.513C179.526 249.513 218.134 210.976 218.134 163.438C218.134 115.9 179.526 77.3624 131.901 77.3624C84.2762 77.3624 45.6684 115.9 45.6684 163.438C45.6684 210.976 84.2762 249.513 131.901 249.513Z" fill="#E6E6E6"/>
<path d="M206.102 163.438C206.11 174.995 203.406 186.393 198.205 196.718C193.004 207.043 185.451 216.008 176.153 222.894C175.531 223.358 174.897 223.81 174.26 224.251C161.825 232.878 147.045 237.502 131.901 237.502C116.758 237.502 101.977 232.878 89.5429 224.251C88.9052 223.81 88.2715 223.358 87.6498 222.894C78.3577 216.002 70.8098 207.036 65.6096 196.712C60.4093 186.388 57.7009 174.993 57.7009 163.438C57.7009 151.882 60.4093 140.487 65.6096 130.164C70.8098 119.84 78.3577 110.874 87.6498 103.982C88.2715 103.517 88.9052 103.065 89.5429 102.625C101.977 93.997 116.758 89.3729 131.901 89.3729C147.045 89.3729 161.825 93.997 174.26 102.625C174.897 103.065 175.531 103.517 176.153 103.982C185.451 110.867 193.004 119.832 198.205 130.158C203.406 140.483 206.11 151.881 206.102 163.438Z" fill="white"/>
<path d="M131.901 231.097C169.337 231.097 199.684 200.805 199.684 163.438C199.684 126.071 169.337 95.7785 131.901 95.7785C94.4658 95.7785 64.1183 126.071 64.1183 163.438C64.1183 200.805 94.4658 231.097 131.901 231.097Z" fill="#3F3D56"/>
<path opacity="0.2" d="M132.078 95.9677C131.051 95.9677 130.029 95.9945 129.013 96.0396C146.145 97.5423 162.064 105.489 173.545 118.27C185.026 131.051 191.21 147.71 190.845 164.873C190.48 182.035 183.593 198.418 171.579 210.701C159.565 222.984 143.323 230.249 126.143 231.025C128.099 231.194 130.078 231.286 132.078 231.286C150.055 231.286 167.296 224.158 180.008 211.469C192.72 198.781 199.861 181.571 199.861 163.627C199.861 145.683 192.72 128.473 180.008 115.785C167.296 103.096 150.055 95.9677 132.078 95.9677Z" fill="black"/>
<path d="M132.102 90.9743C131.517 90.9753 130.957 91.2077 130.543 91.6204C130.13 92.0331 129.897 92.5926 129.896 93.1762V102.785C129.896 103.369 130.128 103.929 130.542 104.342C130.956 104.755 131.517 104.987 132.102 104.987C132.687 104.987 133.248 104.755 133.662 104.342C134.075 103.929 134.308 103.369 134.308 102.785V93.1762C134.307 92.5926 134.074 92.0331 133.661 91.6204C133.247 91.2077 132.687 90.9753 132.102 90.9743Z" fill="white"/>
<path d="M176.153 103.982C175.531 103.517 174.897 103.065 174.26 102.625C173.877 102.6 173.495 102.675 173.15 102.843C172.805 103.01 172.51 103.265 172.294 103.581L166.876 111.52C166.547 112.003 166.423 112.596 166.532 113.17C166.641 113.743 166.974 114.25 167.457 114.579C167.941 114.908 168.535 115.031 169.11 114.922C169.685 114.813 170.192 114.481 170.522 113.998L175.94 106.06C176.146 105.758 176.274 105.41 176.311 105.048C176.348 104.685 176.294 104.318 176.153 103.982Z" fill="white"/>
<path d="M200.771 140.181C200.662 139.914 200.502 139.67 200.298 139.464C200.095 139.259 199.853 139.095 199.586 138.983C199.32 138.871 199.034 138.812 198.744 138.81C198.455 138.808 198.168 138.863 197.9 138.972L188.98 142.587C188.438 142.808 188.006 143.233 187.779 143.771C187.552 144.309 187.548 144.915 187.768 145.455C187.988 145.996 188.414 146.427 188.953 146.654C189.491 146.882 190.098 146.886 190.64 146.667L199.56 143.052C200.101 142.831 200.533 142.404 200.76 141.866C200.987 141.328 200.991 140.722 200.771 140.181Z" fill="white"/>
<path d="M96.9269 111.52L91.5082 103.581C91.2923 103.265 90.9974 103.01 90.6528 102.843C90.3081 102.675 89.9256 102.6 89.5429 102.625C88.9052 103.065 88.2715 103.517 87.6498 103.982C87.5089 104.318 87.4545 104.685 87.4916 105.048C87.5288 105.41 87.6562 105.758 87.8624 106.06L93.281 113.998C93.6102 114.481 94.118 114.813 94.6927 114.922C95.2674 115.031 95.8618 114.908 96.3453 114.579C96.8288 114.25 97.1616 113.743 97.2707 113.17C97.3798 112.596 97.2561 112.003 96.9269 111.52Z" fill="white"/>
<path d="M74.8232 142.587L65.9031 138.972C65.3611 138.753 64.754 138.757 64.2151 138.984C63.6763 139.211 63.2499 139.643 63.0297 140.183C62.8095 140.724 62.8136 141.33 63.0411 141.868C63.2685 142.406 63.7007 142.832 64.2426 143.052L73.1627 146.667C73.7045 146.886 74.3114 146.882 74.8499 146.654C75.3884 146.427 75.8145 145.996 76.0346 145.455C76.2546 144.915 76.2507 144.309 76.0235 143.771C75.7964 143.233 75.3646 142.808 74.8232 142.587Z" fill="white"/>
<path d="M132.102 221.889C131.517 221.89 130.957 222.122 130.543 222.535C130.13 222.948 129.897 223.507 129.896 224.091V233.699C129.896 234.283 130.128 234.843 130.542 235.256C130.956 235.669 131.517 235.901 132.102 235.901C132.687 235.901 133.248 235.669 133.662 235.256C134.075 234.843 134.308 234.283 134.308 233.699V224.091C134.307 223.507 134.074 222.948 133.661 222.535C133.247 222.122 132.687 221.89 132.102 221.889Z" fill="white"/>
<path d="M175.94 220.816L170.522 212.877C170.359 212.638 170.15 212.433 169.908 212.275C169.666 212.116 169.395 212.007 169.11 211.953C168.825 211.899 168.533 211.902 168.249 211.961C167.966 212.02 167.697 212.134 167.457 212.296C167.218 212.459 167.013 212.667 166.854 212.909C166.695 213.151 166.586 213.422 166.532 213.706C166.478 213.99 166.481 214.281 166.54 214.564C166.599 214.847 166.713 215.116 166.876 215.355L172.294 223.294C172.51 223.61 172.805 223.865 173.15 224.033C173.495 224.201 173.877 224.276 174.26 224.251C174.897 223.81 175.531 223.358 176.153 222.894C176.294 222.557 176.348 222.191 176.311 221.828C176.274 221.465 176.146 221.117 175.94 220.816Z" fill="white"/>
<path d="M199.56 183.824L190.64 180.208C190.098 179.989 189.491 179.993 188.952 180.22C188.413 180.447 187.987 180.879 187.767 181.42C187.546 181.96 187.551 182.567 187.778 183.104C188.005 183.642 188.438 184.068 188.98 184.288L197.9 187.903C198.441 188.122 199.048 188.118 199.587 187.89C200.125 187.663 200.551 187.232 200.772 186.691C200.992 186.151 200.988 185.545 200.76 185.007C200.533 184.469 200.102 184.044 199.56 183.824Z" fill="white"/>
<path d="M96.3453 212.296C95.8618 211.968 95.2674 211.845 94.6928 211.953C94.1181 212.062 93.6104 212.394 93.281 212.877L87.8624 220.816C87.6562 221.117 87.5288 221.465 87.4917 221.828C87.4545 222.191 87.5089 222.557 87.6498 222.894C88.2715 223.358 88.9052 223.81 89.5429 224.251C89.9256 224.276 90.3082 224.201 90.6528 224.033C90.9975 223.865 91.2923 223.61 91.5083 223.294L96.9269 215.355C97.0899 215.116 97.2042 214.847 97.2632 214.564C97.3222 214.281 97.3248 213.99 97.2708 213.706C97.2168 213.421 97.1073 213.151 96.9485 212.909C96.7897 212.667 96.5847 212.459 96.3453 212.296Z" fill="white"/>
<path d="M76.0345 181.417C75.9255 181.15 75.7648 180.906 75.5615 180.7C75.3582 180.495 75.1163 180.331 74.8496 180.219C74.5829 180.107 74.2966 180.048 74.0072 180.046C73.7178 180.044 73.4308 180.099 73.1627 180.208L64.2426 183.823C63.7012 184.044 63.2694 184.469 63.0423 185.007C62.8151 185.545 62.8111 186.151 63.0312 186.691C63.2513 187.232 63.6774 187.663 64.2159 187.89C64.7544 188.118 65.3612 188.122 65.9031 187.903L74.8232 184.288C75.3644 184.067 75.7957 183.64 76.0227 183.102C76.2497 182.564 76.254 181.958 76.0345 181.417Z" fill="white"/>
<path d="M134.964 162.345C135.168 163.549 134.885 164.784 134.177 165.779C133.47 166.775 132.396 167.45 131.19 167.656L92.0454 174.302C91.4483 174.404 90.837 174.387 90.2464 174.252C89.6559 174.118 89.0976 173.869 88.6036 173.519C88.1095 173.169 87.6893 172.726 87.367 172.214C87.0446 171.702 86.8264 171.132 86.7248 170.536C86.6233 169.939 86.6403 169.329 86.775 168.74C86.9096 168.15 87.1593 167.593 87.5097 167.1C87.8602 166.607 88.3045 166.187 88.8173 165.866C89.3301 165.544 89.9014 165.326 90.4985 165.225L129.643 158.578C130.849 158.375 132.087 158.657 133.084 159.364C134.082 160.07 134.758 161.142 134.964 162.345Z" fill="#9E9E9E"/>
<path d="M176.163 205.635C175.601 206.2 174.837 206.519 174.04 206.522C173.242 206.525 172.476 206.212 171.909 205.652L129.77 163.92C129.205 163.359 128.885 162.597 128.883 161.801C128.88 161.005 129.194 160.241 129.755 159.676C130.317 159.111 131.08 158.791 131.877 158.788C132.675 158.784 133.441 159.097 134.007 159.657L176.146 201.389C176.712 201.95 177.031 202.713 177.034 203.509C177.038 204.305 176.724 205.07 176.163 205.635Z" fill="#9E9E9E"/>
<path d="M131.901 168.642C134.781 168.642 137.115 166.312 137.115 163.438C137.115 160.563 134.781 158.233 131.901 158.233C129.022 158.233 126.687 160.563 126.687 163.438C126.687 166.312 129.022 168.642 131.901 168.642Z" fill="#CCCCCC"/>
<path d="M95.9868 73.1903C87.9832 85.7503 75.7716 94.0857 60.7116 99.5615C60.414 99.784 60.0754 99.9458 59.7152 100.038C59.355 100.13 58.9801 100.15 58.6121 100.097C58.2441 100.044 57.8901 99.9197 57.5703 99.7304C57.2505 99.5411 56.9711 99.2907 56.7483 98.9937C48.5678 88.0912 50.415 72.5093 61.2114 64.1785C63.8216 62.1679 66.806 60.6949 69.9912 59.8449C73.1764 58.995 76.499 58.7851 79.7661 59.2274C83.0333 59.6697 86.1799 60.7554 89.0232 62.4214C91.8665 64.0875 94.35 66.3007 96.3294 68.9327L96.5557 69.2342C96.7786 69.5313 96.9407 69.8692 97.0327 70.2288C97.1247 70.5884 97.1449 70.9625 97.0921 71.3299C97.0392 71.6972 96.9144 72.0506 96.7248 72.3698C96.5351 72.689 96.2844 72.9678 95.9868 73.1903Z" fill="#E6E6E6"/>
<path d="M167.473 68.9327C169.453 66.3007 171.936 64.0875 174.779 62.4214C177.623 60.7553 180.769 59.6697 184.037 59.2274C187.304 58.7851 190.626 58.995 193.811 59.8449C196.997 60.6948 199.981 62.1679 202.591 64.1785C213.388 72.5093 215.235 88.0911 207.054 98.9937C206.832 99.2907 206.552 99.541 206.232 99.7303C205.913 99.9196 205.559 100.044 205.191 100.097C204.823 100.15 204.448 100.13 204.087 100.038C203.727 99.9458 203.389 99.784 203.091 99.5615C189.11 94.2187 177.645 84.973 167.816 73.1903C167.215 72.741 166.817 72.0718 166.711 71.3298C166.604 70.5879 166.797 69.8341 167.247 69.2342L167.473 68.9327Z" fill="#E6E6E6"/>
<path d="M163.965 238.01C163.455 238.296 163.08 238.772 162.921 239.334C162.762 239.895 162.833 240.497 163.117 241.007L175.849 263.716C176.134 264.225 176.611 264.601 177.174 264.759C177.737 264.918 178.34 264.847 178.851 264.562C179.361 264.277 179.737 263.801 179.896 263.239C180.055 262.677 179.984 262.075 179.699 261.565L166.968 238.856C166.681 238.348 166.204 237.973 165.642 237.814C165.079 237.656 164.476 237.726 163.965 238.01Z" fill="#E6E6E6"/>
<path d="M96.8351 238.856L84.104 261.565C83.8185 262.075 83.7474 262.677 83.9064 263.239C84.0655 263.801 84.4416 264.277 84.952 264.562C85.4625 264.847 86.0656 264.918 86.6285 264.759C87.1915 264.601 87.6683 264.225 87.9541 263.716L100.685 241.007C100.827 240.755 100.917 240.477 100.951 240.19C100.985 239.903 100.962 239.611 100.883 239.333C100.805 239.055 100.672 238.795 100.492 238.568C100.313 238.341 100.091 238.151 99.8377 238.01C99.5849 237.869 99.3066 237.778 99.0189 237.745C98.7311 237.711 98.4395 237.734 98.1607 237.812C97.8819 237.891 97.6213 238.024 97.3939 238.203C97.1664 238.382 96.9766 238.604 96.8351 238.856Z" fill="#E6E6E6"/>
<path d="M178.427 269.53C182.193 269.53 185.245 266.483 185.245 262.725C185.245 258.966 182.193 255.919 178.427 255.919C174.661 255.919 171.609 258.966 171.609 262.725C171.609 266.483 174.661 269.53 178.427 269.53Z" fill="#E6E6E6"/>
<path d="M183.24 95.3782C187.006 95.3782 190.058 92.331 190.058 88.5722C190.058 84.8134 187.006 81.7663 183.24 81.7663C179.474 81.7663 176.422 84.8134 176.422 88.5722C176.422 92.331 179.474 95.3782 183.24 95.3782Z" fill="#E6E6E6"/>
<path d="M131.5 79.3642C135.266 79.3642 138.319 76.317 138.319 72.5582C138.319 68.7994 135.266 65.7523 131.5 65.7523C127.735 65.7523 124.682 68.7994 124.682 72.5582C124.682 76.317 127.735 79.3642 131.5 79.3642Z" fill="#E6E6E6"/>
<path d="M82.167 94.5775C85.9327 94.5775 88.9854 91.5303 88.9854 87.7715C88.9854 84.0127 85.9327 80.9656 82.167 80.9656C78.4013 80.9656 75.3486 84.0127 75.3486 87.7715C75.3486 91.5303 78.4013 94.5775 82.167 94.5775Z" fill="#E6E6E6"/>
<path d="M86.5789 269.53C90.3446 269.53 93.3973 266.483 93.3973 262.725C93.3973 258.966 90.3446 255.919 86.5789 255.919C82.8132 255.919 79.7605 258.966 79.7605 262.725C79.7605 266.483 82.8132 269.53 86.5789 269.53Z" fill="#E6E6E6"/>
<path d="M173.079 201.808C173.347 202.228 173.705 202.584 174.127 202.851C174.548 203.118 175.023 203.29 175.519 203.354C176.014 203.418 176.517 203.373 176.993 203.221C177.469 203.07 177.906 202.817 178.273 202.479L188.972 208.201L188.398 201.931L178.326 197.458C177.716 196.88 176.916 196.546 176.075 196.518C175.235 196.49 174.414 196.77 173.767 197.307C173.12 197.843 172.693 198.597 172.566 199.426C172.439 200.256 172.621 201.103 173.079 201.808Z" fill="#FFB7B7"/>
<path d="M180.874 203.996L185.067 198.219L205.265 207.75L230.4 203.042C231.643 202.81 232.921 202.853 234.145 203.169C235.369 203.485 236.508 204.066 237.481 204.871C238.455 205.676 239.239 206.685 239.778 207.826C240.317 208.967 240.597 210.213 240.6 211.475C240.602 213.754 239.697 215.94 238.086 217.555C236.475 219.169 234.287 220.08 232.004 220.086L203.2 220.14L180.874 203.996Z" fill="#34F5C5"/>
<path d="M174.417 303.774L170.174 301.749L176.002 284.05L182.262 287.039L174.417 303.774Z" fill="#FFB7B7"/>
<path d="M202.856 300.92C202.547 301.113 202.239 301.303 201.927 301.493C201.307 301.872 200.681 302.245 200.055 302.612C199.74 302.796 199.422 302.979 199.107 303.16V303.169L199.089 303.172L199.083 303.175L198.603 303.294L197.914 301.477L197.596 300.641L197.148 299.456L196.325 297.288L191.994 285.873L198.727 284.215L198.98 285.245H198.983L199.107 285.755L201.46 295.279L201.94 297.226L201.955 297.285L202.245 298.448L202.494 299.456L202.772 300.581L202.856 300.92Z" fill="#FFB7B7"/>
<path d="M243.024 260.835C242.597 261.52 242.161 262.201 241.721 262.876C240.905 264.132 240.067 265.37 239.207 266.589C239.207 266.592 239.204 266.592 239.201 266.595C238.699 267.059 238.145 267.463 237.549 267.799C237.524 267.818 237.496 267.83 237.471 267.846C237.033 268.088 236.566 268.275 236.082 268.403C235.907 268.446 235.729 268.49 235.555 268.533C234.926 268.682 234.302 268.81 233.682 268.922C232.579 269.118 231.489 269.258 230.404 269.345C230.317 269.354 230.23 269.36 230.143 269.367C225.684 269.693 221.343 269.168 216.813 268.306C214.576 267.883 212.292 267.376 209.927 266.851C209.154 266.676 208.378 266.505 207.593 266.334C207.534 266.322 207.471 266.306 207.409 266.294C206.287 266.048 205.147 265.805 203.978 265.566C202.508 265.264 200.99 264.972 199.414 264.695L199.526 266.913C199.619 268.619 199.974 270.3 200.579 271.898C201.252 273.864 201.785 275.419 200.66 278.657L200.118 280.224C200.399 281.003 200.495 281.836 200.4 282.658C200.304 283.479 200.019 284.268 199.566 284.961L199.457 285.126L203.978 296.544L204.271 297.284H201.956L199.108 297.287H194.282L187.318 283.341L186.984 282.675V282.641L187.704 255.84C187.713 255.604 187.732 255.365 187.763 255.128C187.89 254.054 188.23 253.015 188.763 252.073C189.297 251.131 190.013 250.305 190.87 249.642C191.691 249.001 192.631 248.53 193.636 248.256C194.641 247.981 195.691 247.909 196.724 248.043L199.108 248.351L203.978 248.979L207.409 249.424L207.477 249.433L217.595 250.74L218.321 247.785L218.455 247.735L222.714 246.177L237.446 240.787L237.484 240.775L238.453 240.42L238.568 240.607C238.602 240.663 238.637 240.719 238.668 240.775C239.625 242.488 240.405 244.296 240.995 246.168C241.987 249.226 242.804 252.338 243.441 255.489C243.469 255.626 243.494 255.75 243.516 255.862L243.525 255.896C243.535 255.949 243.541 255.983 243.544 255.993C243.884 257.405 243.647 259.128 243.024 260.835Z" fill="#2F2E41"/>
<path d="M243.646 250.959C243.599 250.759 243.54 250.557 243.477 250.361C242.983 248.877 242.406 247.422 241.751 246.001C241.016 244.384 240.134 242.651 239.084 240.776C238.576 239.867 238.03 238.923 237.445 237.942C237.152 237.451 236.848 236.95 236.532 236.44C236.52 236.417 236.506 236.394 236.491 236.372L236.401 236.222L221.825 238.169L216.397 238.894L216.073 241.594L215.995 242.262C215.992 242.262 215.992 242.262 215.995 242.266L215.777 244.088V244.091L215.487 246.499L215.462 246.495L207.408 245.453L199.107 244.38L194.648 243.805C193.615 243.671 192.565 243.743 191.56 244.017C190.554 244.292 189.614 244.763 188.793 245.404C187.936 246.067 187.221 246.893 186.687 247.835C186.154 248.777 185.814 249.816 185.687 250.89C185.659 251.108 185.64 251.332 185.63 251.553L181.424 261.502C178.907 267.453 177.304 273.748 176.669 280.176L173.584 290.02L174.024 290.06L180.561 290.667L182.287 290.828L186.088 285.289C186.522 284.658 186.933 284.008 187.316 283.342C187.947 282.255 188.508 281.129 188.996 279.971L197.219 260.439C197.854 260.547 198.484 260.651 199.107 260.75C201.989 261.216 204.756 261.597 207.408 261.891C216.029 262.852 223.495 262.927 230.141 262.112C232.008 261.885 233.812 261.586 235.554 261.216C236.192 261.082 236.823 260.938 237.445 260.784C237.591 260.75 237.735 260.715 237.878 260.678C239.166 260.346 240.35 259.698 241.321 258.792C242.293 257.885 243.021 256.75 243.44 255.49C243.94 254.03 244.011 252.458 243.646 250.959Z" fill="#2F2E41"/>
<path d="M175.772 300.884L171.182 298.688L170.462 298.343L169.312 301.161L161.286 302.924C160.889 303.011 160.53 303.222 160.262 303.527C159.994 303.832 159.831 304.214 159.796 304.618C159.761 305.022 159.857 305.427 160.069 305.773C160.281 306.119 160.598 306.388 160.974 306.541L168.817 309.735L171.307 307.499L170.696 310.5L173.65 311.704L176.887 301.419L175.772 300.884Z" fill="#2F2E41"/>
<path d="M203.978 296.544L204.271 297.284H203.978V296.544Z" fill="#2F2E41"/>
<path d="M202.38 297.442L197.571 299.105L196.816 299.366L197.985 302.175L193.525 309.066C193.304 309.406 193.198 309.808 193.222 310.213C193.247 310.618 193.4 311.004 193.66 311.316C193.92 311.627 194.274 311.848 194.668 311.945C195.063 312.042 195.478 312.01 195.853 311.855L203.678 308.616L203.87 305.279L205.552 307.841L208.499 306.621L203.55 297.039L202.38 297.442Z" fill="#2F2E41"/>
<path d="M242.446 255.465C242.161 255.464 241.879 255.394 241.627 255.262L216.248 242.025L215.955 240.827L215.403 237.035L215.41 236.999L217.824 225.892C217.78 225.797 217.687 225.641 217.583 225.464C216.505 223.642 213.226 218.095 219.484 210.458L230.472 197.672L239.903 197.266L240.01 197.402C242.532 200.561 244.232 204.293 244.961 208.266C245.689 212.24 245.423 216.331 244.185 220.177L243.204 237.879L244.257 241.454C244.873 243.555 244.771 245.801 243.967 247.838L244.209 253.626C244.218 253.864 244.18 254.1 244.095 254.322C244.011 254.544 243.883 254.747 243.718 254.919C243.554 255.09 243.357 255.227 243.138 255.321C242.919 255.415 242.684 255.464 242.446 255.465Z" fill="#34F5C5"/>
<path d="M220.432 270.064C220.862 269.81 221.231 269.466 221.513 269.054C221.795 268.643 221.984 268.175 222.065 267.683C222.146 267.192 222.119 266.688 221.984 266.208C221.849 265.728 221.611 265.283 221.285 264.906L227.387 254.431L221.089 254.786L216.26 264.678C215.66 265.266 215.298 266.053 215.24 266.89C215.183 267.727 215.435 268.557 215.95 269.22C216.464 269.884 217.204 270.337 218.03 270.492C218.857 270.648 219.711 270.495 220.432 270.064Z" fill="#FFB7B7"/>
<path d="M222.894 262.363L217.256 257.98L227.501 238.162L223.662 212.925C223.473 211.677 223.561 210.403 223.919 209.193C224.278 207.984 224.9 206.867 225.74 205.924C226.579 204.981 227.617 204.234 228.778 203.736C229.94 203.238 231.197 203.002 232.46 203.043C234.742 203.121 236.9 204.098 238.46 205.762C240.021 207.426 240.856 209.64 240.783 211.917L239.835 240.653L222.894 262.363Z" fill="#34F5C5"/>
<path d="M224.423 192.358V183.043C224.421 179.733 225.736 176.557 228.08 174.215C230.423 171.873 233.603 170.556 236.92 170.554C240.236 170.552 243.418 171.865 245.764 174.204C248.111 176.543 249.43 179.717 249.432 183.027V183.043C251.636 187.628 250.257 189.807 249.432 192.358C249.432 192.803 249.254 193.228 248.94 193.543C248.625 193.857 248.198 194.033 247.753 194.034H226.103C225.658 194.034 225.231 193.857 224.916 193.543C224.601 193.229 224.424 192.803 224.423 192.358Z" fill="#2F2E41"/>
<path d="M232.828 193.429C237.997 193.429 242.188 189.246 242.188 184.086C242.188 178.926 237.997 174.743 232.828 174.743C227.658 174.743 223.468 178.926 223.468 184.086C223.468 189.246 227.658 193.429 232.828 193.429Z" fill="#FFB7B7"/>
<path d="M242.624 186.535C242.539 186.522 242.454 186.504 242.369 186.491C240.909 186.232 239.449 185.978 237.993 185.715L237.859 182.422L236.096 185.372C232.073 186.705 228.309 185.951 224.768 184.289C223.6 183.736 222.467 183.112 221.375 182.422C221.672 180.6 222.374 178.868 223.428 177.352C224.483 175.836 225.864 174.574 227.469 173.66C227.603 173.584 227.733 173.517 227.867 173.45L227.869 173.45L227.87 173.449L227.871 173.447L227.871 173.446C228.099 173.339 228.331 173.236 228.563 173.143C230.381 172.433 232.363 172.254 234.279 172.625C236.195 172.996 237.966 173.901 239.386 175.237C242.244 177.96 243.53 182.457 242.624 186.535Z" fill="#2F2E41"/>
<defs>
<linearGradient id="paint0_linear_168_3" x1="118.5" y1="0" x2="118.5" y2="237" gradientUnits="userSpaceOnUse">
<stop stop-color="#1DCDFE"/>
<stop offset="0.792708" stop-color="#21D0B2" stop-opacity="0"/>
</linearGradient>
</defs>
</svg>
