<svg width="310" height="323" viewBox="0 0 310 323" fill="none" xmlns="http://www.w3.org/2000/svg">
<path d="M237 118.5C237 183.946 183.946 237 118.5 237C53.0543 237 0 183.946 0 118.5C0 53.0543 53.0543 0 118.5 0C183.946 0 237 53.0543 237 118.5Z" fill="url(#paint0_linear_168_5)" fill-opacity="0.62"/>
<circle cx="228.5" cy="243.5" r="79.5" fill="#545353" fill-opacity="0.62"/>
<path d="M61.969 168.379C72.2555 169.206 96.1532 181.738 96.1532 181.738C114.724 200.331 142.461 201.434 160.986 202.17C188.528 203.265 209.379 194.692 224.639 188.418C224.639 188.418 260.313 180.202 260.788 180.167C261.356 180.124 261.895 181.526 261.967 181.738C263.144 185.219 250.199 198.113 235.248 202.563C233.211 203.169 228.59 204.377 223.853 208.064C220.912 210.353 219.185 212.619 218.745 213.172C214.733 218.221 193.414 237.456 169.237 238.319C148.56 239.057 132.032 226.135 113.442 211.6C106.069 205.836 106.953 205.41 97.7249 198.241C76.7971 181.982 66.3331 173.853 61.576 171.129C60.9167 170.752 58.608 169.462 58.8256 168.772C59.0242 168.142 61.2313 168.32 61.969 168.379Z" fill="#34F5C5"/>
<path d="M58.8252 169.165C58.7544 169.165 58.6828 169.146 58.6184 169.106L7.45802 137.349C7.27365 137.235 7.21686 136.993 7.33139 136.808C7.44574 136.623 7.68825 136.567 7.87243 136.682L59.0328 168.438C59.2172 168.552 59.2739 168.795 59.1594 168.979C59.085 169.099 58.9566 169.165 58.8252 169.165Z" fill="#3F3D56"/>
<path d="M260.788 180.559C260.646 180.559 260.51 180.483 260.44 180.348C260.339 180.156 260.414 179.919 260.606 179.818L304.865 156.703C305.058 156.602 305.295 156.677 305.396 156.869C305.496 157.062 305.422 157.299 305.229 157.4L260.97 180.515C260.912 180.545 260.849 180.559 260.788 180.559Z" fill="#3F3D56"/>
<path d="M102.478 175.6C102.478 175.6 99.9696 179.541 102.033 181.862C104.096 184.183 116.569 193.428 116.569 193.428C116.569 193.428 124.426 198.246 123.656 191.611C122.887 184.976 111.686 177.875 111.686 177.875L102.478 175.6Z" fill="#E6E6E6"/>
<path d="M122.867 165.17C121.525 165.041 120.273 166.645 120.069 168.754C119.977 169.595 120.087 170.447 120.39 171.237L120.19 173.629L120.148 173.633L117.355 184.621C116.705 187.175 117.235 189.912 118.88 191.972C119.859 193.198 121.011 193.945 122.06 192.84C123.8 191.007 123.745 182.047 123.561 176.923L124.138 171.598C124.587 170.881 124.858 170.066 124.928 169.222C125.131 167.114 124.209 165.3 122.867 165.17Z" fill="#FFB6B6"/>
<path d="M126.861 164.695L126.846 164.529C126.835 164.398 126.777 164.279 126.685 164.199C126.593 164.118 126.475 164.088 126.361 164.11L120.833 165.322C120.719 165.348 120.623 165.424 120.561 165.534C120.502 165.649 120.484 165.784 120.513 165.912L120.565 166.132L120.932 167.713L122.351 173.818C122.402 174.039 122.583 174.183 122.774 174.166C122.792 174.166 122.807 174.166 122.825 174.162L127.196 173.17C127.24 173.161 127.28 173.144 127.317 173.119C127.457 173.03 127.541 172.852 127.526 172.661L126.861 164.695Z" fill="#34F5C5"/>
<path d="M126.754 163.774C126.675 163.776 126.569 163.78 126.443 163.787C126.468 163.71 126.472 163.623 126.448 163.537L126.281 162.946C126.238 162.792 126.115 162.688 125.974 162.687C125.14 162.682 122.28 162.757 120.607 163.949C120.502 164.024 120.445 164.162 120.457 164.304L120.513 164.953C120.52 165.033 120.548 165.105 120.591 165.161C120.448 165.229 120.306 165.299 120.166 165.373C120.078 165.42 120.023 165.523 120.024 165.634L120.027 165.914C120.029 166.092 120.17 166.224 120.321 166.189L126.924 164.684C127.074 164.649 127.161 164.467 127.106 164.302L126.989 163.956C126.952 163.844 126.858 163.772 126.754 163.774Z" fill="#3F3D56"/>
<path d="M109.669 172.544L107.974 178.056L100.766 176.36L100.342 167.457L109.669 172.544Z" fill="#FFB6B6"/>
<path d="M99.4943 175.088L108.821 175.936L112.559 179.586L117.725 183.991C117.725 183.991 120.692 188.231 119.845 193.742L124.932 197.982L112.213 211.021L96.1025 197.558C96.1025 197.558 90.591 181.023 99.4943 175.088Z" fill="#E6E6E6"/>
<path d="M121.54 198.406L125.243 197.982L131.251 198.406L150.993 186.65C153.476 185.171 156.685 185.944 158.223 188.391L174.112 213.669L169.024 217.06L153.338 200.95L133.775 217.06C133.775 217.06 113.909 227.453 112.213 211.021L121.54 198.406Z" fill="#2F2E41"/>
<path d="M133.835 213.245L165.633 210.277L195.734 217.908L197.43 211.549L156.306 196.71L141.467 200.526L133.835 213.245Z" fill="#2F2E41"/>
<path d="M98.1755 178.536C98.1755 178.536 95.258 182.184 97.0598 184.713C98.8616 187.242 110.268 197.775 110.268 197.775C110.268 197.775 117.562 203.409 117.511 196.73C117.459 190.05 107.085 181.786 107.085 181.786L98.1755 178.536Z" fill="#E6E6E6"/>
<path d="M107.197 172.81C111.643 172.81 115.247 169.206 115.247 164.761C115.247 160.315 111.643 156.711 107.197 156.711C102.751 156.711 99.1475 160.315 99.1475 164.761C99.1475 169.206 102.751 172.81 107.197 172.81Z" fill="#FFB6B6"/>
<path d="M114.618 163.377C112.553 163.372 112.436 163.386 112.102 163.377C109.542 163.31 108.872 162.302 107.574 162.371C105.258 162.493 108.315 174.107 109.587 179.476C110.834 184.742 106.619 189.46 106.317 189.79C102.039 194.442 94.5253 195.293 93.2361 193.311C92.1925 191.708 95.8909 189.27 94.9969 185.765C94.123 182.339 90.0877 182.704 88.9597 179.476C87.7784 176.096 91.7482 174.391 94.2423 166.144C95.6746 161.408 95.4212 160.525 96.7578 157.591C100.33 149.75 117.841 153.089 115.876 160.358C115.495 161.765 116.507 163.382 114.618 163.377Z" fill="#2F2E41"/>
<path d="M59.4149 168.575C69.7015 169.402 93.4179 186.628 93.4179 186.628C111.989 205.221 139.726 206.324 158.25 207.06C185.793 208.155 206.644 199.582 221.904 193.308C221.904 193.308 253.521 198.45 257.267 186.235C257.302 186.119 257.578 185.092 258.053 185.056C258.621 185.014 259.16 186.416 259.231 186.628C260.409 190.109 247.464 203.003 232.513 207.453C230.476 208.059 225.855 209.267 221.118 212.954C218.177 215.243 216.449 217.509 216.01 218.062C211.998 223.111 190.678 242.346 166.502 243.209C145.825 243.947 129.297 231.024 110.707 216.49C103.333 210.726 104.217 210.3 94.9896 203.131C74.0618 186.872 63.5978 178.743 58.8407 176.019C58.1814 175.642 57.2327 168.872 57.4503 168.182C57.649 167.553 58.6773 168.516 59.4149 168.575Z" fill="#34F5C5"/>
<path d="M142.159 210.599C142.756 209.391 141.701 207.651 139.802 206.712C139.048 206.326 138.214 206.127 137.367 206.13L135.202 205.093L135.212 205.053L125.932 198.541C123.775 197.027 121.028 196.551 118.518 197.357C117.025 197.837 115.917 198.649 116.578 200.021C117.674 202.299 126.07 205.428 130.925 207.076L135.699 209.505C136.21 210.18 136.876 210.722 137.64 211.087C139.538 212.026 141.562 211.808 142.159 210.599Z" fill="#FFB6B6"/>
<path d="M194.265 150.269C194.265 150.269 191.212 144.163 191.823 138.668L181.662 143.934L182.053 153.932L194.265 150.269Z" fill="#A0616A"/>
<path d="M185.29 146.754C190.352 146.754 194.455 142.651 194.455 137.589C194.455 132.527 190.352 128.423 185.29 128.423C180.228 128.423 176.124 132.527 176.124 137.589C176.124 142.651 180.228 146.754 185.29 146.754Z" fill="#A0616A"/>
<path d="M197.322 281.523L191.729 281.522L189.068 259.949L197.323 259.95L197.322 281.523Z" fill="#A0616A"/>
<path d="M178.16 281.396C177.986 281.689 177.894 282.636 177.894 282.977C177.894 284.025 178.744 284.875 179.792 284.875H197.113C197.828 284.875 198.408 284.296 198.408 283.58V282.859C198.408 282.859 199.265 280.692 197.501 278.02C197.501 278.02 195.308 280.112 192.032 276.836L191.066 275.086L184.072 280.2L180.196 280.678C179.348 280.782 178.596 280.661 178.16 281.396Z" fill="#2F2E41"/>
<path d="M180.832 150.269L194.265 148.437L204.644 153.322L205.255 191.177C205.255 191.177 179.722 194.23 175.698 190.261C171.674 186.292 174.727 154.543 174.727 154.543L180.832 150.269Z" fill="#E6E6E6"/>
<path d="M187.582 139.924H190.046C190.046 139.924 192.184 137.292 191.897 138.896C191.609 140.499 192.76 142.225 192.76 142.225L194.485 141.65C194.485 141.65 197.937 127.137 187.582 126.34C177.228 125.543 174.927 133.596 174.927 133.596C174.927 133.596 175.503 137.623 176.653 136.473C177.804 135.322 184.131 134.747 184.131 134.747L187.582 139.924Z" fill="#2F2E41"/>
<path d="M174.614 238.811L169.498 241.073L158.339 222.419L165.888 219.081L174.614 238.811Z" fill="#A0616A"/>
<path d="M157.038 246.446C156.997 246.785 157.296 247.687 157.434 247.999C157.858 248.958 158.979 249.392 159.938 248.968L175.778 241.961C176.432 241.672 176.728 240.907 176.439 240.253L176.147 239.594C176.147 239.594 176.054 237.265 173.36 235.535C173.36 235.535 172.201 238.335 167.88 236.664L166.288 235.454L161.961 242.961L158.609 244.965C157.876 245.404 157.14 245.598 157.038 246.446Z" fill="#2F2E41"/>
<path d="M203.423 187.514L205.255 193.052V212.09L199.272 229.338L199.76 269.551H189.025L187.813 228.532L188.77 208.273L181.443 205.22L162.198 206.408L171.198 228.532L161.294 235.138C161.294 235.138 146.482 201.381 148.698 198.111C150.914 194.84 176.864 189.071 176.864 189.071C176.864 189.071 203.423 188.124 203.423 187.514Z" fill="#2F2E41"/>
<path d="M208.918 165.533L211.87 170.368C211.87 170.368 216.043 186.77 211.87 186.836C207.697 186.903 199.272 178.478 199.272 178.478L200.371 174.081L203.423 175.302L202.813 165.533H208.918Z" fill="#A0616A"/>
<path d="M199.76 153.245C199.76 153.245 209.529 151.524 210.445 157.918C211.361 164.312 211.87 170.368 211.87 170.368L201.286 171.245L199.76 153.245Z" fill="#E6E6E6"/>
<path d="M201.88 177.94C202.764 176.7 201.469 174.263 198.989 172.497C196.509 170.73 193.783 170.304 192.9 171.544C192.016 172.784 193.311 175.221 195.791 176.987C198.271 178.753 200.997 179.18 201.88 177.94Z" fill="#A0616A"/>
<path d="M186.594 163.319L186.572 163.068C186.555 162.868 186.466 162.688 186.326 162.566C186.187 162.443 186.008 162.398 185.835 162.43L177.44 164.272C177.267 164.31 177.122 164.426 177.027 164.594C176.938 164.768 176.91 164.974 176.955 165.167L177.033 165.501L177.591 167.903L179.746 177.174C179.824 177.509 180.097 177.727 180.387 177.702C180.415 177.702 180.438 177.702 180.466 177.695L187.102 176.189C187.169 176.176 187.231 176.15 187.286 176.111C187.498 175.976 187.627 175.706 187.605 175.416L186.594 163.319Z" fill="#34F5C5"/>
<path d="M186.432 161.921C186.312 161.925 186.151 161.93 185.959 161.94C185.998 161.823 186.004 161.691 185.967 161.562L185.714 160.663C185.648 160.43 185.461 160.271 185.248 160.27C183.981 160.262 179.638 160.376 177.097 162.187C176.938 162.301 176.851 162.511 176.87 162.725L176.955 163.711C176.965 163.833 177.008 163.941 177.072 164.027C176.856 164.13 176.64 164.236 176.428 164.349C176.294 164.42 176.21 164.576 176.212 164.746L176.217 165.171C176.22 165.44 176.434 165.641 176.663 165.588L186.69 163.302C186.918 163.25 187.05 162.973 186.966 162.723L186.789 162.197C186.732 162.027 186.589 161.917 186.432 161.921Z" fill="#3F3D56"/>
<path d="M167.669 165.926L164.717 170.761C164.717 170.761 160.544 187.162 164.717 187.229C168.89 187.296 177.316 178.871 177.316 178.871L176.217 174.474L173.164 175.695L173.775 165.926H167.669Z" fill="#A0616A"/>
<path d="M176.828 153.638C176.828 153.638 167.059 151.917 166.143 158.311C165.227 164.705 164.717 170.761 164.717 170.761L175.301 171.637L176.828 153.638Z" fill="#E6E6E6"/>
<path d="M180.797 177.38C183.277 175.614 184.571 173.176 183.688 171.937C182.805 170.697 180.079 171.123 177.599 172.889C175.119 174.656 173.824 177.093 174.707 178.333C175.591 179.573 178.317 179.146 180.797 177.38Z" fill="#A0616A"/>
<defs>
<linearGradient id="paint0_linear_168_5" x1="118.5" y1="0" x2="118.5" y2="237" gradientUnits="userSpaceOnUse">
<stop stop-color="#1DCDFE"/>
<stop offset="0.792708" stop-color="#21D0B2" stop-opacity="0"/>
</linearGradient>
</defs>
</svg>
