<svg width="66" height="134" viewBox="0 0 66 134" fill="none" xmlns="http://www.w3.org/2000/svg">
<path d="M16.674 127.162L12.7129 127.757L8.5271 112.805L14.3732 111.927L16.674 127.162Z" fill="#FFB6B6"/>
<path d="M17.4359 131.262L5.25516 133.091L5.23196 132.937C4.8377 130.326 6.64053 127.891 9.25882 127.498L9.25911 127.498L11.2298 125.48L15.6354 126.54L16.6987 126.38L17.4359 131.262Z" fill="#2F2E41"/>
<path d="M49.603 123.976L46.0119 125.745L37.4574 112.776L42.7576 110.164L49.603 123.976Z" fill="#FFB6B6"/>
<path d="M51.581 127.649L40.538 133.091L40.469 132.952C39.2959 130.585 40.2691 127.718 42.6427 126.548L42.643 126.548L43.9037 124.027L48.4237 123.699L49.3877 123.224L51.581 127.649Z" fill="#2F2E41"/>
<path d="M58.0748 78.9221L58.1407 54.457L63.9841 52.9146L62.2864 78.8203C62.768 79.2023 63.1485 79.722 63.3565 80.3479C63.926 82.0624 62.9939 83.9128 61.2744 84.4807C59.555 85.0486 57.6994 84.1191 57.1298 82.4046C56.7037 81.1216 57.1186 79.763 58.0748 78.9221Z" fill="#FFB6B6"/>
<path d="M20.7821 76.5542L21.8556 52.1124L27.7576 50.8105L24.9944 76.6249C25.4598 77.0263 25.8187 77.5611 26.0007 78.1951C26.4991 79.9315 25.4916 81.7421 23.7502 82.2391C22.0088 82.7362 20.1931 81.7315 19.6946 79.9951C19.3216 78.6957 19.7921 77.3552 20.7821 76.5542Z" fill="#FFB6B6"/>
<path d="M37.0845 85.3191L21.867 90.2984L12.9531 93.214C16.6938 99.7488 16.3638 119.856 16.0731 121.526H8.28723C8.21209 120.025 2.69814 100.405 1.06629 91.5184C-1.05723 79.9538 8.90699 77.0219 8.90699 77.0219L23.2996 71.308L32.3229 69.0407L39.453 67.249C39.7765 67.8582 40.0574 68.4527 40.3008 69.0342C40.3024 69.0358 40.3024 69.0391 40.3041 69.0407C44.6197 79.3462 37.0845 85.3191 37.0845 85.3191Z" fill="#2F2E41"/>
<path d="M56.9312 76.0545C56.7123 79.4017 55.3141 81.6674 55.3141 81.6674L35.3219 97.2845C39.3354 100.689 49.0141 117.478 49.8684 119.705L41.1577 121.005C40.2021 119.241 25.0604 102.278 23.5658 99.7261C21.6285 96.418 21.3557 93.1717 21.867 90.2985C22.9238 84.3517 27.3457 79.9979 27.3457 79.9979L38.3128 69.9611L40.2861 69.0408L40.3008 69.0343L51.3709 63.8726C53.282 65.6024 54.5855 67.3501 55.4513 69.0408C56.4069 70.9074 56.8267 72.704 56.9312 74.3263C56.9704 74.929 56.9672 75.5056 56.9312 76.0545Z" fill="#2F2E41"/>
<path d="M47.1304 24.0855L36.1861 23.7598L32.9191 27.6689C29.7775 28.0336 27.0155 29.248 24.7517 31.5781C24.7517 31.5781 26.55 36.3761 26.0585 46.5632C25.8023 51.8742 27.0129 61.6558 26.8752 65.4575C26.7526 68.8436 27.2642 70.354 27.3653 70.344C27.7974 70.301 29.8155 69.2038 33.8992 70.5068C37.9829 71.8099 55.8556 69.0242 55.8556 69.0242L54.6444 61.2226L56.1546 56.323L56.7679 30.275C53.3376 28.8091 51.5407 28.3205 48.2738 28.3205L47.1304 24.0855Z" fill="#34F5C5"/>
<path d="M53.3853 32.2894L56.6047 30.2749C56.6047 30.2749 62.4852 29.2976 61.9951 40.5364C61.9951 40.5364 65.2172 48.6329 65.0214 55.6934C65.0093 56.131 64.5702 56.7791 64.944 56.9921C65.7381 57.4446 65.361 57.8735 64.772 58.2905L57.3873 59.9331C56.7287 59.3147 56.3936 58.7367 56.9245 58.2667C56.3265 58.0508 56.1749 57.7523 56.6657 57.3348C56.392 57.2836 56.2665 57.119 56.4866 56.69L52.8477 49.0063L53.3853 32.2894Z" fill="#34F5C5"/>
<path d="M28.4561 33.0348L24.976 31.511C24.976 31.511 19.0154 31.4013 21.1475 42.448C21.1475 42.448 19.3537 50.0504 20.2063 56.7636C20.2251 56.9122 20.363 57.0937 20.2668 57.208C19.9423 57.5935 19.9032 57.974 20.4625 58.3462C20.6565 58.4752 20.7242 58.8242 20.6104 59.0243C20.2441 59.6687 20.5028 60.0885 21.0029 60.4162L29.7046 63.4242L32.0097 45.266L28.4561 33.0348Z" fill="#34F5C5"/>
<path d="M37.7653 22.41C42.6858 23.7912 47.7989 20.9335 49.1857 16.0271C50.5726 11.1207 47.708 6.02354 42.7876 4.6423C37.8671 3.26107 32.754 6.11879 31.3672 11.0252C29.9803 15.9316 32.8449 21.0288 37.7653 22.41Z" fill="#FFB6B6"/>
<path d="M46.9595 21.8053C46.7948 21.9766 46.4031 22.1601 45.8934 22.3424C45.3137 22.5495 44.5833 22.7539 43.8623 22.9427C43.8623 22.9427 41.6898 22.0717 42.9063 21.1358C43.0422 21.0323 43.1759 20.9122 43.3034 20.7823C43.7717 20.3015 44.1097 19.6783 43.8535 19.0954C43.6634 18.6648 43.1457 18.4077 42.6862 18.517C42.2282 18.624 42.3748 18.6637 42.2341 18.579C41.9831 18.0478 41.3253 18.0771 41.3253 18.0771C41.3253 18.0771 42.0903 17.1519 42.5863 16.8063C43.0845 16.462 43.6061 16.0741 43.8075 15.5055C44.0035 14.9609 43.8681 14.3596 43.7317 13.8002C43.5838 13.1944 43.4367 12.5922 43.2888 11.9864C43.2385 11.7828 43.1895 11.577 43.1284 11.3761C42.5425 9.40615 38.622 10.1418 36.6594 9.51284C34.6982 8.88162 34.7103 6.2871 33.0816 7.54612C33.1517 6.20846 33.2142 5.17011 33.2359 4.01297C33.2568 2.95263 34.5962 2.45249 35.2786 3.26774C35.2839 3.274 35.287 3.27892 35.2924 3.28518C35.4525 3.1719 35.5867 3.03088 35.6946 2.86792C35.7693 2.75483 35.8636 2.65964 35.9667 2.58499C36.1935 2.86449 36.4217 3.14173 36.6463 3.41989C36.69 3.06625 36.6697 2.70752 36.5934 2.36067C36.865 2.34495 37.1431 2.42429 37.3742 2.60609L37.7906 2.92985C37.9685 2.8425 38.1171 2.71311 38.2361 2.55688C38.5601 2.12288 39.1244 1.96127 39.6307 2.15682C40.448 2.47283 39.3911 1.97776 40.2831 2.01964C41.6497 2.083 43.1572 2.20074 44.1119 3.18009C45.5415 4.64306 46.6286 5.72804 49.5711 6.82429C50.7946 8.24878 50.7619 10.8405 50.8823 12.1805C50.9795 13.2421 50.7175 15.218 50.0575 16.0605C48.3915 18.1907 48.8281 19.8488 46.9595 21.8053Z" fill="#2F2E41"/>
</svg>
